LibraSans-BoldItalic.ufo
<glyph name="numbersign" format="1">
  <advance width="556"/>
  <unicode hex="0023"/>
  <outline>
    <contour>
      <point x="555" y="421" type="line"/>
      <point x="458" y="421" type="line"/>
      <point x="425" y="259" type="line"/>
      <point x="530" y="259" type="line"/>
      <point x="530" y="186" type="line"/>
      <point x="410" y="186" type="line"/>
      <point x="370" y="0" type="line"/>
      <point x="293" y="0" type="line"/>
      <point x="333" y="186" type="line"/>
      <point x="183" y="186" type="line"/>
      <point x="144" y="0" type="line"/>
      <point x="69" y="0" type="line"/>
      <point x="107" y="186" type="line"/>
      <point x="32" y="186" type="line"/>
      <point x="32" y="259" type="line"/>
      <point x="124" y="259" type="line"/>
      <point x="158" y="421" type="line"/>
      <point x="57" y="421" type="line"/>
      <point x="57" y="493" type="line"/>
      <point x="173" y="493" type="line"/>
      <point x="214" y="681" type="line"/>
      <point x="289" y="681" type="line"/>
      <point x="249" y="493" type="line"/>
      <point x="398" y="493" type="line"/>
      <point x="439" y="681" type="line"/>
      <point x="516" y="681" type="line"/>
      <point x="475" y="493" type="line"/>
      <point x="555" y="493" type="line"/>
    </contour>
    <contour>
      <point x="384" y="421" type="line"/>
      <point x="234" y="421" type="line"/>
      <point x="199" y="259" type="line"/>
      <point x="350" y="259" type="line"/>
    </contour>
  </outline>
</glyph>
<glyph name="ampersand" format="1">
  <advance width="722"/>
  <unicode hex="0026"/>
  <outline>
    <contour>
      <point x="24" y="173" type="curve" smooth="yes"/>
      <point x="24" y="274"/>
      <point x="93" y="348"/>
      <point x="232" y="396" type="curve"/>
      <point x="223" y="427"/>
      <point x="215" y="473"/>
      <point x="215" y="506" type="curve" smooth="yes"/>
      <point x="215" y="618"/>
      <point x="295" y="692"/>
      <point x="424" y="692" type="curve" smooth="yes"/>
      <point x="527" y="692"/>
      <point x="588" y="646"/>
      <point x="588" y="566" type="curve" smooth="yes"/>
      <point x="588" y="537"/>
      <point x="580" y="510"/>
      <point x="565" y="487" type="curve" smooth="yes"/>
      <point x="550" y="464"/>
      <point x="529" y="443"/>
      <point x="501" y="424" type="curve" smooth="yes"/>
      <point x="474" y="405"/>
      <point x="426" y="382"/>
      <point x="359" y="355" type="curve"/>
      <point x="373" y="316"/>
      <point x="386" y="285"/>
      <point x="398" y="262" type="curve" smooth="yes"/>
      <point x="411" y="239"/>
      <point x="426" y="216"/>
      <point x="443" y="193" type="curve"/>
      <point x="486" y="239"/>
      <point x="525" y="298"/>
      <point x="558" y="371" type="curve"/>
      <point x="649" y="331" type="line"/>
      <point x="620" y="263"/>
      <point x="568" y="183"/>
      <point x="513" y="127" type="curve"/>
      <point x="538" y="106"/>
      <point x="568" y="96"/>
      <point x="603" y="96" type="curve" smooth="yes"/>
      <point x="624" y="96"/>
      <point x="642" y="99"/>
      <point x="657" y="104" type="curve"/>
      <point x="638" y="5" type="line"/>
      <point x="617" y="-2"/>
      <point x="594" y="-6"/>
      <point x="570" y="-6" type="curve" smooth="yes"/>
      <point x="513" y="-6"/>
      <point x="464" y="13"/>
      <point x="421" y="51" type="curve"/>
      <point x="398" y="33"/>
      <point x="378" y="20"/>
      <point x="361" y="13" type="curve" smooth="yes"/>
      <point x="328" y="-2"/>
      <point x="283" y="-10"/>
      <point x="227" y="-10" type="curve" smooth="yes"/>
      <point x="95" y="-10"/>
      <point x="24" y="54"/>
    </contour>
    <contour>
      <point x="241" y="83" type="curve" smooth="yes"/>
      <point x="281" y="83"/>
      <point x="325" y="99"/>
      <point x="354" y="122" type="curve"/>
      <point x="313" y="175"/>
      <point x="281" y="237"/>
      <point x="256" y="308" type="curve"/>
      <point x="176" y="272"/>
      <point x="148" y="229"/>
      <point x="148" y="176" type="curve" smooth="yes"/>
      <point x="148" y="120"/>
      <point x="185" y="83"/>
    </contour>
    <contour>
      <point x="326" y="508" type="curve" smooth="yes"/>
      <point x="326" y="482"/>
      <point x="329" y="459"/>
      <point x="335" y="438" type="curve"/>
      <point x="382" y="455"/>
      <point x="413" y="469"/>
      <point x="429" y="479" type="curve" smooth="yes"/>
      <point x="462" y="500"/>
      <point x="479" y="525"/>
      <point x="479" y="558" type="curve" smooth="yes"/>
      <point x="479" y="591"/>
      <point x="456" y="609"/>
      <point x="417" y="609" type="curve" smooth="yes"/>
      <point x="362" y="609"/>
      <point x="326" y="571"/>
    </contour>
  </outline>
</glyph>
<glyph name="asterisk" format="1">
  <advance width="389"/>
  <unicode hex="002A"/>
  <outline>
    <contour>
      <point x="289" y="688" type="line"/>
      <point x="280" y="554" type="line"/>
      <point x="395" y="605" type="line"/>
      <point x="428" y="509" type="line"/>
      <point x="306" y="479" type="line"/>
      <point x="397" y="375" type="line"/>
      <point x="307" y="316" type="line"/>
      <point x="236" y="439" type="line"/>
      <point x="163" y="316" type="line"/>
      <point x="72" y="376" type="line"/>
      <point x="165" y="479" type="line"/>
      <point x="43" y="509" type="line"/>
      <point x="76" y="605" type="line"/>
      <point x="193" y="554" type="line"/>
      <point x="184" y="688" type="line"/>
    </contour>
  </outline>
</glyph>
<glyph name="plus" format="1">
  <advance width="584"/>
  <unicode hex="002B"/>
  <outline>
    <contour>
      <point x="563" y="278" type="line"/>
      <point x="366" y="278" type="line"/>
      <point x="366" y="79" type="line"/>
      <point x="256" y="79" type="line"/>
      <point x="256" y="278" type="line"/>
      <point x="61" y="278" type="line"/>
      <point x="61" y="387" type="line"/>
      <point x="256" y="387" type="line"/>
      <point x="256" y="586" type="line"/>
      <point x="366" y="586" type="line"/>
      <point x="366" y="387" type="line"/>
      <point x="563" y="387" type="line"/>
    </contour>
  </outline>
</glyph>
<glyph name="comma" format="1">
  <advance width="278"/>
  <unicode hex="002C"/>
  <outline>
    <contour>
      <point x="81" y="-155" type="curve"/>
      <point x="-10" y="-155" type="line"/>
      <point x="41" y="-104"/>
      <point x="77" y="-48"/>
      <point x="85" y="0" type="curve"/>
      <point x="22" y="0" type="line"/>
      <point x="51" y="149" type="line"/>
      <point x="192" y="149" type="line"/>
      <point x="169" y="32" type="line" smooth="yes"/>
      <point x="154" y="-45"/>
      <point x="128" y="-103"/>
    </contour>
  </outline>
</glyph>
<glyph name="period" format="1">
  <advance width="278"/>
  <unicode hex="002E"/>
  <outline>
    <contour>
      <point x="164" y="0" type="line"/>
      <point x="22" y="0" type="line"/>
      <point x="51" y="149" type="line"/>
      <point x="192" y="149" type="line"/>
    </contour>
  </outline>
</glyph>
<glyph name="slash" format="1">
  <advance width="278"/>
  <unicode hex="002F"/>
  <outline>
    <contour>
      <point x="81" y="-20" type="line"/>
      <point x="-37" y="-20" type="line"/>
      <point x="250" y="725" type="line"/>
      <point x="366" y="725" type="line"/>
    </contour>
  </outline>
</glyph>
<glyph name="two" format="1">
  <advance width="556"/>
  <unicode hex="0032"/>
  <outline>
    <contour>
      <point x="465" y="0" type="line"/>
      <point x="-16" y="0" type="line"/>
      <point x="2" y="95" type="line"/>
      <point x="18" y="123"/>
      <point x="36" y="148"/>
      <point x="57" y="171" type="curve" smooth="yes"/>
      <point x="78" y="194"/>
      <point x="101" y="216"/>
      <point x="126" y="237" type="curve" smooth="yes"/>
      <point x="151" y="258"/>
      <point x="192" y="290"/>
      <point x="251" y="331" type="curve" smooth="yes"/>
      <point x="299" y="364"/>
      <point x="332" y="390"/>
      <point x="349" y="407" type="curve" smooth="yes"/>
      <point x="385" y="443"/>
      <point x="405" y="479"/>
      <point x="405" y="519" type="curve" smooth="yes"/>
      <point x="405" y="566"/>
      <point x="379" y="589"/>
      <point x="326" y="589" type="curve" smooth="yes"/>
      <point x="269" y="589"/>
      <point x="234" y="562"/>
      <point x="217" y="499" type="curve"/>
      <point x="87" y="528" type="line"/>
      <point x="122" y="644"/>
      <point x="206" y="698"/>
      <point x="335" y="698" type="curve" smooth="yes"/>
      <point x="472" y="698"/>
      <point x="546" y="641"/>
      <point x="546" y="529" type="curve" smooth="yes"/>
      <point x="546" y="498"/>
      <point x="539" y="468"/>
      <point x="525" y="439" type="curve" smooth="yes"/>
      <point x="512" y="411"/>
      <point x="491" y="384"/>
      <point x="463" y="357" type="curve" smooth="yes"/>
      <point x="436" y="330"/>
      <point x="391" y="296"/>
      <point x="330" y="255" type="curve" smooth="yes"/>
      <point x="245" y="196"/>
      <point x="196" y="156"/>
      <point x="167" y="113" type="curve"/>
      <point x="487" y="113" type="line"/>
    </contour>
  </outline>
</glyph>
<glyph name="three" format="1">
  <advance width="556"/>
  <unicode hex="0033"/>
  <outline>
    <contour>
      <point x="226" y="405" type="line"/>
      <point x="261" y="405" type="line" smooth="yes"/>
      <point x="358" y="405"/>
      <point x="406" y="444"/>
      <point x="406" y="513" type="curve" smooth="yes"/>
      <point x="406" y="560"/>
      <point x="381" y="589"/>
      <point x="329" y="589" type="curve" smooth="yes"/>
      <point x="268" y="589"/>
      <point x="230" y="559"/>
      <point x="213" y="499" type="curve"/>
      <point x="83" y="524" type="line"/>
      <point x="116" y="640"/>
      <point x="200" y="698"/>
      <point x="334" y="698" type="curve" smooth="yes"/>
      <point x="467" y="698"/>
      <point x="545" y="635"/>
      <point x="545" y="530" type="curve" smooth="yes"/>
      <point x="545" y="429"/>
      <point x="477" y="363"/>
      <point x="369" y="354" type="curve"/>
      <point x="368" y="352" type="line"/>
      <point x="456" y="339"/>
      <point x="503" y="285"/>
      <point x="503" y="204" type="curve" smooth="yes"/>
      <point x="505" y="83"/>
      <point x="397" y="-14"/>
      <point x="250" y="-10" type="curve"/>
      <point x="102" y="-10"/>
      <point x="19" y="52"/>
      <point x="8" y="167" type="curve"/>
      <point x="146" y="186" type="line"/>
      <point x="153" y="127"/>
      <point x="184" y="101"/>
      <point x="256" y="101" type="curve" smooth="yes"/>
      <point x="324" y="101"/>
      <point x="364" y="139"/>
      <point x="364" y="203" type="curve" smooth="yes"/>
      <point x="364" y="264"/>
      <point x="328" y="294"/>
      <point x="256" y="294" type="curve" smooth="yes"/>
      <point x="204" y="294" type="line"/>
    </contour>
  </outline>
</glyph>
<glyph name="five" format="1">
  <advance width="556"/>
  <unicode hex="0035"/>
  <outline>
    <contour>
      <point x="55" y="301" type="line"/>
      <point x="154" y="688" type="line"/>
      <point x="568" y="688" type="line"/>
      <point x="547" y="575" type="line"/>
      <point x="257" y="575" type="line"/>
      <point x="214" y="412" type="line"/>
      <point x="238" y="434"/>
      <point x="276" y="456"/>
      <point x="339" y="456" type="curve" smooth="yes"/>
      <point x="447" y="456"/>
      <point x="520" y="377"/>
      <point x="520" y="253" type="curve" smooth="yes"/>
      <point x="520" y="94"/>
      <point x="409" y="-10"/>
      <point x="237" y="-10" type="curve" smooth="yes"/>
      <point x="108" y="-10"/>
      <point x="27" y="49"/>
      <point x="10" y="161" type="curve"/>
      <point x="148" y="183" type="line"/>
      <point x="160" y="122"/>
      <point x="188" y="101"/>
      <point x="249" y="101" type="curve" smooth="yes"/>
      <point x="330" y="101"/>
      <point x="380" y="154"/>
      <point x="380" y="237" type="curve" smooth="yes"/>
      <point x="380" y="306"/>
      <point x="347" y="345"/>
      <point x="288" y="345" type="curve" smooth="yes"/>
      <point x="248" y="345"/>
      <point x="215" y="330"/>
      <point x="189" y="301" type="curve"/>
    </contour>
  </outline>
</glyph>
<glyph name="seven" format="1">
  <advance width="556"/>
  <unicode hex="0037"/>
  <outline>
    <contour>
      <point x="70" y="575" type="line"/>
      <point x="92" y="688" type="line"/>
      <point x="595" y="688" type="line"/>
      <point x="574" y="579" type="line"/>
      <point x="495" y="484" type="line" smooth="yes"/>
      <point x="410" y="385"/>
      <point x="349" y="300"/>
      <point x="312" y="229" type="curve" smooth="yes"/>
      <point x="275" y="158"/>
      <point x="247" y="82"/>
      <point x="230" y="0" type="curve"/>
      <point x="85" y="0" type="line"/>
      <point x="130" y="237"/>
      <point x="268" y="391"/>
      <point x="436" y="575" type="curve"/>
    </contour>
  </outline>
</glyph>
<glyph name="semicolon" format="1">
  <advance width="333"/>
  <unicode hex="003B"/>
  <outline>
    <contour>
      <point x="255" y="367" type="line"/>
      <point x="115" y="367" type="line"/>
      <point x="142" y="505" type="line"/>
      <point x="282" y="505" type="line"/>
    </contour>
    <contour>
      <point x="101" y="-155" type="curve"/>
      <point x="11" y="-155" type="line"/>
      <point x="62" y="-104"/>
      <point x="98" y="-48"/>
      <point x="106" y="0" type="curve"/>
      <point x="43" y="0" type="line"/>
      <point x="70" y="137" type="line"/>
      <point x="211" y="137" type="line"/>
      <point x="190" y="32" type="line" smooth="yes"/>
      <point x="175" y="-45"/>
      <point x="150" y="-102"/>
    </contour>
  </outline>
</glyph>
<glyph name="greater" format="1">
  <advance width="584"/>
  <unicode hex="003E"/>
  <outline>
    <contour>
      <point x="562" y="252" type="line"/>
      <point x="61" y="61" type="line"/>
      <point x="61" y="172" type="line"/>
      <point x="467" y="330" type="line"/>
      <point x="61" y="489" type="line"/>
      <point x="61" y="600" type="line"/>
      <point x="562" y="409" type="line"/>
    </contour>
  </outline>
</glyph>
<glyph name="question" format="1">
  <advance width="611"/>
  <unicode hex="003F"/>
  <outline>
    <contour>
      <point x="364" y="698" type="curve" smooth="yes"/>
      <point x="503" y="698"/>
      <point x="590" y="633"/>
      <point x="590" y="525" type="curve" smooth="yes"/>
      <point x="590" y="496"/>
      <point x="584" y="469"/>
      <point x="572" y="446" type="curve" smooth="yes"/>
      <point x="560" y="423"/>
      <point x="543" y="402"/>
      <point x="520" y="382" type="curve" smooth="yes"/>
      <point x="498" y="363"/>
      <point x="462" y="339"/>
      <point x="411" y="310" type="curve" smooth="yes"/>
      <point x="386" y="293"/>
      <point x="368" y="281"/>
      <point x="359" y="272" type="curve" smooth="yes"/>
      <point x="340" y="255"/>
      <point x="329" y="236"/>
      <point x="325" y="208" type="curve"/>
      <point x="195" y="208" type="line"/>
      <point x="200" y="233"/>
      <point x="207" y="255"/>
      <point x="217" y="274" type="curve" smooth="yes"/>
      <point x="227" y="293"/>
      <point x="240" y="309"/>
      <point x="255" y="324" type="curve" smooth="yes"/>
      <point x="271" y="339"/>
      <point x="298" y="359"/>
      <point x="337" y="383" type="curve" smooth="yes"/>
      <point x="427" y="438"/>
      <point x="452" y="465"/>
      <point x="452" y="515" type="curve" smooth="yes"/>
      <point x="452" y="556"/>
      <point x="421" y="586"/>
      <point x="356" y="586" type="curve" smooth="yes"/>
      <point x="282" y="586"/>
      <point x="237" y="555"/>
      <point x="220" y="492" type="curve"/>
      <point x="90" y="512" type="line"/>
      <point x="128" y="636"/>
      <point x="219" y="698"/>
    </contour>
    <contour>
      <point x="292" y="0" type="line"/>
      <point x="151" y="0" type="line"/>
      <point x="176" y="132" type="line"/>
      <point x="317" y="132" type="line"/>
    </contour>
  </outline>
</glyph>
<glyph name="D" format="1">
  <advance width="722"/>
  <unicode hex="0044"/>
  <outline>
    <contour>
      <point x="151" y="688" type="line"/>
      <point x="358" y="688" type="line" smooth="yes"/>
      <point x="575" y="688"/>
      <point x="694" y="585"/>
      <point x="694" y="394" type="curve" smooth="yes"/>
      <point x="694" y="317"/>
      <point x="678" y="249"/>
      <point x="645" y="190" type="curve" smooth="yes"/>
      <point x="581" y="73"/>
      <point x="452" y="0"/>
      <point x="300" y="0" type="curve" smooth="yes"/>
      <point x="18" y="0" type="line"/>
    </contour>
    <contour>
      <point x="273" y="577" type="line"/>
      <point x="183" y="111" type="line"/>
      <point x="295" y="111" type="line" smooth="yes"/>
      <point x="454" y="111"/>
      <point x="559" y="218"/>
      <point x="559" y="388" type="curve" smooth="yes"/>
      <point x="559" y="511"/>
      <point x="488" y="577"/>
      <point x="359" y="577" type="curve" smooth="yes"/>
    </contour>
  </outline>
</glyph>
<glyph name="V" format="1">
  <advance width="667"/>
  <unicode hex="0056"/>
  <outline>
    <contour>
      <point x="737" y="688" type="line"/>
      <point x="360" y="0" type="line"/>
      <point x="194" y="0" type="line"/>
      <point x="83" y="688" type="line"/>
      <point x="232" y="688" type="line"/>
      <point x="288" y="246" type="line" smooth="yes"/>
      <point x="293" y="198"/>
      <point x="297" y="155"/>
      <point x="299" y="116" type="curve"/>
      <point x="314" y="151"/>
      <point x="327" y="178"/>
      <point x="336" y="198" type="curve" smooth="yes"/>
      <point x="345" y="218"/>
      <point x="429" y="381"/>
      <point x="586" y="688" type="curve"/>
    </contour>
  </outline>
</glyph>
<glyph name="bracketleft" format="1">
  <advance width="333"/>
  <unicode hex="005B"/>
  <outline>
    <contour>
      <point x="238" y="-208" type="line"/>
      <point x="-26" y="-208" type="line"/>
      <point x="154" y="725" type="line"/>
      <point x="419" y="725" type="line"/>
      <point x="401" y="632" type="line"/>
      <point x="266" y="632" type="line"/>
      <point x="121" y="-114" type="line"/>
      <point x="256" y="-114" type="line"/>
    </contour>
  </outline>
</glyph>
<glyph name="bracketright" format="1">
  <advance width="333"/>
  <unicode hex="005D"/>
  <outline>
    <contour>
      <point x="179" y="-208" type="line"/>
      <point x="-85" y="-208" type="line"/>
      <point x="-67" y="-114" type="line"/>
      <point x="68" y="-114" type="line"/>
      <point x="213" y="632" type="line"/>
      <point x="78" y="632" type="line"/>
      <point x="96" y="725" type="line"/>
      <point x="360" y="725" type="line"/>
    </contour>
  </outline>
</glyph>
<glyph name="asciicircum" format="1">
  <advance width="584"/>
  <unicode hex="005E"/>
  <outline>
    <contour>
      <point x="582" y="251" type="line"/>
      <point x="470" y="251" type="line"/>
      <point x="311" y="618" type="line"/>
      <point x="152" y="251" type="line"/>
      <point x="42" y="251" type="line"/>
      <point x="232" y="688" type="line"/>
      <point x="390" y="688" type="line"/>
    </contour>
  </outline>
</glyph>
<glyph name="l" format="1">
  <advance width="278"/>
  <unicode hex="006C"/>
  <outline>
    <contour>
      <point x="154" y="0" type="line"/>
      <point x="17" y="0" type="line"/>
      <point x="158" y="725" type="line"/>
      <point x="295" y="725" type="line"/>
    </contour>
  </outline>
</glyph>
<glyph name="braceleft" format="1">
  <advance width="389"/>
  <unicode hex="007B"/>
  <outline>
    <contour>
      <point x="279" y="-208" type="line"/>
      <point x="189" y="-208" type="line" smooth="yes"/>
      <point x="112" y="-208"/>
      <point x="64" y="-164"/>
      <point x="64" y="-99" type="curve" smooth="yes"/>
      <point x="64" y="-84"/>
      <point x="66" y="-68"/>
      <point x="70" y="-49" type="curve" smooth="yes"/>
      <point x="100" y="101" type="line" smooth="yes"/>
      <point x="102" y="112"/>
      <point x="103" y="123"/>
      <point x="103" y="134" type="curve" smooth="yes"/>
      <point x="103" y="184"/>
      <point x="72" y="210"/>
      <point x="9" y="211" type="curve"/>
      <point x="28" y="305" type="line"/>
      <point x="103" y="306"/>
      <point x="148" y="343"/>
      <point x="162" y="416" type="curve" smooth="yes"/>
      <point x="194" y="581" type="line" smooth="yes"/>
      <point x="213" y="676"/>
      <point x="265" y="725"/>
      <point x="365" y="725" type="curve" smooth="yes"/>
      <point x="460" y="725" type="line"/>
      <point x="442" y="632" type="line"/>
      <point x="405" y="632" type="line" smooth="yes"/>
      <point x="352" y="632"/>
      <point x="327" y="604"/>
      <point x="312" y="532" type="curve" smooth="yes"/>
      <point x="283" y="380" type="line" smooth="yes"/>
      <point x="270" y="319"/>
      <point x="221" y="273"/>
      <point x="158" y="260" type="curve"/>
      <point x="157" y="258" type="line"/>
      <point x="205" y="246"/>
      <point x="237" y="211"/>
      <point x="237" y="163" type="curve" smooth="yes"/>
      <point x="237" y="153"/>
      <point x="236" y="144"/>
      <point x="234" y="137" type="curve" smooth="yes"/>
      <point x="203" y="-26" type="line" smooth="yes"/>
      <point x="200" y="-39"/>
      <point x="198" y="-52"/>
      <point x="198" y="-63" type="curve" smooth="yes"/>
      <point x="198" y="-98"/>
      <point x="221" y="-114"/>
      <point x="258" y="-114" type="curve" smooth="yes"/>
      <point x="297" y="-114" type="line"/>
    </contour>
  </outline>
</glyph>
<glyph name="bar" format="1">
  <advance width="280"/>
  <unicode hex="007C"/>
  <outline>
    <contour>
      <point x="221" y="-208" type="line"/>
      <point x="93" y="-208" type="line"/>
      <point x="93" y="725" type="line"/>
      <point x="221" y="725" type="line"/>
    </contour>
  </outline>
</glyph>
<glyph name="asciitilde" format="1">
  <advance width="584"/>
  <unicode hex="007E"/>
  <outline>
    <contour>
      <point x="434" y="252" type="curve" smooth="yes"/>
      <point x="385" y="252"/>
      <point x="339" y="268"/>
      <point x="290" y="285" type="curve" smooth="yes"/>
      <point x="246" y="300"/>
      <point x="210" y="308"/>
      <point x="182" y="308" type="curve" smooth="yes"/>
      <point x="135" y="308"/>
      <point x="99" y="294"/>
      <point x="58" y="265" type="curve"/>
      <point x="58" y="369" type="line"/>
      <point x="95" y="396"/>
      <point x="139" y="410"/>
      <point x="190" y="410" type="curve" smooth="yes"/>
      <point x="242" y="410"/>
      <point x="292" y="393"/>
      <point x="340" y="376" type="curve" smooth="yes"/>
      <point x="383" y="361"/>
      <point x="418" y="353"/>
      <point x="443" y="353" type="curve" smooth="yes"/>
      <point x="487" y="353"/>
      <point x="527" y="368"/>
      <point x="564" y="398" type="curve"/>
      <point x="564" y="291" type="line"/>
      <point x="523" y="263"/>
      <point x="490" y="252"/>
    </contour>
  </outline>
</glyph>
<glyph name="exclamdown" format="1">
  <advance width="333"/>
  <unicode hex="00A1"/>
  <outline>
    <contour>
      <point x="261" y="396" type="line"/>
      <point x="121" y="396" type="line"/>
      <point x="146" y="528" type="line"/>
      <point x="287" y="528" type="line"/>
    </contour>
    <contour>
      <point x="153" y="-160" type="line"/>
      <point x="10" y="-160" type="line"/>
      <point x="118" y="319" type="line"/>
      <point x="230" y="319" type="line"/>
    </contour>
  </outline>
</glyph>
<glyph name="currency" format="1">
  <advance width="556"/>
  <unicode hex="00A4"/>
  <outline>
    <contour>
      <point x="73" y="334" type="curve" smooth="yes"/>
      <point x="73" y="373"/>
      <point x="83" y="409"/>
      <point x="102" y="442" type="curve"/>
      <point x="37" y="507" type="line"/>
      <point x="114" y="583" type="line"/>
      <point x="178" y="518" type="line"/>
      <point x="211" y="537"/>
      <point x="246" y="547"/>
      <point x="285" y="547" type="curve" smooth="yes"/>
      <point x="324" y="547"/>
      <point x="360" y="537"/>
      <point x="392" y="518" type="curve"/>
      <point x="458" y="584" type="line"/>
      <point x="535" y="507" type="line"/>
      <point x="469" y="441" type="line"/>
      <point x="488" y="409"/>
      <point x="498" y="373"/>
      <point x="498" y="334" type="curve" smooth="yes"/>
      <point x="498" y="295"/>
      <point x="489" y="260"/>
      <point x="470" y="228" type="curve"/>
      <point x="535" y="163" type="line"/>
      <point x="458" y="85" type="line"/>
      <point x="393" y="151" type="line"/>
      <point x="360" y="132"/>
      <point x="324" y="122"/>
      <point x="285" y="122" type="curve" smooth="yes"/>
      <point x="246" y="122"/>
      <point x="210" y="131"/>
      <point x="178" y="150" type="curve"/>
      <point x="112" y="83" type="line"/>
      <point x="35" y="160" type="line"/>
      <point x="101" y="227" type="line"/>
      <point x="82" y="259"/>
      <point x="73" y="295"/>
    </contour>
    <contour>
      <point x="183" y="335" type="curve" smooth="yes"/>
      <point x="183" y="279"/>
      <point x="229" y="233"/>
      <point x="285" y="233" type="curve" smooth="yes"/>
      <point x="341" y="233"/>
      <point x="387" y="279"/>
      <point x="387" y="335" type="curve" smooth="yes"/>
      <point x="387" y="391"/>
      <point x="341" y="437"/>
      <point x="285" y="437" type="curve" smooth="yes"/>
      <point x="229" y="437"/>
      <point x="183" y="391"/>
    </contour>
  </outline>
</glyph>
<glyph name="yen" format="1">
  <advance width="556"/>
  <unicode hex="00A5"/>
  <outline>
    <contour>
      <point x="635" y="688" type="line"/>
      <point x="389" y="337" type="line"/>
      <point x="524" y="337" type="line"/>
      <point x="510" y="266" type="line"/>
      <point x="345" y="266" type="line"/>
      <point x="330" y="187" type="line"/>
      <point x="495" y="187" type="line"/>
      <point x="481" y="115" type="line"/>
      <point x="316" y="115" type="line"/>
      <point x="293" y="0" type="line"/>
      <point x="161" y="0" type="line"/>
      <point x="183" y="115" type="line"/>
      <point x="19" y="115" type="line"/>
      <point x="33" y="187" type="line"/>
      <point x="197" y="187" type="line"/>
      <point x="213" y="266" type="line"/>
      <point x="48" y="266" type="line"/>
      <point x="62" y="337" type="line"/>
      <point x="197" y="337" type="line"/>
      <point x="87" y="688" type="line"/>
      <point x="226" y="688" type="line"/>
      <point x="301" y="397" type="line"/>
      <point x="492" y="688" type="line"/>
    </contour>
  </outline>
</glyph>
<glyph name="section" format="1">
  <advance width="556"/>
  <unicode hex="00A7"/>
  <outline>
    <contour>
      <point x="351" y="697" type="curve" smooth="yes"/>
      <point x="483" y="697"/>
      <point x="556" y="650"/>
      <point x="561" y="563" type="curve"/>
      <point x="441" y="551" type="line"/>
      <point x="434" y="595"/>
      <point x="395" y="614"/>
      <point x="340" y="614" type="curve" smooth="yes"/>
      <point x="266" y="614"/>
      <point x="229" y="592"/>
      <point x="229" y="549" type="curve" smooth="yes"/>
      <point x="229" y="536"/>
      <point x="233" y="525"/>
      <point x="241" y="516" type="curve" smooth="yes"/>
      <point x="258" y="499"/>
      <point x="281" y="487"/>
      <point x="353" y="470" type="curve" smooth="yes"/>
      <point x="469" y="443"/>
      <point x="527" y="395"/>
      <point x="527" y="326" type="curve" smooth="yes"/>
      <point x="527" y="253"/>
      <point x="492" y="207"/>
      <point x="405" y="180" type="curve"/>
      <point x="446" y="157"/>
      <point x="470" y="118"/>
      <point x="470" y="69" type="curve" smooth="yes"/>
      <point x="470" y="-50"/>
      <point x="376" y="-112"/>
      <point x="208" y="-112" type="curve" smooth="yes"/>
      <point x="64" y="-112"/>
      <point x="-8" y="-68"/>
      <point x="-21" y="29" type="curve"/>
      <point x="99" y="47" type="line"/>
      <point x="107" y="-8"/>
      <point x="145" y="-29"/>
      <point x="214" y="-29" type="curve" smooth="yes"/>
      <point x="302" y="-29"/>
      <point x="350" y="-2"/>
      <point x="350" y="46" type="curve" smooth="yes"/>
      <point x="350" y="62"/>
      <point x="346" y="75"/>
      <point x="337" y="85" type="curve" smooth="yes"/>
      <point x="329" y="95"/>
      <point x="317" y="103"/>
      <point x="302" y="110" type="curve" smooth="yes"/>
      <point x="287" y="117"/>
      <point x="254" y="127"/>
      <point x="203" y="138" type="curve" smooth="yes"/>
      <point x="98" y="161"/>
      <point x="46" y="211"/>
      <point x="46" y="286" type="curve" smooth="yes"/>
      <point x="46" y="354"/>
      <point x="90" y="399"/>
      <point x="179" y="420" type="curve"/>
      <point x="132" y="445"/>
      <point x="108" y="486"/>
      <point x="108" y="537" type="curve" smooth="yes"/>
      <point x="108" y="645"/>
      <point x="187" y="697"/>
    </contour>
    <contour>
      <point x="279" y="381" type="curve"/>
      <point x="212" y="377"/>
      <point x="169" y="351"/>
      <point x="169" y="306" type="curve" smooth="yes"/>
      <point x="169" y="292"/>
      <point x="173" y="280"/>
      <point x="181" y="270" type="curve" smooth="yes"/>
      <point x="189" y="261"/>
      <point x="200" y="252"/>
      <point x="214" y="245" type="curve" smooth="yes"/>
      <point x="228" y="238"/>
      <point x="254" y="231"/>
      <point x="293" y="222" type="curve"/>
      <point x="365" y="227"/>
      <point x="405" y="252"/>
      <point x="405" y="292" type="curve" smooth="yes"/>
      <point x="405" y="337"/>
      <point x="376" y="358"/>
    </contour>
  </outline>
</glyph>
<glyph name="guillemotleft" format="1">
  <advance width="556"/>
  <unicode hex="00AB"/>
  <outline>
    <contour>
      <point x="466" y="68" type="line"/>
      <point x="353" y="68" type="line"/>
      <point x="259" y="244" type="line"/>
      <point x="266" y="279" type="line"/>
      <point x="423" y="458" type="line"/>
      <point x="540" y="458" type="line"/>
      <point x="537" y="438" type="line"/>
      <point x="376" y="259" type="line"/>
      <point x="468" y="87" type="line"/>
    </contour>
    <contour>
      <point x="242" y="68" type="line"/>
      <point x="129" y="68" type="line"/>
      <point x="35" y="244" type="line"/>
      <point x="42" y="279" type="line"/>
      <point x="200" y="458" type="line"/>
      <point x="316" y="458" type="line"/>
      <point x="313" y="438" type="line"/>
      <point x="153" y="259" type="line"/>
      <point x="245" y="87" type="line"/>
    </contour>
  </outline>
</glyph>
<glyph name="logicalnot" format="1">
  <advance width="584"/>
  <unicode hex="00AC"/>
  <outline>
    <contour>
      <point x="538" y="69" type="line"/>
      <point x="429" y="69" type="line"/>
      <point x="429" y="278" type="line"/>
      <point x="37" y="278" type="line"/>
      <point x="37" y="387" type="line"/>
      <point x="538" y="387" type="line"/>
    </contour>
  </outline>
</glyph>
<glyph name="registered" format="1">
  <advance width="737"/>
  <unicode hex="00AE"/>
  <outline>
    <contour>
      <point x="736" y="345" type="curve" smooth="yes"/>
      <point x="741" y="157"/>
      <point x="573" y="-14"/>
      <point x="383" y="-8" type="curve"/>
      <point x="190" y="-13"/>
      <point x="24" y="163"/>
      <point x="30" y="345" type="curve"/>
      <point x="25" y="533"/>
      <point x="196" y="704"/>
      <point x="383" y="698" type="curve" smooth="yes"/>
      <point x="446" y="698"/>
      <point x="505" y="682"/>
      <point x="560" y="650" type="curve" smooth="yes"/>
      <point x="671" y="587"/>
      <point x="736" y="472"/>
    </contour>
    <contour>
      <point x="682" y="345" type="curve"/>
      <point x="687" y="504"/>
      <point x="543" y="646"/>
      <point x="383" y="642" type="curve"/>
      <point x="233" y="646"/>
      <point x="82" y="511"/>
      <point x="86" y="345" type="curve"/>
      <point x="82" y="187"/>
      <point x="224" y="42"/>
      <point x="383" y="47" type="curve"/>
      <point x="543" y="42"/>
      <point x="687" y="187"/>
    </contour>
    <contour>
      <point x="563" y="145" type="line"/>
      <point x="465" y="145" type="line"/>
      <point x="378" y="298" type="line"/>
      <point x="321" y="298" type="line"/>
      <point x="321" y="145" type="line"/>
      <point x="234" y="145" type="line"/>
      <point x="234" y="543" type="line"/>
      <point x="396" y="543" type="line" smooth="yes"/>
      <point x="495" y="543"/>
      <point x="544" y="498"/>
      <point x="544" y="425" type="curve" smooth="yes"/>
      <point x="544" y="364"/>
      <point x="511" y="325"/>
      <point x="459" y="309" type="curve"/>
    </contour>
    <contour>
      <point x="457" y="424" type="curve" smooth="yes"/>
      <point x="457" y="461"/>
      <point x="431" y="481"/>
      <point x="386" y="481" type="curve" smooth="yes"/>
      <point x="321" y="481" type="line"/>
      <point x="321" y="361" type="line"/>
      <point x="392" y="361" type="line" smooth="yes"/>
      <point x="435" y="361"/>
      <point x="457" y="387"/>
    </contour>
  </outline>
</glyph>
<glyph name="macron" format="1">
  <advance width="552"/>
  <unicode hex="00AF"/>
  <outline>
    <contour>
      <point x="561" y="755" type="line"/>
      <point x="561" y="709" type="line"/>
      <point x="-8" y="709" type="line"/>
      <point x="-8" y="755" type="line"/>
    </contour>
  </outline>
</glyph>
<glyph name="uni00B2" format="1">
  <advance width="333"/>
  <unicode hex="00B2"/>
  <outline>
    <contour>
      <point x="310" y="340" type="line"/>
      <point x="35" y="340" type="line"/>
      <point x="46" y="398" type="line"/>
      <point x="73" y="439"/>
      <point x="110" y="470"/>
      <point x="182" y="510" type="curve" smooth="yes"/>
      <point x="242" y="543"/>
      <point x="265" y="568"/>
      <point x="265" y="601" type="curve" smooth="yes"/>
      <point x="265" y="620"/>
      <point x="249" y="634"/>
      <point x="226" y="634" type="curve" smooth="yes"/>
      <point x="197" y="634"/>
      <point x="179" y="618"/>
      <point x="170" y="587" type="curve"/>
      <point x="91" y="604" type="line"/>
      <point x="111" y="668"/>
      <point x="154" y="696"/>
      <point x="234" y="696" type="curve" smooth="yes"/>
      <point x="309" y="696"/>
      <point x="354" y="661"/>
      <point x="354" y="605" type="curve" smooth="yes"/>
      <point x="354" y="490"/>
      <point x="196" y="466"/>
      <point x="152" y="410" type="curve"/>
      <point x="322" y="410" type="line"/>
    </contour>
  </outline>
</glyph>
<glyph name="uni00B3" format="1">
  <advance width="333"/>
  <unicode hex="00B3"/>
  <outline>
    <contour>
      <point x="242" y="447" type="curve" smooth="yes"/>
      <point x="242" y="474"/>
      <point x="224" y="488"/>
      <point x="188" y="488" type="curve" smooth="yes"/>
      <point x="155" y="488" type="line"/>
      <point x="167" y="550" type="line"/>
      <point x="196" y="550" type="line" smooth="yes"/>
      <point x="236" y="550"/>
      <point x="263" y="567"/>
      <point x="263" y="596" type="curve" smooth="yes"/>
      <point x="263" y="623"/>
      <point x="250" y="637"/>
      <point x="223" y="637" type="curve" smooth="yes"/>
      <point x="194" y="637"/>
      <point x="175" y="622"/>
      <point x="167" y="591" type="curve"/>
      <point x="87" y="603" type="line"/>
      <point x="104" y="666"/>
      <point x="147" y="696"/>
      <point x="232" y="696" type="curve" smooth="yes"/>
      <point x="309" y="696"/>
      <point x="354" y="668"/>
      <point x="354" y="609" type="curve" smooth="yes"/>
      <point x="354" y="562"/>
      <point x="318" y="525"/>
      <point x="265" y="521" type="curve"/>
      <point x="265" y="520" type="line"/>
      <point x="306" y="512"/>
      <point x="334" y="487"/>
      <point x="334" y="446" type="curve" smooth="yes"/>
      <point x="334" y="379"/>
      <point x="275" y="336"/>
      <point x="180" y="336" type="curve" smooth="yes"/>
      <point x="100" y="336"/>
      <point x="56" y="368"/>
      <point x="47" y="432" type="curve"/>
      <point x="135" y="444" type="line"/>
      <point x="141" y="412"/>
      <point x="159" y="396"/>
      <point x="188" y="396" type="curve" smooth="yes"/>
      <point x="217" y="396"/>
      <point x="242" y="414"/>
    </contour>
  </outline>
</glyph>
<glyph name="mu" format="1">
  <advance width="576"/>
  <unicode hex="00B5"/>
  <outline>
    <contour>
      <point x="427" y="-10" type="curve" smooth="yes"/>
      <point x="370" y="-10"/>
      <point x="347" y="9"/>
      <point x="347" y="60" type="curve" smooth="yes"/>
      <point x="347" y="70" type="line"/>
      <point x="348" y="80" type="line"/>
      <point x="346" y="80" type="line"/>
      <point x="318" y="24"/>
      <point x="286" y="-10"/>
      <point x="234" y="-10" type="curve" smooth="yes"/>
      <point x="195" y="-10"/>
      <point x="169" y="7"/>
      <point x="160" y="34" type="curve"/>
      <point x="157" y="34" type="line"/>
      <point x="149" y="-22" type="line"/>
      <point x="114" y="-208" type="line"/>
      <point x="-23" y="-208" type="line"/>
      <point x="119" y="528" type="line"/>
      <point x="256" y="528" type="line"/>
      <point x="199" y="233" type="line" smooth="yes"/>
      <point x="195" y="214"/>
      <point x="193" y="194"/>
      <point x="192" y="175" type="curve" smooth="yes"/>
      <point x="192" y="121"/>
      <point x="212" y="94"/>
      <point x="253" y="94" type="curve" smooth="yes"/>
      <point x="306" y="94"/>
      <point x="348" y="147"/>
      <point x="364" y="246" type="curve" smooth="yes"/>
      <point x="419" y="528" type="line"/>
      <point x="556" y="528" type="line"/>
      <point x="484" y="159" type="line" smooth="yes"/>
      <point x="481" y="144"/>
      <point x="480" y="134"/>
      <point x="480" y="127" type="curve" smooth="yes"/>
      <point x="480" y="104"/>
      <point x="488" y="93"/>
      <point x="504" y="93" type="curve" smooth="yes"/>
      <point x="512" y="93"/>
      <point x="520" y="94"/>
      <point x="527" y="97" type="curve"/>
      <point x="519" y="2" type="line"/>
      <point x="484" y="-6"/>
      <point x="454" y="-10"/>
    </contour>
  </outline>
</glyph>
<glyph name="periodcentered" format="1">
  <advance width="333"/>
  <unicode hex="00B7"/>
  <outline>
    <contour>
      <point x="233" y="259" type="line"/>
      <point x="92" y="259" type="line"/>
      <point x="121" y="408" type="line"/>
      <point x="262" y="408" type="line"/>
    </contour>
  </outline>
</glyph>
<glyph name="cedilla" format="1">
  <advance width="333"/>
  <unicode hex="00B8"/>
  <outline>
    <contour>
      <point x="95" y="-208" type="curve" smooth="yes"/>
      <point x="78" y="-208"/>
      <point x="61" y="-207"/>
      <point x="43" y="-205" type="curve"/>
      <point x="57" y="-147" type="line"/>
      <point x="71" y="-150"/>
      <point x="84" y="-151"/>
      <point x="97" y="-151" type="curve" smooth="yes"/>
      <point x="150" y="-151"/>
      <point x="173" y="-141"/>
      <point x="173" y="-113" type="curve" smooth="yes"/>
      <point x="173" y="-93"/>
      <point x="155" y="-83"/>
      <point x="119" y="-83" type="curve" smooth="yes"/>
      <point x="107" y="-83" type="line"/>
      <point x="93" y="-83" type="line"/>
      <point x="141" y="0" type="line"/>
      <point x="210" y="0" type="line"/>
      <point x="187" y="-41" type="line"/>
      <point x="232" y="-41"/>
      <point x="263" y="-62"/>
      <point x="263" y="-105" type="curve" smooth="yes"/>
      <point x="263" y="-168"/>
      <point x="210" y="-208"/>
    </contour>
  </outline>
</glyph>
<glyph name="uni00B9" format="1">
  <advance width="333"/>
  <unicode hex="00B9"/>
  <outline>
    <contour>
      <point x="310" y="338" type="line"/>
      <point x="48" y="338" type="line"/>
      <point x="59" y="397" type="line"/>
      <point x="149" y="397" type="line"/>
      <point x="193" y="626" type="line"/>
      <point x="99" y="573" type="line"/>
      <point x="110" y="633" type="line"/>
      <point x="209" y="690" type="line"/>
      <point x="294" y="690" type="line"/>
      <point x="238" y="397" type="line"/>
      <point x="321" y="397" type="line"/>
    </contour>
  </outline>
</glyph>
<glyph name="ordmasculine" format="1">
  <advance width="365"/>
  <unicode hex="00BA"/>
  <outline>
    <contour>
      <point x="404" y="558" type="curve" smooth="yes"/>
      <point x="404" y="491"/>
      <point x="385" y="438"/>
      <point x="347" y="397" type="curve" smooth="yes"/>
      <point x="310" y="356"/>
      <point x="261" y="336"/>
      <point x="200" y="336" type="curve" smooth="yes"/>
      <point x="107" y="336"/>
      <point x="50" y="391"/>
      <point x="50" y="479" type="curve" smooth="yes"/>
      <point x="50" y="543"/>
      <point x="68" y="594"/>
      <point x="105" y="633" type="curve" smooth="yes"/>
      <point x="142" y="672"/>
      <point x="191" y="692"/>
      <point x="251" y="692" type="curve" smooth="yes"/>
      <point x="351" y="692"/>
      <point x="404" y="642"/>
    </contour>
    <contour>
      <point x="305" y="551" type="curve" smooth="yes"/>
      <point x="305" y="598"/>
      <point x="284" y="625"/>
      <point x="245" y="625" type="curve" smooth="yes"/>
      <point x="210" y="625"/>
      <point x="190" y="612"/>
      <point x="174" y="587" type="curve" smooth="yes"/>
      <point x="158" y="562"/>
      <point x="149" y="515"/>
      <point x="149" y="482" type="curve" smooth="yes"/>
      <point x="149" y="430"/>
      <point x="170" y="403"/>
      <point x="209" y="403" type="curve" smooth="yes"/>
      <point x="242" y="403"/>
      <point x="256" y="411"/>
      <point x="269" y="427" type="curve" smooth="yes"/>
      <point x="288" y="450"/>
      <point x="301" y="481"/>
    </contour>
  </outline>
</glyph>
<glyph name="onehalf" format="1">
  <advance width="834"/>
  <unicode hex="00BD"/>
  <outline>
    <contour>
      <point x="310" y="338" type="line"/>
      <point x="48" y="338" type="line"/>
      <point x="59" y="397" type="line"/>
      <point x="149" y="397" type="line"/>
      <point x="193" y="626" type="line"/>
      <point x="99" y="573" type="line"/>
      <point x="110" y="633" type="line"/>
      <point x="209" y="690" type="line"/>
      <point x="294" y="690" type="line"/>
      <point x="238" y="397" type="line"/>
      <point x="321" y="397" type="line"/>
    </contour>
    <contour>
      <point x="741" y="688" type="line"/>
      <point x="209" y="0" type="line"/>
      <point x="113" y="0" type="line"/>
      <point x="644" y="688" type="line"/>
    </contour>
    <contour>
      <point x="739" y="0" type="line"/>
      <point x="463" y="0" type="line"/>
      <point x="475" y="59" type="line"/>
      <point x="502" y="100"/>
      <point x="539" y="131"/>
      <point x="611" y="171" type="curve" smooth="yes"/>
      <point x="671" y="203"/>
      <point x="693" y="229"/>
      <point x="693" y="262" type="curve" smooth="yes"/>
      <point x="693" y="281"/>
      <point x="678" y="295"/>
      <point x="655" y="295" type="curve" smooth="yes"/>
      <point x="626" y="295"/>
      <point x="608" y="279"/>
      <point x="599" y="248" type="curve"/>
      <point x="520" y="264" type="line"/>
      <point x="540" y="329"/>
      <point x="583" y="357"/>
      <point x="663" y="357" type="curve" smooth="yes"/>
      <point x="738" y="357"/>
      <point x="783" y="322"/>
      <point x="783" y="266" type="curve" smooth="yes"/>
      <point x="783" y="147"/>
      <point x="621" y="131"/>
      <point x="581" y="70" type="curve"/>
      <point x="751" y="70" type="line"/>
    </contour>
  </outline>
</glyph>
<glyph name="threequarters" format="1">
  <advance width="834"/>
  <unicode hex="00BE"/>
  <outline>
    <contour>
      <point x="249" y="447" type="curve" smooth="yes"/>
      <point x="249" y="474"/>
      <point x="231" y="488"/>
      <point x="195" y="488" type="curve" smooth="yes"/>
      <point x="162" y="488" type="line"/>
      <point x="173" y="550" type="line"/>
      <point x="203" y="550" type="line" smooth="yes"/>
      <point x="243" y="550"/>
      <point x="270" y="567"/>
      <point x="270" y="596" type="curve" smooth="yes"/>
      <point x="270" y="623"/>
      <point x="256" y="637"/>
      <point x="229" y="637" type="curve" smooth="yes"/>
      <point x="200" y="637"/>
      <point x="182" y="622"/>
      <point x="173" y="591" type="curve"/>
      <point x="94" y="603" type="line"/>
      <point x="110" y="666"/>
      <point x="154" y="696"/>
      <point x="239" y="696" type="curve" smooth="yes"/>
      <point x="316" y="696"/>
      <point x="361" y="668"/>
      <point x="361" y="609" type="curve" smooth="yes"/>
      <point x="361" y="562"/>
      <point x="325" y="525"/>
      <point x="272" y="521" type="curve"/>
      <point x="271" y="520" type="line"/>
      <point x="314" y="512"/>
      <point x="341" y="487"/>
      <point x="341" y="446" type="curve" smooth="yes"/>
      <point x="341" y="379"/>
      <point x="282" y="336"/>
      <point x="187" y="336" type="curve" smooth="yes"/>
      <point x="107" y="336"/>
      <point x="63" y="368"/>
      <point x="54" y="432" type="curve"/>
      <point x="142" y="444" type="line"/>
      <point x="147" y="412"/>
      <point x="165" y="396"/>
      <point x="195" y="396" type="curve" smooth="yes"/>
      <point x="224" y="396"/>
      <point x="249" y="414"/>
    </contour>
    <contour>
      <point x="741" y="688" type="line"/>
      <point x="209" y="0" type="line"/>
      <point x="113" y="0" type="line"/>
      <point x="644" y="688" type="line"/>
    </contour>
    <contour>
      <point x="744" y="69" type="line"/>
      <point x="693" y="69" type="line"/>
      <point x="680" y="0" type="line"/>
      <point x="591" y="0" type="line"/>
      <point x="604" y="69" type="line"/>
      <point x="435" y="69" type="line"/>
      <point x="448" y="141" type="line"/>
      <point x="641" y="352" type="line"/>
      <point x="748" y="352" type="line"/>
      <point x="707" y="139" type="line"/>
      <point x="757" y="139" type="line"/>
    </contour>
    <contour>
      <point x="606" y="232" type="curve" smooth="yes"/>
      <point x="519" y="139" type="line"/>
      <point x="618" y="139" type="line"/>
      <point x="648" y="285" type="line"/>
      <point x="640" y="274" type="line" smooth="yes"/>
      <point x="628" y="257"/>
      <point x="617" y="243"/>
    </contour>
  </outline>
</glyph>
<glyph name="Ccedilla" format="1">
  <advance width="722"/>
  <unicode hex="00C7"/>
  <outline>
    <contour>
      <point x="187" y="280" type="curve" smooth="yes"/>
      <point x="187" y="167"/>
      <point x="244" y="103"/>
      <point x="348" y="103" type="curve" smooth="yes"/>
      <point x="435" y="103"/>
      <point x="503" y="145"/>
      <point x="552" y="229" type="curve"/>
      <point x="663" y="172" type="line"/>
      <point x="594" y="51"/>
      <point x="486" y="-10"/>
      <point x="338" y="-10" type="curve" smooth="yes"/>
      <point x="149" y="-10"/>
      <point x="40" y="104"/>
      <point x="40" y="278" type="curve" smooth="yes"/>
      <point x="36" y="525"/>
      <point x="210" y="703"/>
      <point x="443" y="698" type="curve" smooth="yes"/>
      <point x="594" y="698"/>
      <point x="692" y="634"/>
      <point x="725" y="507" type="curve"/>
      <point x="591" y="472" type="line"/>
      <point x="572" y="541"/>
      <point x="516" y="585"/>
      <point x="439" y="585" type="curve" smooth="yes"/>
      <point x="360" y="585"/>
      <point x="299" y="558"/>
      <point x="254" y="503" type="curve" smooth="yes"/>
      <point x="209" y="448"/>
      <point x="187" y="374"/>
    </contour>
    <contour>
      <point x="265" y="-208" type="curve" smooth="yes"/>
      <point x="249" y="-208"/>
      <point x="232" y="-207"/>
      <point x="213" y="-205" type="curve"/>
      <point x="228" y="-147" type="line"/>
      <point x="241" y="-150"/>
      <point x="255" y="-151"/>
      <point x="268" y="-151" type="curve" smooth="yes"/>
      <point x="320" y="-151"/>
      <point x="343" y="-141"/>
      <point x="343" y="-113" type="curve" smooth="yes"/>
      <point x="343" y="-93"/>
      <point x="325" y="-83"/>
      <point x="290" y="-83" type="curve" smooth="yes"/>
      <point x="277" y="-83" type="line"/>
      <point x="264" y="-83" type="line"/>
      <point x="312" y="0" type="line"/>
      <point x="380" y="0" type="line"/>
      <point x="357" y="-41" type="line"/>
      <point x="402" y="-41"/>
      <point x="434" y="-62"/>
      <point x="434" y="-105" type="curve" smooth="yes"/>
      <point x="434" y="-168"/>
      <point x="381" y="-208"/>
    </contour>
  </outline>
</glyph>
<glyph name="Iacute" format="1">
  <advance width="278"/>
  <unicode hex="00CD"/>
  <outline>
    <contour>
      <point x="161" y="0" type="line"/>
      <point x="18" y="0" type="line"/>
      <point x="151" y="688" type="line"/>
      <point x="295" y="688" type="line"/>
    </contour>
    <contour>
      <point x="232" y="747" type="line"/>
      <point x="159" y="747" type="line"/>
      <point x="163" y="762" type="line"/>
      <point x="294" y="883" type="line"/>
      <point x="425" y="883" type="line"/>
      <point x="420" y="862" type="line"/>
    </contour>
  </outline>
</glyph>
<glyph name="Ntilde" format="1">
  <advance width="722"/>
  <unicode hex="00D1"/>
  <outline>
    <contour>
      <point x="605" y="0" type="line"/>
      <point x="432" y="0" type="line"/>
      <point x="249" y="552" type="line"/>
      <point x="242" y="499"/>
      <point x="235" y="461"/>
      <point x="230" y="436" type="curve" smooth="yes"/>
      <point x="146" y="0" type="line"/>
      <point x="18" y="0" type="line"/>
      <point x="151" y="688" type="line"/>
      <point x="322" y="688" type="line"/>
      <point x="506" y="131" type="line"/>
      <point x="512" y="171" type="line"/>
      <point x="526" y="256" type="line"/>
      <point x="611" y="688" type="line"/>
      <point x="739" y="688" type="line"/>
    </contour>
    <contour>
      <point x="537" y="747" type="curve" smooth="yes"/>
      <point x="481" y="747"/>
      <point x="429" y="807"/>
      <point x="392" y="807" type="curve" smooth="yes"/>
      <point x="364" y="807"/>
      <point x="348" y="794"/>
      <point x="332" y="747" type="curve"/>
      <point x="266" y="747" type="line"/>
      <point x="291" y="850"/>
      <point x="336" y="890"/>
      <point x="403" y="890" type="curve" smooth="yes"/>
      <point x="461" y="890"/>
      <point x="510" y="830"/>
      <point x="548" y="830" type="curve" smooth="yes"/>
      <point x="576" y="830"/>
      <point x="592" y="846"/>
      <point x="608" y="890" type="curve"/>
      <point x="674" y="890" type="line"/>
      <point x="649" y="787"/>
      <point x="604" y="747"/>
    </contour>
  </outline>
</glyph>
<glyph name="Oslash" format="1">
  <advance width="778"/>
  <unicode hex="00D8"/>
  <outline>
    <contour>
      <point x="453" y="698" type="curve" smooth="yes"/>
      <point x="530" y="698"/>
      <point x="595" y="681"/>
      <point x="646" y="647" type="curve"/>
      <point x="710" y="716" type="line"/>
      <point x="810" y="716" type="line"/>
      <point x="701" y="599" type="line"/>
      <point x="741" y="551"/>
      <point x="761" y="490"/>
      <point x="761" y="416" type="curve" smooth="yes"/>
      <point x="761" y="335"/>
      <point x="744" y="262"/>
      <point x="709" y="195" type="curve" smooth="yes"/>
      <point x="641" y="63"/>
      <point x="514" y="-10"/>
      <point x="355" y="-10" type="curve" smooth="yes"/>
      <point x="283" y="-10"/>
      <point x="223" y="5"/>
      <point x="174" y="35" type="curve"/>
      <point x="118" y="-26" type="line"/>
      <point x="17" y="-26" type="line"/>
      <point x="117" y="82" type="line"/>
      <point x="72" y="133"/>
      <point x="49" y="199"/>
      <point x="49" y="280" type="curve" smooth="yes"/>
      <point x="49" y="357"/>
      <point x="66" y="428"/>
      <point x="100" y="494" type="curve" smooth="yes"/>
      <point x="169" y="626"/>
      <point x="294" y="698"/>
    </contour>
    <contour>
      <point x="446" y="584" type="curve" smooth="yes"/>
      <point x="393" y="584"/>
      <point x="348" y="572"/>
      <point x="311" y="547" type="curve" smooth="yes"/>
      <point x="274" y="523"/>
      <point x="246" y="486"/>
      <point x="225" y="437" type="curve" smooth="yes"/>
      <point x="205" y="388"/>
      <point x="195" y="337"/>
      <point x="195" y="284" type="curve" smooth="yes"/>
      <point x="195" y="245"/>
      <point x="201" y="212"/>
      <point x="214" y="185" type="curve"/>
      <point x="556" y="550" type="line"/>
      <point x="527" y="573"/>
      <point x="491" y="584"/>
    </contour>
    <contour>
      <point x="613" y="404" type="curve" smooth="yes"/>
      <point x="613" y="437"/>
      <point x="608" y="465"/>
      <point x="599" y="489" type="curve"/>
      <point x="263" y="129" type="line"/>
      <point x="288" y="112"/>
      <point x="321" y="104"/>
      <point x="362" y="104" type="curve" smooth="yes"/>
      <point x="414" y="104"/>
      <point x="459" y="116"/>
      <point x="496" y="140" type="curve" smooth="yes"/>
      <point x="533" y="165"/>
      <point x="562" y="201"/>
      <point x="582" y="249" type="curve" smooth="yes"/>
      <point x="603" y="297"/>
      <point x="613" y="349"/>
    </contour>
  </outline>
</glyph>
<glyph name="Uacute" format="1">
  <advance width="722"/>
  <unicode hex="00DA"/>
  <outline>
    <contour>
      <point x="336" y="103" type="curve" smooth="yes"/>
      <point x="444" y="103"/>
      <point x="494" y="148"/>
      <point x="517" y="264" type="curve" smooth="yes"/>
      <point x="599" y="688" type="line"/>
      <point x="743" y="688" type="line"/>
      <point x="659" y="259" type="line" smooth="yes"/>
      <point x="623" y="76"/>
      <point x="519" y="-10"/>
      <point x="328" y="-10" type="curve" smooth="yes"/>
      <point x="156" y="-10"/>
      <point x="58" y="70"/>
      <point x="58" y="210" type="curve" smooth="yes"/>
      <point x="58" y="239"/>
      <point x="64" y="286"/>
      <point x="69" y="310" type="curve" smooth="yes"/>
      <point x="142" y="688" type="line"/>
      <point x="286" y="688" type="line"/>
      <point x="211" y="292" type="line" smooth="yes"/>
      <point x="205" y="264"/>
      <point x="202" y="236"/>
      <point x="202" y="208" type="curve" smooth="yes"/>
      <point x="202" y="141"/>
      <point x="252" y="103"/>
    </contour>
    <contour>
      <point x="458" y="747" type="line"/>
      <point x="385" y="747" type="line"/>
      <point x="389" y="762" type="line"/>
      <point x="521" y="883" type="line"/>
      <point x="651" y="883" type="line"/>
      <point x="646" y="862" type="line"/>
    </contour>
  </outline>
</glyph>
<glyph name="ccedilla" format="1">
  <advance width="556"/>
  <unicode hex="00E7"/>
  <outline>
    <contour>
      <point x="262" y="84" type="curve" smooth="yes"/>
      <point x="315" y="84"/>
      <point x="350" y="119"/>
      <point x="371" y="186" type="curve"/>
      <point x="503" y="162" type="line"/>
      <point x="468" y="47"/>
      <point x="385" y="-10"/>
      <point x="254" y="-10" type="curve" smooth="yes"/>
      <point x="110" y="-10"/>
      <point x="31" y="67"/>
      <point x="31" y="198" type="curve" smooth="yes"/>
      <point x="31" y="261"/>
      <point x="44" y="321"/>
      <point x="69" y="376" type="curve" smooth="yes"/>
      <point x="121" y="488"/>
      <point x="204" y="538"/>
      <point x="332" y="538" type="curve" smooth="yes"/>
      <point x="455" y="538"/>
      <point x="533" y="473"/>
      <point x="542" y="362" type="curve"/>
      <point x="403" y="351" type="line"/>
      <point x="399" y="413"/>
      <point x="372" y="444"/>
      <point x="321" y="444" type="curve" smooth="yes"/>
      <point x="252" y="444"/>
      <point x="218" y="402"/>
      <point x="186" y="281" type="curve" smooth="yes"/>
      <point x="179" y="244"/>
      <point x="175" y="216"/>
      <point x="175" y="199" type="curve" smooth="yes"/>
      <point x="175" y="122"/>
      <point x="204" y="84"/>
    </contour>
    <contour>
      <point x="188" y="-208" type="curve" smooth="yes"/>
      <point x="172" y="-208"/>
      <point x="155" y="-207"/>
      <point x="137" y="-205" type="curve"/>
      <point x="151" y="-147" type="line"/>
      <point x="164" y="-150"/>
      <point x="178" y="-151"/>
      <point x="191" y="-151" type="curve" smooth="yes"/>
      <point x="243" y="-151"/>
      <point x="267" y="-141"/>
      <point x="267" y="-113" type="curve" smooth="yes"/>
      <point x="267" y="-93"/>
      <point x="249" y="-83"/>
      <point x="213" y="-83" type="curve" smooth="yes"/>
      <point x="201" y="-83" type="line"/>
      <point x="187" y="-83" type="line"/>
      <point x="235" y="0" type="line"/>
      <point x="304" y="0" type="line"/>
      <point x="280" y="-41" type="line"/>
      <point x="325" y="-41"/>
      <point x="357" y="-62"/>
      <point x="357" y="-105" type="curve" smooth="yes"/>
      <point x="357" y="-168"/>
      <point x="304" y="-208"/>
    </contour>
  </outline>
</glyph>
<glyph name="iacute" format="1">
  <advance width="278"/>
  <unicode hex="00ED"/>
  <outline>
    <contour>
      <point x="154" y="0" type="line"/>
      <point x="17" y="0" type="line"/>
      <point x="120" y="528" type="line"/>
      <point x="257" y="528" type="line"/>
    </contour>
    <contour>
      <point x="197" y="578" type="line"/>
      <point x="126" y="578" type="line"/>
      <point x="129" y="593" type="line"/>
      <point x="250" y="733" type="line"/>
      <point x="385" y="733" type="line"/>
      <point x="381" y="712" type="line"/>
    </contour>
  </outline>
</glyph>
<glyph name="icircumflex" format="1">
  <advance width="278"/>
  <unicode hex="00EE"/>
  <outline>
    <contour>
      <point x="154" y="0" type="line"/>
      <point x="17" y="0" type="line"/>
      <point x="120" y="528" type="line"/>
      <point x="257" y="528" type="line"/>
    </contour>
    <contour>
      <point x="284" y="747" type="line"/>
      <point x="375" y="591" type="line"/>
      <point x="373" y="578" type="line"/>
      <point x="300" y="578" type="line"/>
      <point x="219" y="671" type="line"/>
      <point x="217" y="671" type="line"/>
      <point x="96" y="578" type="line"/>
      <point x="13" y="578" type="line"/>
      <point x="16" y="591" type="line"/>
      <point x="172" y="747" type="line"/>
    </contour>
  </outline>
</glyph>
<glyph name="ocircumflex" format="1">
  <advance width="611"/>
  <unicode hex="00F4"/>
  <outline>
    <contour>
      <point x="579" y="333" type="curve" smooth="yes"/>
      <point x="582" y="131"/>
      <point x="445" y="-13"/>
      <point x="261" y="-10" type="curve" smooth="yes"/>
      <point x="120" y="-10"/>
      <point x="31" y="72"/>
      <point x="31" y="205" type="curve" smooth="yes"/>
      <point x="27" y="400"/>
      <point x="159" y="540"/>
      <point x="344" y="538" type="curve" smooth="yes"/>
      <point x="496" y="538"/>
      <point x="579" y="464"/>
    </contour>
    <contour>
      <point x="435" y="323" type="curve"/>
      <point x="435" y="404"/>
      <point x="401" y="444"/>
      <point x="333" y="444" type="curve" smooth="yes"/>
      <point x="296" y="444"/>
      <point x="267" y="434"/>
      <point x="245" y="414" type="curve" smooth="yes"/>
      <point x="223" y="395"/>
      <point x="206" y="365"/>
      <point x="193" y="325" type="curve" smooth="yes"/>
      <point x="181" y="286"/>
      <point x="175" y="247"/>
      <point x="175" y="210" type="curve" smooth="yes"/>
      <point x="175" y="126"/>
      <point x="209" y="84"/>
      <point x="276" y="84" type="curve" smooth="yes"/>
      <point x="384" y="80"/>
      <point x="425" y="177"/>
    </contour>
    <contour>
      <point x="446" y="747" type="line"/>
      <point x="538" y="591" type="line"/>
      <point x="536" y="578" type="line"/>
      <point x="462" y="578" type="line"/>
      <point x="381" y="671" type="line"/>
      <point x="379" y="671" type="line"/>
      <point x="258" y="578" type="line"/>
      <point x="176" y="578" type="line"/>
      <point x="178" y="591" type="line"/>
      <point x="334" y="747" type="line"/>
    </contour>
  </outline>
</glyph>
<glyph name="Abreve" format="1">
  <advance width="722"/>
  <unicode hex="0102"/>
  <outline>
    <contour>
      <point x="650" y="0" type="line"/>
      <point x="507" y="0" type="line"/>
      <point x="480" y="176" type="line"/>
      <point x="218" y="176" type="line"/>
      <point x="123" y="0" type="line"/>
      <point x="-21" y="0" type="line"/>
      <point x="364" y="688" type="line"/>
      <point x="534" y="688" type="line"/>
    </contour>
    <contour>
      <point x="428" y="582" type="curve"/>
      <point x="421" y="561"/>
      <point x="405" y="527"/>
      <point x="380" y="479" type="curve" smooth="yes"/>
      <point x="276" y="284" type="line"/>
      <point x="469" y="284" type="line"/>
      <point x="437" y="505" type="line" smooth="yes"/>
      <point x="431" y="549"/>
      <point x="428" y="575"/>
    </contour>
    <contour>
      <point x="451" y="742" type="curve" smooth="yes"/>
      <point x="359" y="742"/>
      <point x="298" y="798"/>
      <point x="298" y="890" type="curve"/>
      <point x="379" y="890" type="line"/>
      <point x="379" y="842"/>
      <point x="410" y="810"/>
      <point x="462" y="810" type="curve" smooth="yes"/>
      <point x="513" y="810"/>
      <point x="548" y="833"/>
      <point x="565" y="890" type="curve"/>
      <point x="645" y="890" type="line"/>
      <point x="618" y="790"/>
      <point x="556" y="742"/>
    </contour>
  </outline>
</glyph>
<glyph name="Aogonek" format="1">
  <advance width="722"/>
  <unicode hex="0104"/>
  <outline>
    <contour>
      <point x="650" y="0" type="line"/>
      <point x="507" y="0" type="line"/>
      <point x="480" y="176" type="line"/>
      <point x="218" y="176" type="line"/>
      <point x="123" y="0" type="line"/>
      <point x="-21" y="0" type="line"/>
      <point x="364" y="688" type="line"/>
      <point x="534" y="688" type="line"/>
    </contour>
    <contour>
      <point x="428" y="582" type="curve"/>
      <point x="421" y="561"/>
      <point x="405" y="527"/>
      <point x="380" y="479" type="curve" smooth="yes"/>
      <point x="276" y="284" type="line"/>
      <point x="469" y="284" type="line"/>
      <point x="437" y="505" type="line" smooth="yes"/>
      <point x="431" y="549"/>
      <point x="428" y="575"/>
    </contour>
    <contour>
      <point x="535" y="-202" type="curve" smooth="yes"/>
      <point x="476" y="-202"/>
      <point x="437" y="-168"/>
      <point x="437" y="-115" type="curve" smooth="yes"/>
      <point x="437" y="-67"/>
      <point x="466" y="-22"/>
      <point x="525" y="10" type="curve"/>
      <point x="605" y="10" type="line"/>
      <point x="565" y="-14"/>
      <point x="534" y="-62"/>
      <point x="534" y="-98" type="curve" smooth="yes"/>
      <point x="534" y="-122"/>
      <point x="549" y="-135"/>
      <point x="572" y="-135" type="curve" smooth="yes"/>
      <point x="588" y="-135"/>
      <point x="605" y="-131"/>
      <point x="622" y="-124" type="curve"/>
      <point x="613" y="-186" type="line"/>
      <point x="587" y="-197"/>
      <point x="561" y="-202"/>
    </contour>
  </outline>
</glyph>
<glyph name="aogonek" format="1">
  <advance width="556"/>
  <unicode hex="0105"/>
  <outline>
    <contour>
      <point x="436" y="-5" type="curve" smooth="yes"/>
      <point x="371" y="-5"/>
      <point x="334" y="25"/>
      <point x="334" y="70" type="curve" smooth="yes"/>
      <point x="334" y="82"/>
      <point x="335" y="92"/>
      <point x="336" y="101" type="curve"/>
      <point x="333" y="101" type="line"/>
      <point x="278" y="17"/>
      <point x="231" y="-10"/>
      <point x="155" y="-10" type="curve" smooth="yes"/>
      <point x="63" y="-10"/>
      <point x="5" y="51"/>
      <point x="5" y="136" type="curve" smooth="yes"/>
      <point x="5" y="256"/>
      <point x="82" y="317"/>
      <point x="269" y="321" type="curve" smooth="yes"/>
      <point x="362" y="322" type="line"/>
      <point x="369" y="353"/>
      <point x="373" y="375"/>
      <point x="373" y="386" type="curve" smooth="yes"/>
      <point x="373" y="428"/>
      <point x="352" y="449"/>
      <point x="311" y="449" type="curve" smooth="yes"/>
      <point x="250" y="449"/>
      <point x="223" y="424"/>
      <point x="211" y="379" type="curve"/>
      <point x="83" y="395" type="line"/>
      <point x="106" y="488"/>
      <point x="184" y="538"/>
      <point x="313" y="538" type="curve" smooth="yes"/>
      <point x="448" y="538"/>
      <point x="508" y="491"/>
      <point x="508" y="394" type="curve" smooth="yes"/>
      <point x="508" y="382"/>
      <point x="504" y="356"/>
      <point x="497" y="317" type="curve" smooth="yes"/>
      <point x="462" y="145" type="line" smooth="yes"/>
      <point x="459" y="130"/>
      <point x="458" y="119"/>
      <point x="458" y="110" type="curve" smooth="yes"/>
      <point x="458" y="79"/>
      <point x="487" y="78"/>
      <point x="497" y="78" type="curve" smooth="yes"/>
      <point x="506" y="78"/>
      <point x="516" y="79"/>
      <point x="527" y="82" type="curve"/>
      <point x="520" y="6" type="line"/>
      <point x="493" y="-5"/>
      <point x="465" y="-5"/>
    </contour>
    <contour>
      <point x="336" y="201" type="curve" smooth="yes"/>
      <point x="347" y="246" type="line"/>
      <point x="268" y="246" type="line" smooth="yes"/>
      <point x="192" y="245"/>
      <point x="145" y="214"/>
      <point x="145" y="159" type="curve" smooth="yes"/>
      <point x="145" y="114"/>
      <point x="173" y="86"/>
      <point x="216" y="86" type="curve" smooth="yes"/>
      <point x="271" y="86"/>
      <point x="319" y="132"/>
    </contour>
    <contour>
      <point x="395" y="-208" type="curve" smooth="yes"/>
      <point x="336" y="-208"/>
      <point x="297" y="-175"/>
      <point x="297" y="-120" type="curve" smooth="yes"/>
      <point x="297" y="-72"/>
      <point x="326" y="-28"/>
      <point x="385" y="5" type="curve"/>
      <point x="465" y="5" type="line"/>
      <point x="425" y="-20"/>
      <point x="394" y="-67"/>
      <point x="394" y="-103" type="curve" smooth="yes"/>
      <point x="394" y="-128"/>
      <point x="409" y="-140"/>
      <point x="432" y="-140" type="curve" smooth="yes"/>
      <point x="448" y="-140"/>
      <point x="465" y="-136"/>
      <point x="482" y="-129" type="curve"/>
      <point x="473" y="-191" type="line"/>
      <point x="447" y="-202"/>
      <point x="421" y="-208"/>
    </contour>
  </outline>
</glyph>
<glyph name="dcroat" format="1">
  <advance width="611"/>
  <unicode hex="0111"/>
  <outline>
    <contour>
      <point x="368" y="78" type="curve"/>
      <point x="366" y="78" type="line"/>
      <point x="319" y="18"/>
      <point x="270" y="-10"/>
      <point x="191" y="-10" type="curve" smooth="yes"/>
      <point x="91" y="-10"/>
      <point x="28" y="58"/>
      <point x="28" y="166" type="curve" smooth="yes"/>
      <point x="28" y="225"/>
      <point x="38" y="284"/>
      <point x="59" y="341" type="curve" smooth="yes"/>
      <point x="100" y="456"/>
      <point x="176" y="518"/>
      <point x="279" y="518" type="curve" smooth="yes"/>
      <point x="362" y="518"/>
      <point x="414" y="486"/>
      <point x="433" y="425" type="curve"/>
      <point x="436" y="425" type="line"/>
      <point x="437" y="440"/>
      <point x="441" y="469"/>
      <point x="450" y="514" type="curve" smooth="yes"/>
      <point x="462" y="574" type="line"/>
      <point x="321" y="574" type="line"/>
      <point x="337" y="657" type="line"/>
      <point x="479" y="657" type="line"/>
      <point x="493" y="725" type="line"/>
      <point x="628" y="725" type="line"/>
      <point x="615" y="657" type="line"/>
      <point x="679" y="657" type="line"/>
      <point x="663" y="574" type="line"/>
      <point x="599" y="574" type="line"/>
      <point x="512" y="113" type="line" smooth="yes"/>
      <point x="505" y="76"/>
      <point x="501" y="39"/>
      <point x="498" y="0" type="curve"/>
      <point x="360" y="0" type="line"/>
      <point x="360" y="21"/>
      <point x="363" y="47"/>
    </contour>
    <contour>
      <point x="251" y="84" type="curve" smooth="yes"/>
      <point x="286" y="84"/>
      <point x="314" y="94"/>
      <point x="337" y="114" type="curve" smooth="yes"/>
      <point x="360" y="135"/>
      <point x="377" y="165"/>
      <point x="389" y="206" type="curve" smooth="yes"/>
      <point x="402" y="247"/>
      <point x="408" y="285"/>
      <point x="408" y="320" type="curve" smooth="yes"/>
      <point x="408" y="395"/>
      <point x="377" y="427"/>
      <point x="316" y="427" type="curve" smooth="yes"/>
      <point x="285" y="427"/>
      <point x="259" y="416"/>
      <point x="238" y="395" type="curve" smooth="yes"/>
      <point x="217" y="374"/>
      <point x="201" y="343"/>
      <point x="190" y="301" type="curve" smooth="yes"/>
      <point x="179" y="260"/>
      <point x="173" y="222"/>
      <point x="173" y="187" type="curve" smooth="yes"/>
      <point x="173" y="118"/>
      <point x="199" y="84"/>
    </contour>
  </outline>
</glyph>
<glyph name="Ebreve" format="1">
  <advance width="667"/>
  <unicode hex="0114"/>
  <outline>
    <contour>
      <point x="578" y="0" type="line"/>
      <point x="18" y="0" type="line"/>
      <point x="151" y="688" type="line"/>
      <point x="692" y="688" type="line"/>
      <point x="670" y="577" type="line"/>
      <point x="273" y="577" type="line"/>
      <point x="240" y="404" type="line"/>
      <point x="607" y="404" type="line"/>
      <point x="585" y="292" type="line"/>
      <point x="218" y="292" type="line"/>
      <point x="183" y="111" type="line"/>
      <point x="600" y="111" type="line"/>
    </contour>
    <contour>
      <point x="428" y="742" type="curve" smooth="yes"/>
      <point x="335" y="742"/>
      <point x="275" y="798"/>
      <point x="275" y="890" type="curve"/>
      <point x="355" y="890" type="line"/>
      <point x="355" y="842"/>
      <point x="387" y="810"/>
      <point x="438" y="810" type="curve" smooth="yes"/>
      <point x="490" y="810"/>
      <point x="523" y="833"/>
      <point x="542" y="890" type="curve"/>
      <point x="622" y="890" type="line"/>
      <point x="594" y="790"/>
      <point x="532" y="742"/>
    </contour>
  </outline>
</glyph>
<glyph name="Ecaron" format="1">
  <advance width="667"/>
  <unicode hex="011A"/>
  <outline>
    <contour>
      <point x="578" y="0" type="line"/>
      <point x="18" y="0" type="line"/>
      <point x="151" y="688" type="line"/>
      <point x="692" y="688" type="line"/>
      <point x="670" y="577" type="line"/>
      <point x="273" y="577" type="line"/>
      <point x="240" y="404" type="line"/>
      <point x="607" y="404" type="line"/>
      <point x="585" y="292" type="line"/>
      <point x="218" y="292" type="line"/>
      <point x="183" y="111" type="line"/>
      <point x="600" y="111" type="line"/>
    </contour>
    <contour>
      <point x="622" y="882" type="line"/>
      <point x="474" y="747" type="line"/>
      <point x="362" y="747" type="line"/>
      <point x="263" y="882" type="line"/>
      <point x="265" y="896" type="line"/>
      <point x="338" y="896" type="line"/>
      <point x="427" y="822" type="line"/>
      <point x="429" y="822" type="line"/>
      <point x="542" y="896" type="line"/>
      <point x="625" y="896" type="line"/>
    </contour>
  </outline>
</glyph>
<glyph name="hbar" format="1">
  <advance width="611"/>
  <unicode hex="0127"/>
  <outline>
    <contour>
      <point x="157" y="725" type="line"/>
      <point x="293" y="725" type="line"/>
      <point x="280" y="657" type="line"/>
      <point x="433" y="657" type="line"/>
      <point x="417" y="574" type="line"/>
      <point x="264" y="574" type="line"/>
      <point x="253" y="514"/>
      <point x="242" y="462"/>
      <point x="232" y="418" type="curve"/>
      <point x="233" y="418" type="line"/>
      <point x="282" y="486"/>
      <point x="339" y="518"/>
      <point x="416" y="518" type="curve" smooth="yes"/>
      <point x="515" y="518"/>
      <point x="565" y="470"/>
      <point x="565" y="379" type="curve" smooth="yes"/>
      <point x="565" y="363"/>
      <point x="559" y="319"/>
      <point x="555" y="299" type="curve" smooth="yes"/>
      <point x="497" y="0" type="line"/>
      <point x="360" y="0" type="line"/>
      <point x="414" y="271" type="line" smooth="yes"/>
      <point x="423" y="312"/>
      <point x="427" y="339"/>
      <point x="427" y="352" type="curve" smooth="yes"/>
      <point x="427" y="394"/>
      <point x="402" y="415"/>
      <point x="353" y="415" type="curve" smooth="yes"/>
      <point x="320" y="415"/>
      <point x="289" y="401"/>
      <point x="261" y="374" type="curve" smooth="yes"/>
      <point x="233" y="347"/>
      <point x="215" y="315"/>
      <point x="208" y="276" type="curve" smooth="yes"/>
      <point x="155" y="0" type="line"/>
      <point x="17" y="0" type="line"/>
      <point x="127" y="574" type="line"/>
      <point x="61" y="574" type="line"/>
      <point x="77" y="657" type="line"/>
      <point x="144" y="657" type="line"/>
    </contour>
  </outline>
</glyph>
<glyph name="Itilde" format="1">
  <advance width="278"/>
  <unicode hex="0128"/>
  <outline>
    <contour>
      <point x="161" y="0" type="line"/>
      <point x="18" y="0" type="line"/>
      <point x="151" y="688" type="line"/>
      <point x="295" y="688" type="line"/>
    </contour>
    <contour>
      <point x="305" y="747" type="curve" smooth="yes"/>
      <point x="249" y="747"/>
      <point x="199" y="807"/>
      <point x="160" y="807" type="curve" smooth="yes"/>
      <point x="132" y="807"/>
      <point x="116" y="794"/>
      <point x="100" y="747" type="curve"/>
      <point x="34" y="747" type="line"/>
      <point x="59" y="850"/>
      <point x="104" y="890"/>
      <point x="171" y="890" type="curve" smooth="yes"/>
      <point x="229" y="890"/>
      <point x="279" y="830"/>
      <point x="316" y="830" type="curve" smooth="yes"/>
      <point x="344" y="830"/>
      <point x="360" y="846"/>
      <point x="376" y="890" type="curve"/>
      <point x="442" y="890" type="line"/>
      <point x="417" y="787"/>
      <point x="372" y="747"/>
    </contour>
  </outline>
</glyph>
<glyph name="ibreve" format="1">
  <advance width="278"/>
  <unicode hex="012D"/>
  <outline>
    <contour>
      <point x="154" y="0" type="line"/>
      <point x="17" y="0" type="line"/>
      <point x="120" y="528" type="line"/>
      <point x="257" y="528" type="line"/>
    </contour>
    <contour>
      <point x="201" y="578" type="curve" smooth="yes"/>
      <point x="109" y="578"/>
      <point x="48" y="633"/>
      <point x="48" y="717" type="curve"/>
      <point x="49" y="735" type="line"/>
      <point x="128" y="735" type="line"/>
      <point x="128" y="687"/>
      <point x="161" y="654"/>
      <point x="208" y="654" type="curve" smooth="yes"/>
      <point x="260" y="654"/>
      <point x="299" y="684"/>
      <point x="314" y="735" type="curve"/>
      <point x="395" y="735" type="line"/>
      <point x="367" y="628"/>
      <point x="305" y="578"/>
    </contour>
  </outline>
</glyph>
<glyph name="Iogonek" format="1">
  <advance width="278"/>
  <unicode hex="012E"/>
  <outline>
    <contour>
      <point x="161" y="0" type="line"/>
      <point x="18" y="0" type="line"/>
      <point x="151" y="688" type="line"/>
      <point x="295" y="688" type="line"/>
    </contour>
    <contour>
      <point x="86" y="-208" type="curve" smooth="yes"/>
      <point x="27" y="-208"/>
      <point x="-11" y="-175"/>
      <point x="-11" y="-120" type="curve" smooth="yes"/>
      <point x="-11" y="-72"/>
      <point x="18" y="-28"/>
      <point x="77" y="5" type="curve"/>
      <point x="157" y="5" type="line"/>
      <point x="117" y="-20"/>
      <point x="85" y="-67"/>
      <point x="85" y="-103" type="curve" smooth="yes"/>
      <point x="85" y="-128"/>
      <point x="101" y="-140"/>
      <point x="124" y="-140" type="curve" smooth="yes"/>
      <point x="140" y="-140"/>
      <point x="157" y="-136"/>
      <point x="174" y="-129" type="curve"/>
      <point x="165" y="-191" type="line"/>
      <point x="139" y="-202"/>
      <point x="113" y="-208"/>
    </contour>
  </outline>
</glyph>
<glyph name="iogonek" format="1">
  <advance width="278"/>
  <unicode hex="012F"/>
  <outline>
    <contour>
      <point x="275" y="624" type="line"/>
      <point x="138" y="624" type="line"/>
      <point x="158" y="725" type="line"/>
      <point x="295" y="725" type="line"/>
    </contour>
    <contour>
      <point x="154" y="0" type="line"/>
      <point x="17" y="0" type="line"/>
      <point x="120" y="528" type="line"/>
      <point x="257" y="528" type="line"/>
    </contour>
    <contour>
      <point x="80" y="-208" type="curve" smooth="yes"/>
      <point x="21" y="-208"/>
      <point x="-18" y="-175"/>
      <point x="-18" y="-120" type="curve" smooth="yes"/>
      <point x="-18" y="-72"/>
      <point x="11" y="-28"/>
      <point x="70" y="5" type="curve"/>
      <point x="150" y="5" type="line"/>
      <point x="110" y="-20"/>
      <point x="79" y="-67"/>
      <point x="79" y="-103" type="curve" smooth="yes"/>
      <point x="79" y="-128"/>
      <point x="94" y="-140"/>
      <point x="117" y="-140" type="curve" smooth="yes"/>
      <point x="133" y="-140"/>
      <point x="150" y="-136"/>
      <point x="167" y="-129" type="curve"/>
      <point x="158" y="-191" type="line"/>
      <point x="132" y="-202"/>
      <point x="106" y="-208"/>
    </contour>
  </outline>
</glyph>
<glyph name="Idotaccent" format="1">
  <advance width="278"/>
  <unicode hex="0130"/>
  <outline>
    <contour>
      <point x="161" y="0" type="line"/>
      <point x="18" y="0" type="line"/>
      <point x="151" y="688" type="line"/>
      <point x="295" y="688" type="line"/>
    </contour>
    <contour>
      <point x="303" y="755" type="line"/>
      <point x="166" y="755" type="line"/>
      <point x="186" y="856" type="line"/>
      <point x="323" y="856" type="line"/>
    </contour>
  </outline>
</glyph>
<glyph name="IJ" format="1">
  <advance width="782"/>
  <unicode hex="0132"/>
  <outline>
    <contour>
      <point x="161" y="0" type="line"/>
      <point x="18" y="0" type="line"/>
      <point x="151" y="688" type="line"/>
      <point x="295" y="688" type="line"/>
    </contour>
    <contour>
      <point x="461" y="-10" type="curve" smooth="yes"/>
      <point x="337" y="-10"/>
      <point x="263" y="50"/>
      <point x="239" y="185" type="curve"/>
      <point x="369" y="213" type="line"/>
      <point x="384" y="140"/>
      <point x="418" y="103"/>
      <point x="470" y="103" type="curve"/>
      <point x="525" y="108"/>
      <point x="547" y="126"/>
      <point x="565" y="215" type="curve" smooth="yes"/>
      <point x="635" y="575" type="line"/>
      <point x="498" y="575" type="line"/>
      <point x="519" y="688" type="line"/>
      <point x="800" y="688" type="line"/>
      <point x="706" y="207" type="line" smooth="yes"/>
      <point x="677" y="56"/>
      <point x="601" y="-10"/>
    </contour>
  </outline>
</glyph>
<glyph name="kcommaaccent" format="1">
  <advance width="556"/>
  <unicode hex="0137"/>
  <outline>
    <contour>
      <point x="501" y="0" type="line"/>
      <point x="355" y="0" type="line"/>
      <point x="264" y="243" type="line"/>
      <point x="195" y="206" type="line"/>
      <point x="154" y="0" type="line"/>
      <point x="17" y="0" type="line"/>
      <point x="158" y="725" type="line"/>
      <point x="295" y="725" type="line"/>
      <point x="213" y="310" type="line"/>
      <point x="440" y="528" type="line"/>
      <point x="598" y="528" type="line"/>
      <point x="367" y="322" type="line"/>
    </contour>
    <contour>
      <point x="229" y="-222" type="curve"/>
      <point x="163" y="-222" type="line"/>
      <point x="199" y="-189"/>
      <point x="220" y="-162"/>
      <point x="225" y="-139" type="curve"/>
      <point x="172" y="-139" type="line"/>
      <point x="191" y="-38" type="line"/>
      <point x="311" y="-38" type="line"/>
      <point x="299" y="-100" type="line" smooth="yes"/>
      <point x="290" y="-145"/>
      <point x="273" y="-178"/>
    </contour>
  </outline>
</glyph>
<glyph name="lacute" format="1">
  <advance width="278"/>
  <unicode hex="013A"/>
  <outline>
    <contour>
      <point x="154" y="0" type="line"/>
      <point x="17" y="0" type="line"/>
      <point x="158" y="725" type="line"/>
      <point x="295" y="725" type="line"/>
    </contour>
    <contour>
      <point x="232" y="786" type="line"/>
      <point x="160" y="786" type="line"/>
      <point x="163" y="801" type="line"/>
      <point x="295" y="921" type="line"/>
      <point x="425" y="921" type="line"/>
      <point x="421" y="900" type="line"/>
    </contour>
  </outline>
</glyph>
<glyph name="Lcaron" format="1">
  <advance width="611"/>
  <unicode hex="013D"/>
  <outline>
    <contour>
      <point x="530" y="0" type="line"/>
      <point x="18" y="0" type="line"/>
      <point x="151" y="688" type="line"/>
      <point x="295" y="688" type="line"/>
      <point x="183" y="111" type="line"/>
      <point x="552" y="111" type="line"/>
    </contour>
    <contour>
      <point x="472" y="494" type="curve"/>
      <point x="405" y="494" type="line"/>
      <point x="442" y="527"/>
      <point x="464" y="558"/>
      <point x="469" y="587" type="curve"/>
      <point x="417" y="587" type="line"/>
      <point x="436" y="688" type="line"/>
      <point x="556" y="688" type="line"/>
      <point x="542" y="617" type="line" smooth="yes"/>
      <point x="533" y="572"/>
      <point x="516" y="538"/>
    </contour>
  </outline>
</glyph>
<glyph name="Ncaron" format="1">
  <advance width="722"/>
  <unicode hex="0147"/>
  <outline>
    <contour>
      <point x="605" y="0" type="line"/>
      <point x="432" y="0" type="line"/>
      <point x="249" y="552" type="line"/>
      <point x="242" y="499"/>
      <point x="235" y="461"/>
      <point x="230" y="436" type="curve" smooth="yes"/>
      <point x="146" y="0" type="line"/>
      <point x="18" y="0" type="line"/>
      <point x="151" y="688" type="line"/>
      <point x="322" y="688" type="line"/>
      <point x="506" y="131" type="line"/>
      <point x="512" y="171" type="line"/>
      <point x="526" y="256" type="line"/>
      <point x="611" y="688" type="line"/>
      <point x="739" y="688" type="line"/>
    </contour>
    <contour>
      <point x="654" y="882" type="line"/>
      <point x="506" y="747" type="line"/>
      <point x="394" y="747" type="line"/>
      <point x="294" y="882" type="line"/>
      <point x="297" y="896" type="line"/>
      <point x="370" y="896" type="line"/>
      <point x="459" y="822" type="line"/>
      <point x="461" y="822" type="line"/>
      <point x="574" y="896" type="line"/>
      <point x="657" y="896" type="line"/>
    </contour>
  </outline>
</glyph>
<glyph name="uni0162" format="1">
  <advance width="611"/>
  <unicode hex="0162"/>
  <outline>
    <contour>
      <point x="660" y="577" type="line"/>
      <point x="437" y="577" type="line"/>
      <point x="325" y="0" type="line"/>
      <point x="181" y="0" type="line"/>
      <point x="293" y="577" type="line"/>
      <point x="71" y="577" type="line"/>
      <point x="92" y="688" type="line"/>
      <point x="681" y="688" type="line"/>
    </contour>
    <contour>
      <point x="172" y="-208" type="curve" smooth="yes"/>
      <point x="155" y="-208"/>
      <point x="138" y="-207"/>
      <point x="120" y="-205" type="curve"/>
      <point x="134" y="-147" type="line"/>
      <point x="148" y="-150"/>
      <point x="161" y="-151"/>
      <point x="174" y="-151" type="curve" smooth="yes"/>
      <point x="227" y="-151"/>
      <point x="250" y="-141"/>
      <point x="250" y="-113" type="curve" smooth="yes"/>
      <point x="250" y="-93"/>
      <point x="232" y="-83"/>
      <point x="196" y="-83" type="curve" smooth="yes"/>
      <point x="184" y="-83" type="line"/>
      <point x="170" y="-83" type="line"/>
      <point x="218" y="0" type="line"/>
      <point x="287" y="0" type="line"/>
      <point x="264" y="-41" type="line"/>
      <point x="309" y="-41"/>
      <point x="340" y="-62"/>
      <point x="340" y="-105" type="curve" smooth="yes"/>
      <point x="340" y="-168"/>
      <point x="287" y="-208"/>
    </contour>
  </outline>
</glyph>
<glyph name="Tcaron" format="1">
  <advance width="611"/>
  <unicode hex="0164"/>
  <outline>
    <contour>
      <point x="660" y="577" type="line"/>
      <point x="437" y="577" type="line"/>
      <point x="325" y="0" type="line"/>
      <point x="181" y="0" type="line"/>
      <point x="293" y="577" type="line"/>
      <point x="71" y="577" type="line"/>
      <point x="92" y="688" type="line"/>
      <point x="681" y="688" type="line"/>
    </contour>
    <contour>
      <point x="595" y="882" type="line"/>
      <point x="447" y="747" type="line"/>
      <point x="335" y="747" type="line"/>
      <point x="235" y="882" type="line"/>
      <point x="238" y="896" type="line"/>
      <point x="311" y="896" type="line"/>
      <point x="400" y="822" type="line"/>
      <point x="402" y="822" type="line"/>
      <point x="515" y="896" type="line"/>
      <point x="598" y="896" type="line"/>
    </contour>
  </outline>
</glyph>
<glyph name="tcaron" format="1">
  <advance width="479"/>
  <unicode hex="0165"/>
  <outline>
    <contour>
      <point x="184" y="-8" type="curve" smooth="yes"/>
      <point x="103" y="-8"/>
      <point x="57" y="31"/>
      <point x="57" y="102" type="curve" smooth="yes"/>
      <point x="57" y="125"/>
      <point x="59" y="151"/>
      <point x="64" y="179" type="curve" smooth="yes"/>
      <point x="114" y="436" type="line"/>
      <point x="42" y="436" type="line"/>
      <point x="60" y="528" type="line"/>
      <point x="139" y="528" type="line"/>
      <point x="206" y="652" type="line"/>
      <point x="292" y="652" type="line"/>
      <point x="269" y="528" type="line"/>
      <point x="367" y="528" type="line"/>
      <point x="350" y="436" type="line"/>
      <point x="250" y="436" type="line"/>
      <point x="199" y="174" type="line" smooth="yes"/>
      <point x="196" y="156"/>
      <point x="194" y="142"/>
      <point x="194" y="131" type="curve" smooth="yes"/>
      <point x="194" y="100"/>
      <point x="211" y="86"/>
      <point x="236" y="86" type="curve" smooth="yes"/>
      <point x="247" y="86"/>
      <point x="264" y="88"/>
      <point x="289" y="93" type="curve"/>
      <point x="273" y="4" type="line"/>
      <point x="247" y="-4"/>
      <point x="217" y="-8"/>
    </contour>
    <contour>
      <point x="472" y="531" type="curve"/>
      <point x="405" y="531" type="line"/>
      <point x="442" y="564"/>
      <point x="463" y="595"/>
      <point x="469" y="624" type="curve"/>
      <point x="416" y="624" type="line"/>
      <point x="436" y="725" type="line"/>
      <point x="555" y="725" type="line"/>
      <point x="542" y="653" type="line" smooth="yes"/>
      <point x="531" y="608"/>
      <point x="516" y="575"/>
    </contour>
  </outline>
</glyph>
<glyph name="Tbar" format="1">
  <advance width="611"/>
  <unicode hex="0166"/>
  <outline>
    <contour>
      <point x="660" y="577" type="line"/>
      <point x="437" y="577" type="line"/>
      <point x="402" y="398" type="line"/>
      <point x="514" y="398" type="line"/>
      <point x="496" y="306" type="line"/>
      <point x="384" y="306" type="line"/>
      <point x="325" y="0" type="line"/>
      <point x="181" y="0" type="line"/>
      <point x="240" y="306" type="line"/>
      <point x="129" y="306" type="line"/>
      <point x="147" y="398" type="line"/>
      <point x="258" y="398" type="line"/>
      <point x="293" y="577" type="line"/>
      <point x="71" y="577" type="line"/>
      <point x="92" y="688" type="line"/>
      <point x="681" y="688" type="line"/>
    </contour>
  </outline>
</glyph>
<glyph name="Umacron" format="1">
  <advance width="722"/>
  <unicode hex="016A"/>
  <outline>
    <contour>
      <point x="336" y="103" type="curve" smooth="yes"/>
      <point x="444" y="103"/>
      <point x="494" y="148"/>
      <point x="517" y="264" type="curve" smooth="yes"/>
      <point x="599" y="688" type="line"/>
      <point x="743" y="688" type="line"/>
      <point x="659" y="259" type="line" smooth="yes"/>
      <point x="623" y="76"/>
      <point x="519" y="-10"/>
      <point x="328" y="-10" type="curve" smooth="yes"/>
      <point x="156" y="-10"/>
      <point x="58" y="70"/>
      <point x="58" y="210" type="curve" smooth="yes"/>
      <point x="58" y="239"/>
      <point x="64" y="286"/>
      <point x="69" y="310" type="curve" smooth="yes"/>
      <point x="142" y="688" type="line"/>
      <point x="286" y="688" type="line"/>
      <point x="211" y="292" type="line" smooth="yes"/>
      <point x="205" y="264"/>
      <point x="202" y="236"/>
      <point x="202" y="208" type="curve" smooth="yes"/>
      <point x="202" y="141"/>
      <point x="252" y="103"/>
    </contour>
    <contour>
      <point x="611" y="830" type="line"/>
      <point x="593" y="748" type="line"/>
      <point x="307" y="748" type="line"/>
      <point x="323" y="830" type="line"/>
    </contour>
  </outline>
</glyph>
<glyph name="Ubreve" format="1">
  <advance width="722"/>
  <unicode hex="016C"/>
  <outline>
    <contour>
      <point x="336" y="103" type="curve" smooth="yes"/>
      <point x="444" y="103"/>
      <point x="494" y="148"/>
      <point x="517" y="264" type="curve" smooth="yes"/>
      <point x="599" y="688" type="line"/>
      <point x="743" y="688" type="line"/>
      <point x="659" y="259" type="line" smooth="yes"/>
      <point x="623" y="76"/>
      <point x="519" y="-10"/>
      <point x="328" y="-10" type="curve" smooth="yes"/>
      <point x="156" y="-10"/>
      <point x="58" y="70"/>
      <point x="58" y="210" type="curve" smooth="yes"/>
      <point x="58" y="239"/>
      <point x="64" y="286"/>
      <point x="69" y="310" type="curve" smooth="yes"/>
      <point x="142" y="688" type="line"/>
      <point x="286" y="688" type="line"/>
      <point x="211" y="292" type="line" smooth="yes"/>
      <point x="205" y="264"/>
      <point x="202" y="236"/>
      <point x="202" y="208" type="curve" smooth="yes"/>
      <point x="202" y="141"/>
      <point x="252" y="103"/>
    </contour>
    <contour>
      <point x="444" y="742" type="curve" smooth="yes"/>
      <point x="352" y="742"/>
      <point x="292" y="798"/>
      <point x="292" y="890" type="curve"/>
      <point x="372" y="890" type="line"/>
      <point x="372" y="842"/>
      <point x="404" y="810"/>
      <point x="455" y="810" type="curve" smooth="yes"/>
      <point x="506" y="810"/>
      <point x="541" y="833"/>
      <point x="558" y="890" type="curve"/>
      <point x="638" y="890" type="line"/>
      <point x="611" y="790"/>
      <point x="549" y="742"/>
    </contour>
  </outline>
</glyph>
<glyph name="ubreve" format="1">
  <advance width="611"/>
  <unicode hex="016D"/>
  <outline>
    <contour>
      <point x="114" y="528" type="line"/>
      <point x="250" y="528" type="line"/>
      <point x="192" y="238" type="line" smooth="yes"/>
      <point x="184" y="198"/>
      <point x="180" y="171"/>
      <point x="180" y="157" type="curve" smooth="yes"/>
      <point x="180" y="115"/>
      <point x="205" y="94"/>
      <point x="254" y="94" type="curve" smooth="yes"/>
      <point x="287" y="94"/>
      <point x="317" y="107"/>
      <point x="345" y="133" type="curve" smooth="yes"/>
      <point x="373" y="160"/>
      <point x="391" y="193"/>
      <point x="398" y="232" type="curve" smooth="yes"/>
      <point x="456" y="528" type="line"/>
      <point x="593" y="528" type="line"/>
      <point x="512" y="113" type="line" smooth="yes"/>
      <point x="507" y="87"/>
      <point x="501" y="49"/>
      <point x="494" y="0" type="curve"/>
      <point x="363" y="0" type="line" smooth="yes"/>
      <point x="363" y="3"/>
      <point x="364" y="16"/>
      <point x="367" y="41" type="curve" smooth="yes"/>
      <point x="370" y="66"/>
      <point x="373" y="82"/>
      <point x="375" y="90" type="curve"/>
      <point x="373" y="90" type="line"/>
      <point x="324" y="21"/>
      <point x="267" y="-9"/>
      <point x="191" y="-9" type="curve" smooth="yes"/>
      <point x="92" y="-9"/>
      <point x="42" y="40"/>
      <point x="42" y="129" type="curve" smooth="yes"/>
      <point x="42" y="146"/>
      <point x="47" y="192"/>
      <point x="52" y="209" type="curve" smooth="yes"/>
    </contour>
    <contour>
      <point x="360" y="578" type="curve" smooth="yes"/>
      <point x="269" y="578"/>
      <point x="207" y="633"/>
      <point x="207" y="717" type="curve"/>
      <point x="208" y="735" type="line"/>
      <point x="288" y="735" type="line"/>
      <point x="288" y="687"/>
      <point x="320" y="654"/>
      <point x="368" y="654" type="curve" smooth="yes"/>
      <point x="419" y="654"/>
      <point x="458" y="684"/>
      <point x="474" y="735" type="curve"/>
      <point x="554" y="735" type="line"/>
      <point x="526" y="628"/>
      <point x="464" y="578"/>
    </contour>
  </outline>
</glyph>
<glyph name="Uring" format="1">
  <advance width="722"/>
  <unicode hex="016E"/>
  <outline>
    <contour>
      <point x="336" y="103" type="curve" smooth="yes"/>
      <point x="444" y="103"/>
      <point x="494" y="148"/>
      <point x="517" y="264" type="curve" smooth="yes"/>
      <point x="599" y="688" type="line"/>
      <point x="743" y="688" type="line"/>
      <point x="659" y="259" type="line" smooth="yes"/>
      <point x="623" y="76"/>
      <point x="519" y="-10"/>
      <point x="328" y="-10" type="curve" smooth="yes"/>
      <point x="156" y="-10"/>
      <point x="58" y="70"/>
      <point x="58" y="210" type="curve" smooth="yes"/>
      <point x="58" y="239"/>
      <point x="64" y="286"/>
      <point x="69" y="310" type="curve" smooth="yes"/>
      <point x="142" y="688" type="line"/>
      <point x="286" y="688" type="line"/>
      <point x="211" y="292" type="line" smooth="yes"/>
      <point x="205" y="264"/>
      <point x="202" y="236"/>
      <point x="202" y="208" type="curve" smooth="yes"/>
      <point x="202" y="141"/>
      <point x="252" y="103"/>
    </contour>
    <contour>
      <point x="577" y="842" type="curve" smooth="yes"/>
      <point x="577" y="808"/>
      <point x="565" y="779"/>
      <point x="541" y="754" type="curve" smooth="yes"/>
      <point x="517" y="730"/>
      <point x="488" y="718"/>
      <point x="453" y="718" type="curve" smooth="yes"/>
      <point x="418" y="718"/>
      <point x="389" y="730"/>
      <point x="365" y="754" type="curve" smooth="yes"/>
      <point x="341" y="779"/>
      <point x="329" y="808"/>
      <point x="329" y="842" type="curve" smooth="yes"/>
      <point x="329" y="876"/>
      <point x="341" y="905"/>
      <point x="365" y="929" type="curve" smooth="yes"/>
      <point x="390" y="954"/>
      <point x="419" y="966"/>
      <point x="453" y="966" type="curve" smooth="yes"/>
      <point x="487" y="966"/>
      <point x="516" y="954"/>
      <point x="540" y="929" type="curve" smooth="yes"/>
      <point x="565" y="905"/>
      <point x="577" y="876"/>
    </contour>
    <contour>
      <point x="515" y="842" type="curve" smooth="yes"/>
      <point x="515" y="875"/>
      <point x="488" y="903"/>
      <point x="453" y="903" type="curve" smooth="yes"/>
      <point x="420" y="903"/>
      <point x="392" y="877"/>
      <point x="392" y="842" type="curve" smooth="yes"/>
      <point x="392" y="805"/>
      <point x="420" y="779"/>
      <point x="453" y="779" type="curve" smooth="yes"/>
      <point x="488" y="779"/>
      <point x="515" y="806"/>
    </contour>
  </outline>
</glyph>
<glyph name="Uogonek" format="1">
  <advance width="722"/>
  <unicode hex="0172"/>
  <outline>
    <contour>
      <point x="336" y="103" type="curve" smooth="yes"/>
      <point x="444" y="103"/>
      <point x="494" y="148"/>
      <point x="517" y="264" type="curve" smooth="yes"/>
      <point x="599" y="688" type="line"/>
      <point x="743" y="688" type="line"/>
      <point x="659" y="259" type="line" smooth="yes"/>
      <point x="623" y="76"/>
      <point x="519" y="-10"/>
      <point x="328" y="-10" type="curve" smooth="yes"/>
      <point x="156" y="-10"/>
      <point x="58" y="70"/>
      <point x="58" y="210" type="curve" smooth="yes"/>
      <point x="58" y="239"/>
      <point x="64" y="286"/>
      <point x="69" y="310" type="curve" smooth="yes"/>
      <point x="142" y="688" type="line"/>
      <point x="286" y="688" type="line"/>
      <point x="211" y="292" type="line" smooth="yes"/>
      <point x="205" y="264"/>
      <point x="202" y="236"/>
      <point x="202" y="208" type="curve" smooth="yes"/>
      <point x="202" y="141"/>
      <point x="252" y="103"/>
    </contour>
    <contour>
      <point x="348" y="-208" type="curve" smooth="yes"/>
      <point x="289" y="-208"/>
      <point x="250" y="-175"/>
      <point x="250" y="-120" type="curve" smooth="yes"/>
      <point x="250" y="-72"/>
      <point x="281" y="-28"/>
      <point x="338" y="5" type="curve"/>
      <point x="418" y="5" type="line"/>
      <point x="379" y="-20"/>
      <point x="347" y="-67"/>
      <point x="347" y="-103" type="curve" smooth="yes"/>
      <point x="347" y="-128"/>
      <point x="363" y="-140"/>
      <point x="386" y="-140" type="curve" smooth="yes"/>
      <point x="402" y="-140"/>
      <point x="419" y="-136"/>
      <point x="436" y="-129" type="curve"/>
      <point x="426" y="-191" type="line"/>
      <point x="401" y="-202"/>
      <point x="375" y="-208"/>
    </contour>
  </outline>
</glyph>
<glyph name="wcircumflex" format="1">
  <advance width="778"/>
  <unicode hex="0175"/>
  <outline>
    <contour>
      <point x="831" y="528" type="line"/>
      <point x="589" y="0" type="line"/>
      <point x="444" y="0" type="line"/>
      <point x="423" y="322" type="line"/>
      <point x="421" y="435" type="line"/>
      <point x="404" y="388"/>
      <point x="388" y="350"/>
      <point x="375" y="321" type="curve" smooth="yes"/>
      <point x="227" y="0" type="line"/>
      <point x="82" y="0" type="line"/>
      <point x="48" y="528" type="line"/>
      <point x="174" y="528" type="line"/>
      <point x="181" y="188" type="line"/>
      <point x="181" y="125" type="line"/>
      <point x="194" y="158" type="line"/>
      <point x="220" y="218" type="line"/>
      <point x="363" y="528" type="line"/>
      <point x="510" y="528" type="line"/>
      <point x="531" y="218" type="line"/>
      <point x="533" y="125" type="line"/>
      <point x="559" y="189" type="line"/>
      <point x="701" y="528" type="line"/>
    </contour>
    <contour>
      <point x="529" y="747" type="line"/>
      <point x="621" y="591" type="line"/>
      <point x="618" y="578" type="line"/>
      <point x="545" y="578" type="line"/>
      <point x="464" y="671" type="line"/>
      <point x="462" y="671" type="line"/>
      <point x="341" y="578" type="line"/>
      <point x="258" y="578" type="line"/>
      <point x="261" y="591" type="line"/>
      <point x="417" y="747" type="line"/>
    </contour>
  </outline>
</glyph>
<glyph name="Ycircumflex" format="1">
  <advance width="667"/>
  <unicode hex="0176"/>
  <outline>
    <contour>
      <point x="408" y="282" type="line"/>
      <point x="354" y="0" type="line"/>
      <point x="210" y="0" type="line"/>
      <point x="265" y="282" type="line"/>
      <point x="84" y="688" type="line"/>
      <point x="227" y="688" type="line"/>
      <point x="353" y="393" type="line"/>
      <point x="584" y="688" type="line"/>
      <point x="742" y="688" type="line"/>
    </contour>
    <contour>
      <point x="497" y="896" type="line"/>
      <point x="593" y="761" type="line"/>
      <point x="590" y="747" type="line"/>
      <point x="518" y="747" type="line"/>
      <point x="433" y="821" type="line"/>
      <point x="431" y="821" type="line"/>
      <point x="313" y="747" type="line"/>
      <point x="231" y="747" type="line"/>
      <point x="233" y="761" type="line"/>
      <point x="385" y="896" type="line"/>
    </contour>
  </outline>
</glyph>
<glyph name="Ydieresis" format="1">
  <advance width="667"/>
  <unicode hex="0178"/>
  <outline>
    <contour>
      <point x="394" y="282" type="line"/>
      <point x="339" y="0" type="line"/>
      <point x="196" y="0" type="line"/>
      <point x="250" y="282" type="line"/>
      <point x="70" y="688" type="line"/>
      <point x="212" y="688" type="line"/>
      <point x="339" y="393" type="line"/>
      <point x="570" y="688" type="line"/>
      <point x="728" y="688" type="line"/>
    </contour>
    <contour>
      <point x="559" y="747" type="line"/>
      <point x="453" y="747" type="line"/>
      <point x="474" y="854" type="line"/>
      <point x="580" y="854" type="line"/>
    </contour>
    <contour>
      <point x="345" y="747" type="line"/>
      <point x="241" y="747" type="line"/>
      <point x="262" y="854" type="line"/>
      <point x="366" y="854" type="line"/>
    </contour>
  </outline>
</glyph>
<glyph name="Zacute" format="1">
  <advance width="611"/>
  <unicode hex="0179"/>
  <outline>
    <contour>
      <point x="550" y="113" type="line"/>
      <point x="528" y="0" type="line"/>
      <point x="-23" y="0" type="line"/>
      <point x="-4" y="102" type="line"/>
      <point x="449" y="575" type="line"/>
      <point x="125" y="575" type="line"/>
      <point x="147" y="688" type="line"/>
      <point x="642" y="688" type="line"/>
      <point x="623" y="588" type="line"/>
      <point x="168" y="113" type="line"/>
    </contour>
    <contour>
      <point x="396" y="747" type="line"/>
      <point x="324" y="747" type="line"/>
      <point x="327" y="762" type="line"/>
      <point x="459" y="883" type="line"/>
      <point x="589" y="883" type="line"/>
      <point x="585" y="862" type="line"/>
    </contour>
  </outline>
</glyph>
<glyph name="longs" format="1">
  <advance width="278"/>
  <unicode hex="017F"/>
  <outline>
    <contour>
      <point x="322" y="725" type="curve" smooth="yes"/>
      <point x="345" y="725"/>
      <point x="370" y="722"/>
      <point x="397" y="716" type="curve"/>
      <point x="380" y="628" type="line"/>
      <point x="373" y="629"/>
      <point x="346" y="633"/>
      <point x="333" y="633" type="curve" smooth="yes"/>
      <point x="289" y="633"/>
      <point x="273" y="613"/>
      <point x="265" y="570" type="curve" smooth="yes"/>
      <point x="154" y="0" type="line"/>
      <point x="17" y="0" type="line"/>
      <point x="131" y="583" type="line" smooth="yes"/>
      <point x="151" y="684"/>
      <point x="210" y="725"/>
    </contour>
  </outline>
</glyph>
<glyph name="uni0181" format="1">
  <advance width="796"/>
  <unicode hex="0181"/>
  <outline>
    <contour>
      <point x="119" y="0" type="line"/>
      <point x="232" y="583" type="line"/>
      <point x="222" y="583" type="line" smooth="yes"/>
      <point x="175" y="583"/>
      <point x="150" y="557"/>
      <point x="150" y="512" type="curve" smooth="yes"/>
      <point x="150" y="500"/>
      <point x="152" y="484"/>
      <point x="156" y="464" type="curve"/>
      <point x="46" y="456" type="line"/>
      <point x="44" y="469"/>
      <point x="43" y="483"/>
      <point x="43" y="499" type="curve" smooth="yes"/>
      <point x="43" y="628"/>
      <point x="104" y="688"/>
      <point x="232" y="688" type="curve" smooth="yes"/>
      <point x="538" y="688" type="line" smooth="yes"/>
      <point x="701" y="688"/>
      <point x="786" y="633"/>
      <point x="786" y="529" type="curve" smooth="yes"/>
      <point x="786" y="440"/>
      <point x="732" y="381"/>
      <point x="628" y="360" type="curve"/>
      <point x="716" y="345"/>
      <point x="769" y="289"/>
      <point x="769" y="210" type="curve" smooth="yes"/>
      <point x="769" y="73"/>
      <point x="667" y="0"/>
      <point x="463" y="0" type="curve" smooth="yes"/>
    </contour>
    <contour>
      <point x="322" y="304" type="line"/>
      <point x="283" y="107" type="line"/>
      <point x="443" y="107" type="line" smooth="yes"/>
      <point x="579" y="107"/>
      <point x="625" y="137"/>
      <point x="625" y="213" type="curve" smooth="yes"/>
      <point x="625" y="272"/>
      <point x="583" y="304"/>
      <point x="483" y="304" type="curve" smooth="yes"/>
    </contour>
    <contour>
      <point x="375" y="581" type="line"/>
      <point x="342" y="411" type="line"/>
      <point x="486" y="411" type="line" smooth="yes"/>
      <point x="599" y="411"/>
      <point x="643" y="439"/>
      <point x="643" y="507" type="curve" smooth="yes"/>
      <point x="643" y="559"/>
      <point x="609" y="581"/>
      <point x="522" y="581" type="curve" smooth="yes"/>
    </contour>
  </outline>
</glyph>
<glyph name="uni0184" format="1">
  <advance width="708"/>
  <unicode hex="0184"/>
  <outline>
    <contour>
      <point x="369" y="0" type="curve" smooth="yes"/>
      <point x="18" y="0" type="line"/>
      <point x="112" y="490" type="line"/>
      <point x="55" y="589" type="line"/>
      <point x="58" y="606" type="line"/>
      <point x="258" y="688" type="line"/>
      <point x="295" y="688" type="line"/>
      <point x="242" y="414" type="line"/>
      <point x="424" y="414" type="line" smooth="yes"/>
      <point x="576" y="414"/>
      <point x="669" y="342"/>
      <point x="669" y="226" type="curve" smooth="yes"/>
      <point x="669" y="82"/>
      <point x="558" y="0"/>
    </contour>
    <contour>
      <point x="220" y="303" type="line"/>
      <point x="183" y="112" type="line"/>
      <point x="374" y="112" type="line" smooth="yes"/>
      <point x="469" y="112"/>
      <point x="521" y="150"/>
      <point x="521" y="215" type="curve" smooth="yes"/>
      <point x="521" y="274"/>
      <point x="482" y="303"/>
      <point x="393" y="303" type="curve" smooth="yes"/>
    </contour>
  </outline>
</glyph>
<glyph name="uni0188" format="1">
  <advance width="556"/>
  <unicode hex="0188"/>
  <outline>
    <contour>
      <point x="542" y="362" type="line"/>
      <point x="403" y="351" type="line"/>
      <point x="399" y="413"/>
      <point x="372" y="444"/>
      <point x="321" y="444" type="curve" smooth="yes"/>
      <point x="252" y="444"/>
      <point x="218" y="402"/>
      <point x="186" y="281" type="curve" smooth="yes"/>
      <point x="179" y="244"/>
      <point x="175" y="216"/>
      <point x="175" y="199" type="curve" smooth="yes"/>
      <point x="175" y="122"/>
      <point x="204" y="84"/>
      <point x="262" y="84" type="curve" smooth="yes"/>
      <point x="315" y="84"/>
      <point x="350" y="119"/>
      <point x="371" y="186" type="curve"/>
      <point x="503" y="162" type="line"/>
      <point x="469" y="47"/>
      <point x="386" y="-10"/>
      <point x="254" y="-10" type="curve" smooth="yes"/>
      <point x="110" y="-10"/>
      <point x="31" y="67"/>
      <point x="31" y="198" type="curve" smooth="yes"/>
      <point x="31" y="261"/>
      <point x="44" y="321"/>
      <point x="69" y="376" type="curve" smooth="yes"/>
      <point x="121" y="488"/>
      <point x="204" y="538"/>
      <point x="332" y="538" type="curve" smooth="yes"/>
      <point x="376" y="538"/>
      <point x="415" y="529"/>
      <point x="448" y="512" type="curve"/>
      <point x="467" y="604"/>
      <point x="529" y="648"/>
      <point x="621" y="648" type="curve" smooth="yes"/>
      <point x="646" y="648"/>
      <point x="670" y="645"/>
      <point x="693" y="640" type="curve"/>
      <point x="674" y="542" type="line"/>
      <point x="656" y="546"/>
      <point x="642" y="548"/>
      <point x="633" y="548" type="curve" smooth="yes"/>
      <point x="598" y="548"/>
      <point x="575" y="532"/>
      <point x="564" y="479" type="curve" smooth="yes"/>
    </contour>
  </outline>
</glyph>
<glyph name="uni018B" format="1">
  <advance width="667"/>
  <unicode hex="018B"/>
  <outline>
    <contour>
      <point x="16" y="181" type="curve" smooth="yes"/>
      <point x="16" y="322"/>
      <point x="130" y="411"/>
      <point x="298" y="411" type="curve" smooth="yes"/>
      <point x="498" y="411" type="line"/>
      <point x="530" y="577" type="line"/>
      <point x="186" y="577" type="line"/>
      <point x="207" y="688" type="line"/>
      <point x="696" y="688" type="line"/>
      <point x="563" y="0" type="line"/>
      <point x="234" y="0" type="line" smooth="yes"/>
      <point x="100" y="0"/>
      <point x="16" y="72"/>
    </contour>
    <contour>
      <point x="478" y="304" type="line"/>
      <point x="313" y="304" type="line" smooth="yes"/>
      <point x="214" y="304"/>
      <point x="164" y="264"/>
      <point x="164" y="191" type="curve" smooth="yes"/>
      <point x="164" y="135"/>
      <point x="202" y="107"/>
      <point x="278" y="107" type="curve" smooth="yes"/>
      <point x="439" y="107" type="line"/>
    </contour>
  </outline>
</glyph>
<glyph name="uni018D" format="1">
  <advance width="610"/>
  <unicode hex="018D"/>
  <outline>
    <contour>
      <point x="587" y="331" type="curve" smooth="yes"/>
      <point x="587" y="162"/>
      <point x="488" y="40"/>
      <point x="320" y="4" type="curve"/>
      <point x="465" y="-119" type="line"/>
      <point x="448" y="-207" type="line"/>
      <point x="-2" y="-207" type="line"/>
      <point x="17" y="-108" type="line"/>
      <point x="279" y="-108" type="line"/>
      <point x="133" y="20" type="line" smooth="yes"/>
      <point x="108" y="43"/>
      <point x="89" y="63"/>
      <point x="78" y="80" type="curve" smooth="yes"/>
      <point x="55" y="116"/>
      <point x="41" y="160"/>
      <point x="41" y="217" type="curve" smooth="yes"/>
      <point x="38" y="400"/>
      <point x="174" y="541"/>
      <point x="364" y="538" type="curve" smooth="yes"/>
      <point x="507" y="538"/>
      <point x="587" y="462"/>
    </contour>
    <contour>
      <point x="277" y="94" type="curve" smooth="yes"/>
      <point x="310" y="94"/>
      <point x="339" y="104"/>
      <point x="364" y="123" type="curve" smooth="yes"/>
      <point x="413" y="162"/>
      <point x="445" y="244"/>
      <point x="445" y="336" type="curve" smooth="yes"/>
      <point x="445" y="405"/>
      <point x="406" y="444"/>
      <point x="341" y="444" type="curve" smooth="yes"/>
      <point x="241" y="444"/>
      <point x="184" y="344"/>
      <point x="184" y="206" type="curve" smooth="yes"/>
      <point x="184" y="130"/>
      <point x="220" y="94"/>
    </contour>
  </outline>
</glyph>
<glyph name="uni018F" format="1">
  <advance width="748"/>
  <unicode hex="018F"/>
  <outline>
    <contour>
      <point x="342" y="101" type="curve" smooth="yes"/>
      <point x="441" y="101"/>
      <point x="515" y="174"/>
      <point x="546" y="299" type="curve"/>
      <point x="200" y="299" type="line"/>
      <point x="197" y="285"/>
      <point x="196" y="270"/>
      <point x="196" y="254" type="curve" smooth="yes"/>
      <point x="196" y="159"/>
      <point x="250" y="101"/>
    </contour>
    <contour>
      <point x="256" y="487" type="curve"/>
      <point x="129" y="522" type="line"/>
      <point x="186" y="645"/>
      <point x="278" y="698"/>
      <point x="426" y="698" type="curve" smooth="yes"/>
      <point x="514" y="698"/>
      <point x="584" y="672"/>
      <point x="637" y="620" type="curve" smooth="yes"/>
      <point x="690" y="568"/>
      <point x="716" y="498"/>
      <point x="716" y="409" type="curve" smooth="yes"/>
      <point x="719" y="171"/>
      <point x="540" y="-15"/>
      <point x="314" y="-10" type="curve" smooth="yes"/>
      <point x="156" y="-10"/>
      <point x="52" y="108"/>
      <point x="52" y="266" type="curve" smooth="yes"/>
      <point x="52" y="315"/>
      <point x="60" y="365"/>
      <point x="76" y="414" type="curve"/>
      <point x="567" y="414" type="line"/>
      <point x="568" y="441" type="line" smooth="yes"/>
      <point x="568" y="525"/>
      <point x="508" y="586"/>
      <point x="424" y="586" type="curve"/>
      <point x="339" y="581"/>
      <point x="310" y="571"/>
    </contour>
  </outline>
</glyph>
<glyph name="uni0190" format="1">
  <advance width="643"/>
  <unicode hex="0190"/>
  <outline>
    <contour>
      <point x="275" y="-10" type="curve" smooth="yes"/>
      <point x="131" y="-10"/>
      <point x="32" y="66"/>
      <point x="32" y="167" type="curve" smooth="yes"/>
      <point x="32" y="270"/>
      <point x="99" y="338"/>
      <point x="222" y="354" type="curve"/>
      <point x="153" y="375"/>
      <point x="112" y="422"/>
      <point x="112" y="486" type="curve" smooth="yes"/>
      <point x="108" y="610"/>
      <point x="230" y="700"/>
      <point x="382" y="698" type="curve" smooth="yes"/>
      <point x="525" y="698"/>
      <point x="612" y="631"/>
      <point x="637" y="506" type="curve"/>
      <point x="504" y="477" type="line"/>
      <point x="487" y="560"/>
      <point x="445" y="592"/>
      <point x="374" y="592" type="curve" smooth="yes"/>
      <point x="298" y="592"/>
      <point x="250" y="556"/>
      <point x="250" y="489" type="curve" smooth="yes"/>
      <point x="250" y="438"/>
      <point x="291" y="405"/>
      <point x="378" y="405" type="curve" smooth="yes"/>
      <point x="407" y="405" type="line"/>
      <point x="385" y="294" type="line"/>
      <point x="356" y="294" type="line" smooth="yes"/>
      <point x="227" y="294"/>
      <point x="176" y="264"/>
      <point x="176" y="189" type="curve" smooth="yes"/>
      <point x="176" y="134"/>
      <point x="223" y="102"/>
      <point x="299" y="102" type="curve" smooth="yes"/>
      <point x="379" y="102"/>
      <point x="435" y="142"/>
      <point x="478" y="225" type="curve"/>
      <point x="599" y="161" type="line"/>
      <point x="534" y="38"/>
      <point x="436" y="-10"/>
    </contour>
  </outline>
</glyph>
<glyph name="florin" format="1">
  <advance width="556"/>
  <unicode hex="0192"/>
  <outline>
    <contour>
      <point x="473" y="436" type="line"/>
      <point x="369" y="436" type="line"/>
      <point x="243" y="-208" type="line"/>
      <point x="106" y="-208" type="line"/>
      <point x="232" y="436" type="line"/>
      <point x="155" y="436" type="line"/>
      <point x="173" y="528" type="line"/>
      <point x="250" y="528" type="line"/>
      <point x="261" y="583" type="line" smooth="yes"/>
      <point x="281" y="684"/>
      <point x="340" y="725"/>
      <point x="452" y="725" type="curve" smooth="yes"/>
      <point x="476" y="725"/>
      <point x="501" y="722"/>
      <point x="528" y="716" type="curve"/>
      <point x="510" y="628" type="line"/>
      <point x="503" y="629"/>
      <point x="478" y="633"/>
      <point x="463" y="633" type="curve" smooth="yes"/>
      <point x="420" y="633"/>
      <point x="403" y="613"/>
      <point x="395" y="570" type="curve" smooth="yes"/>
      <point x="387" y="528" type="line"/>
      <point x="491" y="528" type="line"/>
    </contour>
  </outline>
</glyph>
<glyph name="uni0194" format="1">
  <advance width="621"/>
  <unicode hex="0194"/>
  <outline>
    <contour>
      <point x="219" y="132" type="curve"/>
      <point x="87" y="688" type="line"/>
      <point x="238" y="688" type="line"/>
      <point x="318" y="265" type="line"/>
      <point x="563" y="688" type="line"/>
      <point x="711" y="688" type="line"/>
      <point x="365" y="132" type="line"/>
      <point x="385" y="75"/>
      <point x="398" y="35"/>
      <point x="403" y="12" type="curve" smooth="yes"/>
      <point x="408" y="-10"/>
      <point x="411" y="-30"/>
      <point x="411" y="-47" type="curve" smooth="yes"/>
      <point x="411" y="-146"/>
      <point x="344" y="-208"/>
      <point x="229" y="-208" type="curve" smooth="yes"/>
      <point x="149" y="-208"/>
      <point x="96" y="-159"/>
      <point x="96" y="-87" type="curve" smooth="yes"/>
      <point x="96" y="-60"/>
      <point x="105" y="-30"/>
      <point x="122" y="2" type="curve" smooth="yes"/>
      <point x="139" y="35"/>
      <point x="172" y="78"/>
    </contour>
    <contour>
      <point x="247" y="-106" type="curve" smooth="yes"/>
      <point x="280" y="-106"/>
      <point x="295" y="-79"/>
      <point x="295" y="-46" type="curve" smooth="yes"/>
      <point x="295" y="-6"/>
      <point x="284" y="23"/>
      <point x="276" y="46" type="curve"/>
      <point x="256" y="21" type="line" smooth="yes"/>
      <point x="228" y="-14"/>
      <point x="214" y="-43"/>
      <point x="214" y="-68" type="curve" smooth="yes"/>
      <point x="214" y="-89"/>
      <point x="226" y="-106"/>
    </contour>
  </outline>
</glyph>
<glyph name="uni0195" format="1">
  <advance width="934"/>
  <unicode hex="0195"/>
  <outline>
    <contour>
      <point x="396" y="145" type="curve" smooth="yes"/>
      <point x="396" y="226"/>
      <point x="431" y="330"/>
      <point x="431" y="371" type="curve" smooth="yes"/>
      <point x="431" y="413"/>
      <point x="406" y="434"/>
      <point x="356" y="434" type="curve" smooth="yes"/>
      <point x="323" y="434"/>
      <point x="293" y="421"/>
      <point x="265" y="394" type="curve" smooth="yes"/>
      <point x="238" y="368"/>
      <point x="220" y="335"/>
      <point x="212" y="296" type="curve" smooth="yes"/>
      <point x="155" y="0" type="line"/>
      <point x="17" y="0" type="line"/>
      <point x="157" y="725" type="line"/>
      <point x="293" y="725" type="line"/>
      <point x="255" y="527" type="line"/>
      <point x="236" y="438" type="line"/>
      <point x="237" y="438" type="line"/>
      <point x="286" y="507"/>
      <point x="344" y="538"/>
      <point x="419" y="538" type="curve" smooth="yes"/>
      <point x="519" y="538"/>
      <point x="569" y="488"/>
      <point x="569" y="399" type="curve" smooth="yes"/>
      <point x="569" y="373"/>
      <point x="563" y="331"/>
      <point x="551" y="274" type="curve" smooth="yes"/>
      <point x="540" y="219"/>
      <point x="534" y="185"/>
      <point x="534" y="174" type="curve" smooth="yes"/>
      <point x="534" y="118"/>
      <point x="558" y="93"/>
      <point x="607" y="93" type="curve" smooth="yes"/>
      <point x="668" y="93"/>
      <point x="707" y="135"/>
      <point x="723" y="219" type="curve" smooth="yes"/>
      <point x="784" y="528" type="line"/>
      <point x="920" y="528" type="line"/>
      <point x="861" y="223" type="line" smooth="yes"/>
      <point x="829" y="63"/>
      <point x="747" y="-10"/>
      <point x="599" y="-10" type="curve" smooth="yes"/>
      <point x="470" y="-10"/>
      <point x="396" y="45"/>
    </contour>
  </outline>
</glyph>
<glyph name="uni0197" format="1">
  <advance width="278"/>
  <unicode hex="0197"/>
  <outline>
    <contour>
      <point x="5" y="306" type="line"/>
      <point x="26" y="414" type="line"/>
      <point x="96" y="414" type="line"/>
      <point x="149" y="688" type="line"/>
      <point x="293" y="688" type="line"/>
      <point x="240" y="414" type="line"/>
      <point x="315" y="414" type="line"/>
      <point x="294" y="306" type="line"/>
      <point x="219" y="306" type="line"/>
      <point x="159" y="0" type="line"/>
      <point x="15" y="0" type="line"/>
      <point x="75" y="306" type="line"/>
    </contour>
  </outline>
</glyph>
<glyph name="uni019E" format="1">
  <advance width="611"/>
  <unicode hex="019E"/>
  <outline>
    <contour>
      <point x="455" y="-208" type="curve"/>
      <point x="319" y="-208" type="line"/>
      <point x="418" y="291" type="line" smooth="yes"/>
      <point x="427" y="331"/>
      <point x="431" y="358"/>
      <point x="431" y="371" type="curve" smooth="yes"/>
      <point x="431" y="413"/>
      <point x="406" y="434"/>
      <point x="356" y="434" type="curve" smooth="yes"/>
      <point x="323" y="434"/>
      <point x="293" y="421"/>
      <point x="265" y="394" type="curve" smooth="yes"/>
      <point x="238" y="368"/>
      <point x="220" y="335"/>
      <point x="212" y="296" type="curve" smooth="yes"/>
      <point x="155" y="0" type="line"/>
      <point x="17" y="0" type="line"/>
      <point x="98" y="416" type="line" smooth="yes"/>
      <point x="103" y="441"/>
      <point x="110" y="479"/>
      <point x="117" y="528" type="curve"/>
      <point x="248" y="528" type="line" smooth="yes"/>
      <point x="248" y="525"/>
      <point x="246" y="512"/>
      <point x="243" y="487" type="curve" smooth="yes"/>
      <point x="236" y="438" type="line"/>
      <point x="237" y="438" type="line"/>
      <point x="286" y="507"/>
      <point x="344" y="538"/>
      <point x="419" y="538" type="curve" smooth="yes"/>
      <point x="519" y="538"/>
      <point x="569" y="488"/>
      <point x="569" y="399" type="curve" smooth="yes"/>
      <point x="569" y="392"/>
      <point x="568" y="383"/>
      <point x="567" y="372" type="curve" smooth="yes"/>
      <point x="563" y="342" type="line" smooth="yes"/>
      <point x="562" y="333"/>
      <point x="526" y="150"/>
    </contour>
  </outline>
</glyph>
<glyph name="uni01A2" format="1">
  <advance width="904"/>
  <unicode hex="01A2"/>
  <outline>
    <contour>
      <point x="756" y="-208" type="line"/>
      <point x="618" y="-208" type="line"/>
      <point x="771" y="577" type="line"/>
      <point x="646" y="577" type="line"/>
      <point x="541" y="30" type="line"/>
      <point x="518" y="19"/>
      <point x="486" y="9"/>
      <point x="447" y="1" type="curve" smooth="yes"/>
      <point x="408" y="-6"/>
      <point x="370" y="-10"/>
      <point x="335" y="-10" type="curve" smooth="yes"/>
      <point x="154" y="-10"/>
      <point x="50" y="95"/>
      <point x="50" y="272" type="curve" smooth="yes"/>
      <point x="48" y="526"/>
      <point x="209" y="701"/>
      <point x="458" y="698" type="curve" smooth="yes"/>
      <point x="523" y="698"/>
      <point x="596" y="682"/>
      <point x="640" y="658" type="curve"/>
      <point x="896" y="696" type="line"/>
      <point x="932" y="696" type="line"/>
    </contour>
    <contour>
      <point x="360" y="101" type="curve" smooth="yes"/>
      <point x="380" y="101"/>
      <point x="399" y="103"/>
      <point x="417" y="108" type="curve"/>
      <point x="509" y="580" type="line"/>
      <point x="490" y="585"/>
      <point x="471" y="587"/>
      <point x="451" y="587" type="curve" smooth="yes"/>
      <point x="299" y="591"/>
      <point x="195" y="452"/>
      <point x="197" y="274" type="curve" smooth="yes"/>
      <point x="197" y="159"/>
      <point x="251" y="101"/>
    </contour>
  </outline>
</glyph>
<glyph name="uni01A3" format="1">
  <advance width="733"/>
  <unicode hex="01A3"/>
  <outline>
    <contour>
      <point x="251" y="-10" type="curve" smooth="yes"/>
      <point x="118" y="-10"/>
      <point x="38" y="73"/>
      <point x="38" y="205" type="curve" smooth="yes"/>
      <point x="36" y="399"/>
      <point x="159" y="542"/>
      <point x="345" y="538" type="curve" smooth="yes"/>
      <point x="413" y="538"/>
      <point x="480" y="519"/>
      <point x="513" y="495" type="curve"/>
      <point x="708" y="538" type="line"/>
      <point x="746" y="538" type="line"/>
      <point x="601" y="-208" type="line"/>
      <point x="477" y="-208" type="line"/>
      <point x="601" y="428" type="line"/>
      <point x="506" y="428" type="line"/>
      <point x="431" y="25" type="line"/>
      <point x="379" y="2"/>
      <point x="319" y="-10"/>
    </contour>
    <contour>
      <point x="270" y="84" type="curve" smooth="yes"/>
      <point x="288" y="84"/>
      <point x="303" y="85"/>
      <point x="316" y="87" type="curve"/>
      <point x="384" y="439" type="line"/>
      <point x="375" y="442"/>
      <point x="360" y="444"/>
      <point x="337" y="444" type="curve" smooth="yes"/>
      <point x="245" y="444"/>
      <point x="179" y="339"/>
      <point x="179" y="201" type="curve" smooth="yes"/>
      <point x="179" y="123"/>
      <point x="209" y="84"/>
    </contour>
  </outline>
</glyph>
<glyph name="uni01A4" format="1">
  <advance width="740"/>
  <unicode hex="01A4"/>
  <outline>
    <contour>
      <point x="232" y="688" type="curve" smooth="yes"/>
      <point x="500" y="688" type="line" smooth="yes"/>
      <point x="660" y="688"/>
      <point x="753" y="611"/>
      <point x="753" y="482" type="curve" smooth="yes"/>
      <point x="753" y="409"/>
      <point x="728" y="350"/>
      <point x="678" y="307" type="curve" smooth="yes"/>
      <point x="628" y="264"/>
      <point x="561" y="242"/>
      <point x="478" y="242" type="curve" smooth="yes"/>
      <point x="313" y="242" type="line"/>
      <point x="265" y="0" type="line"/>
      <point x="121" y="0" type="line"/>
      <point x="234" y="583" type="line"/>
      <point x="222" y="583" type="line" smooth="yes"/>
      <point x="175" y="583"/>
      <point x="150" y="557"/>
      <point x="150" y="512" type="curve" smooth="yes"/>
      <point x="150" y="500"/>
      <point x="152" y="484"/>
      <point x="156" y="464" type="curve"/>
      <point x="46" y="456" type="line"/>
      <point x="44" y="469"/>
      <point x="43" y="483"/>
      <point x="43" y="499" type="curve" smooth="yes"/>
      <point x="43" y="628"/>
      <point x="104" y="688"/>
    </contour>
    <contour>
      <point x="377" y="576" type="line"/>
      <point x="333" y="353" type="line"/>
      <point x="456" y="353" type="line" smooth="yes"/>
      <point x="556" y="353"/>
      <point x="607" y="389"/>
      <point x="607" y="474" type="curve" smooth="yes"/>
      <point x="607" y="541"/>
      <point x="563" y="576"/>
      <point x="486" y="576" type="curve" smooth="yes"/>
    </contour>
  </outline>
</glyph>
<glyph name="uni01A5" format="1">
  <advance width="611"/>
  <unicode hex="01A5"/>
  <outline>
    <contour>
      <point x="239" y="446" type="line"/>
      <point x="241" y="446" type="line"/>
      <point x="288" y="513"/>
      <point x="339" y="538"/>
      <point x="414" y="538" type="curve" smooth="yes"/>
      <point x="518" y="538"/>
      <point x="579" y="473"/>
      <point x="579" y="365" type="curve" smooth="yes"/>
      <point x="579" y="300"/>
      <point x="569" y="236"/>
      <point x="548" y="173" type="curve" smooth="yes"/>
      <point x="508" y="49"/>
      <point x="436" y="-10"/>
      <point x="323" y="-10" type="curve" smooth="yes"/>
      <point x="242" y="-10"/>
      <point x="191" y="26"/>
      <point x="170" y="87" type="curve"/>
      <point x="169" y="87" type="line"/>
      <point x="168" y="78"/>
      <point x="167" y="68"/>
      <point x="165" y="57" type="curve" smooth="yes"/>
      <point x="164" y="46"/>
      <point x="147" y="-42"/>
      <point x="115" y="-208" type="curve"/>
      <point x="-22" y="-208" type="line"/>
      <point x="128" y="577" type="line" smooth="yes"/>
      <point x="147" y="677"/>
      <point x="204" y="725"/>
      <point x="313" y="725" type="curve" smooth="yes"/>
      <point x="338" y="725"/>
      <point x="367" y="722"/>
      <point x="400" y="715" type="curve"/>
      <point x="380" y="615" type="line"/>
      <point x="358" y="620"/>
      <point x="342" y="623"/>
      <point x="331" y="623" type="curve" smooth="yes"/>
      <point x="292" y="623"/>
      <point x="269" y="600"/>
      <point x="260" y="554" type="curve" smooth="yes"/>
    </contour>
    <contour>
      <point x="355" y="443" type="curve" smooth="yes"/>
      <point x="303" y="443"/>
      <point x="266" y="421"/>
      <point x="239" y="374" type="curve" smooth="yes"/>
      <point x="226" y="351"/>
      <point x="215" y="321"/>
      <point x="207" y="286" type="curve" smooth="yes"/>
      <point x="199" y="251"/>
      <point x="195" y="221"/>
      <point x="195" y="196" type="curve" smooth="yes"/>
      <point x="195" y="127"/>
      <point x="232" y="84"/>
      <point x="293" y="84" type="curve" smooth="yes"/>
      <point x="327" y="84"/>
      <point x="353" y="95"/>
      <point x="372" y="116" type="curve" smooth="yes"/>
      <point x="391" y="137"/>
      <point x="406" y="171"/>
      <point x="417" y="217" type="curve" smooth="yes"/>
      <point x="428" y="263"/>
      <point x="434" y="304"/>
      <point x="434" y="339" type="curve" smooth="yes"/>
      <point x="434" y="408"/>
      <point x="410" y="443"/>
    </contour>
  </outline>
</glyph>
<glyph name="uni01A6" format="1">
  <advance width="667"/>
  <unicode hex="01A6"/>
  <outline>
    <contour>
      <point x="630" y="-161" type="line"/>
      <point x="471" y="-161" type="line"/>
      <point x="319" y="175" type="line"/>
      <point x="196" y="175" type="line"/>
      <point x="162" y="0" type="line"/>
      <point x="18" y="0" type="line"/>
      <point x="150" y="688" type="line"/>
      <point x="289" y="688" type="line"/>
      <point x="273" y="603" type="line"/>
      <point x="409" y="603" type="line" smooth="yes"/>
      <point x="566" y="603"/>
      <point x="655" y="527"/>
      <point x="655" y="406" type="curve" smooth="yes"/>
      <point x="655" y="298"/>
      <point x="579" y="218"/>
      <point x="458" y="199" type="curve"/>
    </contour>
    <contour>
      <point x="218" y="288" type="line"/>
      <point x="366" y="288" type="line" smooth="yes"/>
      <point x="461" y="288"/>
      <point x="509" y="328"/>
      <point x="509" y="397" type="curve" smooth="yes"/>
      <point x="509" y="457"/>
      <point x="466" y="491"/>
      <point x="391" y="491" type="curve" smooth="yes"/>
      <point x="258" y="491" type="line"/>
    </contour>
  </outline>
</glyph>
<glyph name="uni01A7" format="1">
  <advance width="667"/>
  <unicode hex="01A7"/>
  <outline>
    <contour>
      <point x="28" y="168" type="curve" smooth="yes"/>
      <point x="28" y="291"/>
      <point x="93" y="360"/>
      <point x="262" y="396" type="curve" smooth="yes"/>
      <point x="335" y="411" type="line" smooth="yes"/>
      <point x="397" y="424"/>
      <point x="438" y="435"/>
      <point x="459" y="444" type="curve" smooth="yes"/>
      <point x="500" y="463"/>
      <point x="522" y="486"/>
      <point x="522" y="526" type="curve" smooth="yes"/>
      <point x="522" y="573"/>
      <point x="483" y="596"/>
      <point x="406" y="596" type="curve" smooth="yes"/>
      <point x="325" y="596"/>
      <point x="277" y="566"/>
      <point x="250" y="507" type="curve"/>
      <point x="115" y="526" type="line"/>
      <point x="140" y="589"/>
      <point x="177" y="634"/>
      <point x="224" y="659" type="curve" smooth="yes"/>
      <point x="271" y="685"/>
      <point x="337" y="698"/>
      <point x="420" y="698" type="curve" smooth="yes"/>
      <point x="569" y="698"/>
      <point x="664" y="635"/>
      <point x="664" y="532" type="curve" smooth="yes"/>
      <point x="664" y="475"/>
      <point x="648" y="434"/>
      <point x="621" y="403" type="curve" smooth="yes"/>
      <point x="608" y="388"/>
      <point x="593" y="375"/>
      <point x="574" y="364" type="curve" smooth="yes"/>
      <point x="555" y="353"/>
      <point x="534" y="344"/>
      <point x="509" y="335" type="curve" smooth="yes"/>
      <point x="485" y="327"/>
      <point x="447" y="317"/>
      <point x="394" y="305" type="curve" smooth="yes"/>
      <point x="279" y="278"/>
      <point x="172" y="260"/>
      <point x="172" y="181" type="curve" smooth="yes"/>
      <point x="172" y="121"/>
      <point x="217" y="98"/>
      <point x="305" y="98" type="curve" smooth="yes"/>
      <point x="401" y="98"/>
      <point x="461" y="129"/>
      <point x="494" y="202" type="curve"/>
      <point x="635" y="178" type="line"/>
      <point x="582" y="53"/>
      <point x="467" y="-10"/>
      <point x="289" y="-10" type="curve" smooth="yes"/>
      <point x="124" y="-10"/>
      <point x="28" y="57"/>
    </contour>
  </outline>
</glyph>
<glyph name="uni01A8" format="1">
  <advance width="556"/>
  <unicode hex="01A8"/>
  <outline>
    <contour>
      <point x="17" y="132" type="curve" smooth="yes"/>
      <point x="17" y="168"/>
      <point x="24" y="198"/>
      <point x="39" y="221" type="curve" smooth="yes"/>
      <point x="54" y="244"/>
      <point x="76" y="264"/>
      <point x="105" y="279" type="curve" smooth="yes"/>
      <point x="134" y="294"/>
      <point x="182" y="309"/>
      <point x="249" y="322" type="curve" smooth="yes"/>
      <point x="310" y="333" type="line" smooth="yes"/>
      <point x="373" y="346"/>
      <point x="401" y="363"/>
      <point x="401" y="395" type="curve" smooth="yes"/>
      <point x="401" y="435"/>
      <point x="370" y="447"/>
      <point x="313" y="447" type="curve" smooth="yes"/>
      <point x="246" y="447"/>
      <point x="215" y="427"/>
      <point x="199" y="383" type="curve"/>
      <point x="80" y="396" type="line"/>
      <point x="113" y="491"/>
      <point x="194" y="539"/>
      <point x="327" y="539" type="curve" smooth="yes"/>
      <point x="455" y="539"/>
      <point x="526" y="491"/>
      <point x="526" y="395" type="curve" smooth="yes"/>
      <point x="526" y="363"/>
      <point x="518" y="336"/>
      <point x="502" y="313" type="curve" smooth="yes"/>
      <point x="486" y="291"/>
      <point x="463" y="273"/>
      <point x="432" y="258" type="curve" smooth="yes"/>
      <point x="401" y="243"/>
      <point x="342" y="227"/>
      <point x="255" y="208" type="curve" smooth="yes"/>
      <point x="179" y="191"/>
      <point x="145" y="171"/>
      <point x="145" y="136" type="curve" smooth="yes"/>
      <point x="145" y="99"/>
      <point x="178" y="81"/>
      <point x="243" y="81" type="curve" smooth="yes"/>
      <point x="312" y="81"/>
      <point x="352" y="99"/>
      <point x="379" y="150" type="curve"/>
      <point x="496" y="132" type="line"/>
      <point x="455" y="29"/>
      <point x="382" y="-10"/>
      <point x="234" y="-10" type="curve" smooth="yes"/>
      <point x="98" y="-10"/>
      <point x="17" y="44"/>
    </contour>
  </outline>
</glyph>
<glyph name="uni01A9" format="1">
  <advance width="590"/>
  <unicode hex="01A9"/>
  <outline>
    <contour>
      <point x="502" y="0" type="line"/>
      <point x="-23" y="0" type="line"/>
      <point x="1" y="123" type="line"/>
      <point x="268" y="370" type="line"/>
      <point x="99" y="583" type="line"/>
      <point x="119" y="688" type="line"/>
      <point x="606" y="688" type="line"/>
      <point x="585" y="577" type="line"/>
      <point x="245" y="577" type="line"/>
      <point x="391" y="395" type="line"/>
      <point x="377" y="329" type="line"/>
      <point x="143" y="111" type="line"/>
      <point x="524" y="111" type="line"/>
    </contour>
  </outline>
</glyph>
<glyph name="uni01AA" format="1">
  <advance width="360"/>
  <unicode hex="01AA"/>
  <outline>
    <contour>
      <point x="74" y="615" type="curve" smooth="yes"/>
      <point x="74" y="687"/>
      <point x="124" y="725"/>
      <point x="209" y="725" type="curve" smooth="yes"/>
      <point x="300" y="725"/>
      <point x="349" y="675"/>
      <point x="349" y="594" type="curve" smooth="yes"/>
      <point x="349" y="574"/>
      <point x="347" y="553"/>
      <point x="342" y="532" type="curve" smooth="yes"/>
      <point x="231" y="-33" type="line" smooth="yes"/>
      <point x="230" y="-40"/>
      <point x="229" y="-49"/>
      <point x="229" y="-58" type="curve" smooth="yes"/>
      <point x="229" y="-87"/>
      <point x="245" y="-102"/>
      <point x="276" y="-102" type="curve" smooth="yes"/>
      <point x="288" y="-102"/>
      <point x="321" y="-99"/>
      <point x="333" y="-96" type="curve"/>
      <point x="313" y="-199" type="line"/>
      <point x="290" y="-205"/>
      <point x="259" y="-208"/>
      <point x="222" y="-208" type="curve" smooth="yes"/>
      <point x="132" y="-208"/>
      <point x="87" y="-170"/>
      <point x="87" y="-95" type="curve" smooth="yes"/>
      <point x="87" y="-82"/>
      <point x="89" y="-66"/>
      <point x="93" y="-47" type="curve" smooth="yes"/>
      <point x="206" y="533" type="line"/>
      <point x="193" y="530"/>
      <point x="178" y="528"/>
      <point x="161" y="528" type="curve" smooth="yes"/>
      <point x="112" y="528"/>
      <point x="74" y="562"/>
    </contour>
    <contour>
      <point x="139" y="624" type="curve" smooth="yes"/>
      <point x="139" y="596"/>
      <point x="156" y="579"/>
      <point x="184" y="579" type="curve" smooth="yes"/>
      <point x="211" y="579"/>
      <point x="229" y="596"/>
      <point x="229" y="624" type="curve" smooth="yes"/>
      <point x="229" y="651"/>
      <point x="211" y="668"/>
      <point x="184" y="668" type="curve" smooth="yes"/>
      <point x="156" y="668"/>
      <point x="139" y="651"/>
    </contour>
  </outline>
</glyph>
<glyph name="uni01AB" format="1">
  <advance width="333"/>
  <unicode hex="01AB"/>
  <outline>
    <contour>
      <point x="2" y="-199" type="curve"/>
      <point x="21" y="-101" type="line"/>
      <point x="44" y="-106"/>
      <point x="61" y="-108"/>
      <point x="73" y="-108" type="curve" smooth="yes"/>
      <point x="108" y="-108"/>
      <point x="133" y="-92"/>
      <point x="144" y="-39" type="curve" smooth="yes"/>
      <point x="150" y="-5" type="line"/>
      <point x="91" y="3"/>
      <point x="57" y="39"/>
      <point x="57" y="102" type="curve" smooth="yes"/>
      <point x="57" y="125"/>
      <point x="59" y="151"/>
      <point x="64" y="179" type="curve" smooth="yes"/>
      <point x="114" y="436" type="line"/>
      <point x="42" y="436" type="line"/>
      <point x="60" y="528" type="line"/>
      <point x="139" y="528" type="line"/>
      <point x="206" y="652" type="line"/>
      <point x="292" y="652" type="line"/>
      <point x="269" y="528" type="line"/>
      <point x="367" y="528" type="line"/>
      <point x="350" y="436" type="line"/>
      <point x="250" y="436" type="line"/>
      <point x="199" y="174" type="line" smooth="yes"/>
      <point x="196" y="156"/>
      <point x="194" y="142"/>
      <point x="194" y="131" type="curve" smooth="yes"/>
      <point x="194" y="100"/>
      <point x="211" y="86"/>
      <point x="236" y="86" type="curve" smooth="yes"/>
      <point x="247" y="86"/>
      <point x="264" y="88"/>
      <point x="289" y="93" type="curve"/>
      <point x="261" y="-61" type="line" smooth="yes"/>
      <point x="242" y="-153"/>
      <point x="183" y="-208"/>
      <point x="82" y="-208" type="curve" smooth="yes"/>
      <point x="56" y="-208"/>
      <point x="29" y="-205"/>
    </contour>
  </outline>
</glyph>
<glyph name="uni01B1" format="1">
  <advance width="781"/>
  <unicode hex="01B1"/>
  <outline>
    <contour>
      <point x="340" y="-11" type="curve"/>
      <point x="170" y="-14"/>
      <point x="45" y="96"/>
      <point x="48" y="242" type="curve" smooth="yes"/>
      <point x="48" y="394"/>
      <point x="130" y="501"/>
      <point x="315" y="582" type="curve"/>
      <point x="278" y="578"/>
      <point x="249" y="576"/>
      <point x="229" y="576" type="curve" smooth="yes"/>
      <point x="97" y="576" type="line"/>
      <point x="119" y="688" type="line"/>
      <point x="429" y="688" type="line"/>
      <point x="400" y="537" type="line"/>
      <point x="269" y="478"/>
      <point x="197" y="386"/>
      <point x="197" y="274" type="curve" smooth="yes"/>
      <point x="197" y="162"/>
      <point x="255" y="103"/>
      <point x="360" y="103" type="curve" smooth="yes"/>
      <point x="498" y="103"/>
      <point x="594" y="202"/>
      <point x="594" y="336" type="curve" smooth="yes"/>
      <point x="594" y="431"/>
      <point x="558" y="490"/>
      <point x="474" y="537" type="curve"/>
      <point x="503" y="688" type="line"/>
      <point x="818" y="688" type="line"/>
      <point x="796" y="576" type="line"/>
      <point x="666" y="576" type="line" smooth="yes"/>
      <point x="647" y="576"/>
      <point x="617" y="578"/>
      <point x="576" y="582" type="curve"/>
      <point x="675" y="530"/>
      <point x="733" y="437"/>
      <point x="733" y="332" type="curve" smooth="yes"/>
      <point x="738" y="127"/>
      <point x="568" y="-13"/>
    </contour>
  </outline>
</glyph>
<glyph name="uni01B2" format="1">
  <advance width="722"/>
  <unicode hex="01B2"/>
  <outline>
    <contour>
      <point x="298" y="-10" type="curve" smooth="yes"/>
      <point x="146" y="-10"/>
      <point x="60" y="60"/>
      <point x="60" y="184" type="curve" smooth="yes"/>
      <point x="60" y="207"/>
      <point x="62" y="232"/>
      <point x="67" y="258" type="curve" smooth="yes"/>
      <point x="151" y="688" type="line"/>
      <point x="295" y="688" type="line"/>
      <point x="214" y="269" type="line" smooth="yes"/>
      <point x="210" y="248"/>
      <point x="208" y="229"/>
      <point x="208" y="211" type="curve" smooth="yes"/>
      <point x="208" y="139"/>
      <point x="242" y="103"/>
      <point x="311" y="103" type="curve" smooth="yes"/>
      <point x="390" y="103"/>
      <point x="443" y="139"/>
      <point x="486" y="219" type="curve" smooth="yes"/>
      <point x="508" y="260"/>
      <point x="527" y="312"/>
      <point x="543" y="376" type="curve" smooth="yes"/>
      <point x="559" y="440"/>
      <point x="567" y="485"/>
      <point x="567" y="511" type="curve" smooth="yes"/>
      <point x="567" y="560"/>
      <point x="547" y="586"/>
      <point x="499" y="586" type="curve" smooth="yes"/>
      <point x="484" y="586"/>
      <point x="466" y="584"/>
      <point x="443" y="580" type="curve"/>
      <point x="464" y="688" type="line"/>
      <point x="495" y="694"/>
      <point x="533" y="697"/>
      <point x="579" y="697" type="curve" smooth="yes"/>
      <point x="668" y="697"/>
      <point x="715" y="646"/>
      <point x="715" y="547" type="curve" smooth="yes"/>
      <point x="715" y="500"/>
      <point x="703" y="436"/>
      <point x="679" y="353" type="curve" smooth="yes"/>
      <point x="656" y="271"/>
      <point x="626" y="203"/>
      <point x="590" y="150" type="curve" smooth="yes"/>
      <point x="519" y="45"/>
      <point x="423" y="-10"/>
    </contour>
  </outline>
</glyph>
<glyph name="uni01B4" format="1">
  <advance width="556"/>
  <unicode hex="01B4"/>
  <outline>
    <contour>
      <point x="43" y="-208" type="curve" smooth="yes"/>
      <point x="12" y="-208"/>
      <point x="-17" y="-205"/>
      <point x="-42" y="-199" type="curve"/>
      <point x="-23" y="-103" type="line"/>
      <point x="-10" y="-106"/>
      <point x="5" y="-107"/>
      <point x="20" y="-107" type="curve" smooth="yes"/>
      <point x="37" y="-107"/>
      <point x="52" y="-104"/>
      <point x="66" y="-97" type="curve" smooth="yes"/>
      <point x="80" y="-91"/>
      <point x="93" y="-81"/>
      <point x="105" y="-67" type="curve" smooth="yes"/>
      <point x="118" y="-54"/>
      <point x="135" y="-27"/>
      <point x="158" y="12" type="curve"/>
      <point x="55" y="528" type="line"/>
      <point x="197" y="528" type="line"/>
      <point x="231" y="286" type="line" smooth="yes"/>
      <point x="235" y="264"/>
      <point x="245" y="143"/>
      <point x="249" y="123" type="curve"/>
      <point x="257" y="141" type="line"/>
      <point x="315" y="265" type="line"/>
      <point x="490" y="595" type="line" smooth="yes"/>
      <point x="541" y="694"/>
      <point x="583" y="720"/>
      <point x="666" y="725" type="curve" smooth="yes"/>
      <point x="711" y="725"/>
      <point x="759" y="712"/>
      <point x="792" y="688" type="curve"/>
      <point x="727" y="593" type="line"/>
      <point x="710" y="604"/>
      <point x="693" y="610"/>
      <point x="676" y="610" type="curve" smooth="yes"/>
      <point x="648" y="610"/>
      <point x="630" y="594"/>
      <point x="610" y="559" type="curve" smooth="yes"/>
      <point x="278" y="-28" type="line" smooth="yes"/>
      <point x="243" y="-82"/>
      <point x="215" y="-120"/>
      <point x="193" y="-142" type="curve" smooth="yes"/>
      <point x="149" y="-187"/>
      <point x="103" y="-208"/>
    </contour>
  </outline>
</glyph>
<glyph name="uni01B6" format="1">
  <advance width="500"/>
  <unicode hex="01B6"/>
  <outline>
    <contour>
      <point x="421" y="0" type="line"/>
      <point x="-17" y="0" type="line"/>
      <point x="1" y="97" type="line"/>
      <point x="118" y="218" type="line"/>
      <point x="26" y="218" type="line"/>
      <point x="44" y="314" type="line"/>
      <point x="210" y="314" type="line"/>
      <point x="320" y="429" type="line"/>
      <point x="86" y="429" type="line"/>
      <point x="105" y="528" type="line"/>
      <point x="500" y="528" type="line"/>
      <point x="481" y="430" type="line"/>
      <point x="370" y="314" type="line"/>
      <point x="468" y="314" type="line"/>
      <point x="450" y="218" type="line"/>
      <point x="277" y="218" type="line"/>
      <point x="164" y="100" type="line"/>
      <point x="441" y="100" type="line"/>
    </contour>
  </outline>
</glyph>
<glyph name="uni01B7" format="1">
  <advance width="611"/>
  <unicode hex="01B7"/>
  <outline>
    <contour>
      <point x="213" y="-208" type="curve" smooth="yes"/>
      <point x="77" y="-208"/>
      <point x="-7" y="-151"/>
      <point x="-44" y="-35" type="curve"/>
      <point x="83" y="19" type="line"/>
      <point x="123" y="-77"/>
      <point x="149" y="-90"/>
      <point x="227" y="-95" type="curve" smooth="yes"/>
      <point x="322" y="-100"/>
      <point x="404" y="6"/>
      <point x="402" y="102" type="curve" smooth="yes"/>
      <point x="402" y="207"/>
      <point x="351" y="256"/>
      <point x="231" y="256" type="curve" smooth="yes"/>
      <point x="169" y="256" type="line"/>
      <point x="190" y="369" type="line"/>
      <point x="430" y="575" type="line"/>
      <point x="98" y="575" type="line"/>
      <point x="120" y="688" type="line"/>
      <point x="632" y="688" type="line"/>
      <point x="613" y="588" type="line"/>
      <point x="345" y="360" type="line"/>
      <point x="476" y="345"/>
      <point x="547" y="267"/>
      <point x="547" y="140" type="curve" smooth="yes"/>
      <point x="550" y="-67"/>
      <point x="406" y="-212"/>
    </contour>
  </outline>
</glyph>
<glyph name="uni01B8" format="1">
  <advance width="611"/>
  <unicode hex="01B8"/>
  <outline>
    <contour>
      <point x="253" y="-208" type="curve" smooth="yes"/>
      <point x="174" y="-208"/>
      <point x="112" y="-185"/>
      <point x="66" y="-140" type="curve" smooth="yes"/>
      <point x="20" y="-95"/>
      <point x="-3" y="-33"/>
      <point x="-3" y="45" type="curve" smooth="yes"/>
      <point x="-6" y="216"/>
      <point x="127" y="350"/>
      <point x="309" y="360" type="curve"/>
      <point x="124" y="588" type="line"/>
      <point x="144" y="688" type="line"/>
      <point x="656" y="688" type="line"/>
      <point x="634" y="575" type="line"/>
      <point x="301" y="575" type="line"/>
      <point x="460" y="369" type="line"/>
      <point x="439" y="256" type="line"/>
      <point x="376" y="256" type="line" smooth="yes"/>
      <point x="227" y="256"/>
      <point x="140" y="180"/>
      <point x="140" y="45" type="curve" smooth="yes"/>
      <point x="140" y="-46"/>
      <point x="185" y="-95"/>
      <point x="270" y="-95" type="curve" smooth="yes"/>
      <point x="340" y="-95"/>
      <point x="396" y="-55"/>
      <point x="439" y="24" type="curve"/>
      <point x="553" y="-31" type="line"/>
      <point x="482" y="-155"/>
      <point x="390" y="-208"/>
    </contour>
  </outline>
</glyph>
<glyph name="uni01B9" format="1">
  <advance width="526"/>
  <unicode hex="01B9"/>
  <outline>
    <contour>
      <point x="220" y="-114" type="curve" smooth="yes"/>
      <point x="292" y="-114"/>
      <point x="335" y="-80"/>
      <point x="350" y="-16" type="curve"/>
      <point x="481" y="-22" type="line"/>
      <point x="452" y="-141"/>
      <point x="354" y="-208"/>
      <point x="214" y="-208" type="curve" smooth="yes"/>
      <point x="70" y="-208"/>
      <point x="-21" y="-125"/>
      <point x="-21" y="-1" type="curve" smooth="yes"/>
      <point x="-21" y="144"/>
      <point x="67" y="233"/>
      <point x="235" y="254" type="curve"/>
      <point x="93" y="433" type="line"/>
      <point x="112" y="528" type="line"/>
      <point x="552" y="528" type="line"/>
      <point x="533" y="429" type="line"/>
      <point x="257" y="429" type="line"/>
      <point x="387" y="259" type="line"/>
      <point x="369" y="167" type="line"/>
      <point x="319" y="167" type="line" smooth="yes"/>
      <point x="175" y="167"/>
      <point x="118" y="115"/>
      <point x="118" y="7" type="curve" smooth="yes"/>
      <point x="118" y="-66"/>
      <point x="156" y="-114"/>
    </contour>
  </outline>
</glyph>
<glyph name="uni01BC" format="1">
  <advance width="556"/>
  <unicode hex="01BC"/>
  <outline>
    <contour>
      <point x="82" y="577" type="line"/>
      <point x="103" y="688" type="line"/>
      <point x="582" y="688" type="line"/>
      <point x="561" y="577" type="line"/>
      <point x="304" y="577" type="line"/>
      <point x="279" y="460" type="line"/>
      <point x="435" y="460"/>
      <point x="513" y="395"/>
      <point x="513" y="271" type="curve" smooth="yes"/>
      <point x="513" y="186"/>
      <point x="487" y="117"/>
      <point x="436" y="66" type="curve" smooth="yes"/>
      <point x="385" y="15"/>
      <point x="316" y="-10"/>
      <point x="228" y="-10" type="curve" smooth="yes"/>
      <point x="100" y="-10"/>
      <point x="21" y="50"/>
      <point x="2" y="154" type="curve"/>
      <point x="139" y="184" type="line"/>
      <point x="144" y="129"/>
      <point x="181" y="99"/>
      <point x="241" y="99" type="curve" smooth="yes"/>
      <point x="318" y="99"/>
      <point x="368" y="152"/>
      <point x="368" y="236" type="curve" smooth="yes"/>
      <point x="368" y="281"/>
      <point x="356" y="311"/>
      <point x="332" y="328" type="curve" smooth="yes"/>
      <point x="308" y="345"/>
      <point x="265" y="354"/>
      <point x="202" y="354" type="curve" smooth="yes"/>
      <point x="122" y="354" type="line"/>
      <point x="169" y="577" type="line"/>
    </contour>
  </outline>
</glyph>
<glyph name="uni01C3" format="1">
  <advance width="333"/>
  <unicode hex="01C3"/>
  <outline>
    <contour>
      <point x="316" y="688" type="line"/>
      <point x="207" y="208" type="line"/>
      <point x="94" y="208" type="line"/>
      <point x="172" y="688" type="line"/>
    </contour>
    <contour>
      <point x="179" y="0" type="line"/>
      <point x="39" y="0" type="line"/>
      <point x="64" y="132" type="line"/>
      <point x="205" y="132" type="line"/>
    </contour>
  </outline>
</glyph>
<glyph name="uni01C5" format="1">
  <advance width="1222"/>
  <unicode hex="01C5"/>
  <outline>
    <contour>
      <point x="151" y="688" type="line"/>
      <point x="358" y="688" type="line" smooth="yes"/>
      <point x="575" y="688"/>
      <point x="694" y="585"/>
      <point x="694" y="394" type="curve" smooth="yes"/>
      <point x="694" y="317"/>
      <point x="678" y="249"/>
      <point x="645" y="190" type="curve" smooth="yes"/>
      <point x="581" y="73"/>
      <point x="452" y="0"/>
      <point x="300" y="0" type="curve" smooth="yes"/>
      <point x="18" y="0" type="line"/>
    </contour>
    <contour>
      <point x="273" y="577" type="line"/>
      <point x="183" y="111" type="line"/>
      <point x="295" y="111" type="line" smooth="yes"/>
      <point x="454" y="111"/>
      <point x="559" y="218"/>
      <point x="559" y="388" type="curve" smooth="yes"/>
      <point x="559" y="511"/>
      <point x="488" y="577"/>
      <point x="359" y="577" type="curve" smooth="yes"/>
    </contour>
    <contour>
      <point x="1128" y="0" type="line"/>
      <point x="709" y="0" type="line"/>
      <point x="728" y="97" type="line"/>
      <point x="1027" y="429" type="line"/>
      <point x="812" y="429" type="line"/>
      <point x="832" y="528" type="line"/>
      <point x="1207" y="528" type="line"/>
      <point x="1188" y="430" type="line"/>
      <point x="890" y="100" type="line"/>
      <point x="1147" y="100" type="line"/>
    </contour>
    <contour>
      <point x="1236" y="732" type="line"/>
      <point x="1084" y="578" type="line"/>
      <point x="972" y="578" type="line"/>
      <point x="876" y="732" type="line"/>
      <point x="879" y="747" type="line"/>
      <point x="952" y="747" type="line"/>
      <point x="1037" y="652" type="line"/>
      <point x="1039" y="652" type="line"/>
      <point x="1156" y="747" type="line"/>
      <point x="1239" y="747" type="line"/>
    </contour>
  </outline>
</glyph>
<glyph name="uni01C9" format="1">
  <advance width="556"/>
  <unicode hex="01C9"/>
  <outline>
    <contour>
      <point x="154" y="0" type="line"/>
      <point x="17" y="0" type="line"/>
      <point x="158" y="725" type="line"/>
      <point x="295" y="725" type="line"/>
    </contour>
    <contour>
      <point x="553" y="624" type="line"/>
      <point x="416" y="624" type="line"/>
      <point x="436" y="725" type="line"/>
      <point x="573" y="725" type="line"/>
    </contour>
    <contour>
      <point x="251" y="-208" type="curve" smooth="yes"/>
      <point x="220" y="-208"/>
      <point x="193" y="-205"/>
      <point x="170" y="-198" type="curve"/>
      <point x="188" y="-106" type="line"/>
      <point x="216" y="-108" type="line" smooth="yes"/>
      <point x="260" y="-108"/>
      <point x="277" y="-90"/>
      <point x="289" y="-29" type="curve" smooth="yes"/>
      <point x="397" y="528" type="line"/>
      <point x="535" y="528" type="line"/>
      <point x="419" y="-63" type="line" smooth="yes"/>
      <point x="400" y="-156"/>
      <point x="343" y="-208"/>
    </contour>
  </outline>
</glyph>
<glyph name="uni01CA" format="1">
  <advance width="1278"/>
  <unicode hex="01CA"/>
  <outline>
    <contour>
      <point x="605" y="0" type="line"/>
      <point x="432" y="0" type="line"/>
      <point x="249" y="552" type="line"/>
      <point x="242" y="499"/>
      <point x="235" y="461"/>
      <point x="230" y="436" type="curve" smooth="yes"/>
      <point x="146" y="0" type="line"/>
      <point x="18" y="0" type="line"/>
      <point x="151" y="688" type="line"/>
      <point x="322" y="688" type="line"/>
      <point x="506" y="131" type="line"/>
      <point x="512" y="171" type="line"/>
      <point x="526" y="256" type="line"/>
      <point x="611" y="688" type="line"/>
      <point x="739" y="688" type="line"/>
    </contour>
    <contour>
      <point x="955" y="-10" type="curve" smooth="yes"/>
      <point x="831" y="-10"/>
      <point x="757" y="50"/>
      <point x="732" y="185" type="curve"/>
      <point x="863" y="213" type="line"/>
      <point x="878" y="140"/>
      <point x="911" y="103"/>
      <point x="964" y="103" type="curve"/>
      <point x="1017" y="108"/>
      <point x="1041" y="126"/>
      <point x="1059" y="215" type="curve" smooth="yes"/>
      <point x="1128" y="575" type="line"/>
      <point x="991" y="575" type="line"/>
      <point x="1013" y="688" type="line"/>
      <point x="1293" y="688" type="line"/>
      <point x="1199" y="207" type="line" smooth="yes"/>
      <point x="1170" y="56"/>
      <point x="1095" y="-10"/>
    </contour>
  </outline>
</glyph>
<glyph name="uni01DF" format="1">
  <advance width="556"/>
  <unicode hex="01DF"/>
  <outline>
    <contour>
      <point x="436" y="-5" type="curve" smooth="yes"/>
      <point x="371" y="-5"/>
      <point x="334" y="25"/>
      <point x="334" y="70" type="curve" smooth="yes"/>
      <point x="334" y="82"/>
      <point x="335" y="92"/>
      <point x="336" y="101" type="curve"/>
      <point x="333" y="101" type="line"/>
      <point x="278" y="17"/>
      <point x="231" y="-10"/>
      <point x="155" y="-10" type="curve" smooth="yes"/>
      <point x="63" y="-10"/>
      <point x="5" y="51"/>
      <point x="5" y="136" type="curve" smooth="yes"/>
      <point x="5" y="256"/>
      <point x="82" y="317"/>
      <point x="269" y="321" type="curve" smooth="yes"/>
      <point x="362" y="322" type="line"/>
      <point x="369" y="353"/>
      <point x="373" y="375"/>
      <point x="373" y="386" type="curve" smooth="yes"/>
      <point x="373" y="428"/>
      <point x="352" y="449"/>
      <point x="311" y="449" type="curve" smooth="yes"/>
      <point x="250" y="449"/>
      <point x="223" y="424"/>
      <point x="211" y="379" type="curve"/>
      <point x="83" y="395" type="line"/>
      <point x="106" y="488"/>
      <point x="184" y="538"/>
      <point x="313" y="538" type="curve" smooth="yes"/>
      <point x="448" y="538"/>
      <point x="508" y="491"/>
      <point x="508" y="394" type="curve" smooth="yes"/>
      <point x="508" y="382"/>
      <point x="504" y="356"/>
      <point x="497" y="317" type="curve" smooth="yes"/>
      <point x="462" y="145" type="line" smooth="yes"/>
      <point x="459" y="130"/>
      <point x="458" y="119"/>
      <point x="458" y="110" type="curve" smooth="yes"/>
      <point x="458" y="79"/>
      <point x="487" y="78"/>
      <point x="497" y="78" type="curve" smooth="yes"/>
      <point x="506" y="78"/>
      <point x="516" y="79"/>
      <point x="527" y="82" type="curve"/>
      <point x="520" y="6" type="line"/>
      <point x="493" y="-5"/>
      <point x="465" y="-5"/>
    </contour>
    <contour>
      <point x="336" y="201" type="curve" smooth="yes"/>
      <point x="347" y="246" type="line"/>
      <point x="268" y="246" type="line" smooth="yes"/>
      <point x="192" y="245"/>
      <point x="145" y="214"/>
      <point x="145" y="159" type="curve" smooth="yes"/>
      <point x="145" y="114"/>
      <point x="173" y="86"/>
      <point x="216" y="86" type="curve" smooth="yes"/>
      <point x="271" y="86"/>
      <point x="319" y="132"/>
    </contour>
    <contour>
      <point x="488" y="585" type="line"/>
      <point x="382" y="585" type="line"/>
      <point x="403" y="692" type="line"/>
      <point x="509" y="692" type="line"/>
    </contour>
    <contour>
      <point x="275" y="585" type="line"/>
      <point x="171" y="585" type="line"/>
      <point x="191" y="692" type="line"/>
      <point x="296" y="692" type="line"/>
    </contour>
    <contour>
      <point x="508" y="821" type="line"/>
      <point x="490" y="739" type="line"/>
      <point x="204" y="739" type="line"/>
      <point x="220" y="821" type="line"/>
    </contour>
  </outline>
</glyph>
<glyph name="uni01E5" format="1">
  <advance width="611"/>
  <unicode hex="01E5"/>
  <outline>
    <contour>
      <point x="583" y="0" type="line"/>
      <point x="574" y="-45" type="line"/>
      <point x="476" y="-45" type="line"/>
      <point x="439" y="-157"/>
      <point x="358" y="-208"/>
      <point x="210" y="-208" type="curve" smooth="yes"/>
      <point x="95" y="-208"/>
      <point x="28" y="-173"/>
      <point x="3" y="-97" type="curve"/>
      <point x="140" y="-72" type="line"/>
      <point x="153" y="-102"/>
      <point x="182" y="-117"/>
      <point x="227" y="-117" type="curve" smooth="yes"/>
      <point x="283" y="-117"/>
      <point x="317" y="-94"/>
      <point x="338" y="-45" type="curve"/>
      <point x="-1" y="-45" type="line"/>
      <point x="8" y="0" type="line"/>
      <point x="353" y="0" type="line"/>
      <point x="356" y="10"/>
      <point x="365" y="55"/>
      <point x="380" y="136" type="curve"/>
      <point x="379" y="136" type="line"/>
      <point x="324" y="56"/>
      <point x="285" y="38"/>
      <point x="206" y="34" type="curve"/>
      <point x="105" y="34"/>
      <point x="40" y="105"/>
      <point x="40" y="212" type="curve" smooth="yes"/>
      <point x="40" y="310"/>
      <point x="62" y="389"/>
      <point x="106" y="448" type="curve" smooth="yes"/>
      <point x="150" y="508"/>
      <point x="210" y="538"/>
      <point x="286" y="538" type="curve" smooth="yes"/>
      <point x="363" y="538"/>
      <point x="421" y="499"/>
      <point x="440" y="436" type="curve"/>
      <point x="441" y="436" type="line"/>
      <point x="443" y="447"/>
      <point x="447" y="464"/>
      <point x="453" y="488" type="curve" smooth="yes"/>
      <point x="459" y="512"/>
      <point x="463" y="525"/>
      <point x="464" y="528" type="curve" smooth="yes"/>
      <point x="594" y="528" type="line"/>
      <point x="590" y="513" type="line"/>
      <point x="570" y="417" type="line"/>
      <point x="488" y="0" type="line"/>
    </contour>
    <contour>
      <point x="413" y="335" type="curve" smooth="yes"/>
      <point x="413" y="403"/>
      <point x="377" y="444"/>
      <point x="316" y="444" type="curve" smooth="yes"/>
      <point x="229" y="444"/>
      <point x="184" y="368"/>
      <point x="184" y="231" type="curve" smooth="yes"/>
      <point x="184" y="166"/>
      <point x="212" y="134"/>
      <point x="268" y="134" type="curve" smooth="yes"/>
      <point x="372" y="129"/>
      <point x="410" y="216"/>
    </contour>
  </outline>
</glyph>
<glyph name="uni01E9" format="1">
  <advance width="556"/>
  <unicode hex="01E9"/>
  <outline>
    <contour>
      <point x="501" y="0" type="line"/>
      <point x="355" y="0" type="line"/>
      <point x="264" y="243" type="line"/>
      <point x="195" y="206" type="line"/>
      <point x="154" y="0" type="line"/>
      <point x="17" y="0" type="line"/>
      <point x="158" y="725" type="line"/>
      <point x="295" y="725" type="line"/>
      <point x="213" y="310" type="line"/>
      <point x="440" y="528" type="line"/>
      <point x="598" y="528" type="line"/>
      <point x="367" y="322" type="line"/>
    </contour>
    <contour>
      <point x="604" y="882" type="line"/>
      <point x="456" y="747" type="line"/>
      <point x="344" y="747" type="line"/>
      <point x="245" y="882" type="line"/>
      <point x="247" y="896" type="line"/>
      <point x="320" y="896" type="line"/>
      <point x="409" y="822" type="line"/>
      <point x="411" y="822" type="line"/>
      <point x="524" y="896" type="line"/>
      <point x="607" y="896" type="line"/>
    </contour>
  </outline>
</glyph>
<glyph name="uni01EC" format="1">
  <advance width="778"/>
  <unicode hex="01EC"/>
  <outline>
    <contour>
      <point x="453" y="698" type="curve" smooth="yes"/>
      <point x="548" y="698"/>
      <point x="623" y="673"/>
      <point x="678" y="622" type="curve" smooth="yes"/>
      <point x="733" y="571"/>
      <point x="761" y="503"/>
      <point x="761" y="416" type="curve" smooth="yes"/>
      <point x="761" y="335"/>
      <point x="744" y="262"/>
      <point x="709" y="195" type="curve" smooth="yes"/>
      <point x="641" y="63"/>
      <point x="514" y="-10"/>
      <point x="355" y="-10" type="curve" smooth="yes"/>
      <point x="165" y="-10"/>
      <point x="49" y="103"/>
      <point x="49" y="280" type="curve" smooth="yes"/>
      <point x="49" y="357"/>
      <point x="66" y="428"/>
      <point x="100" y="494" type="curve" smooth="yes"/>
      <point x="169" y="626"/>
      <point x="294" y="698"/>
    </contour>
    <contour>
      <point x="446" y="584" type="curve" smooth="yes"/>
      <point x="393" y="584"/>
      <point x="348" y="572"/>
      <point x="311" y="547" type="curve" smooth="yes"/>
      <point x="274" y="523"/>
      <point x="246" y="486"/>
      <point x="225" y="437" type="curve" smooth="yes"/>
      <point x="205" y="388"/>
      <point x="195" y="337"/>
      <point x="195" y="284" type="curve" smooth="yes"/>
      <point x="195" y="164"/>
      <point x="257" y="104"/>
      <point x="362" y="104" type="curve" smooth="yes"/>
      <point x="414" y="104"/>
      <point x="459" y="116"/>
      <point x="496" y="140" type="curve" smooth="yes"/>
      <point x="533" y="165"/>
      <point x="562" y="201"/>
      <point x="582" y="249" type="curve" smooth="yes"/>
      <point x="603" y="297"/>
      <point x="613" y="349"/>
      <point x="613" y="404" type="curve" smooth="yes"/>
      <point x="613" y="519"/>
      <point x="554" y="584"/>
    </contour>
    <contour>
      <point x="398" y="-208" type="curve" smooth="yes"/>
      <point x="339" y="-208"/>
      <point x="301" y="-175"/>
      <point x="301" y="-120" type="curve" smooth="yes"/>
      <point x="301" y="-72"/>
      <point x="330" y="-28"/>
      <point x="389" y="5" type="curve"/>
      <point x="469" y="5" type="line"/>
      <point x="429" y="-20"/>
      <point x="397" y="-67"/>
      <point x="397" y="-103" type="curve" smooth="yes"/>
      <point x="397" y="-128"/>
      <point x="413" y="-140"/>
      <point x="436" y="-140" type="curve" smooth="yes"/>
      <point x="452" y="-140"/>
      <point x="469" y="-136"/>
      <point x="486" y="-129" type="curve"/>
      <point x="477" y="-191" type="line"/>
      <point x="451" y="-202"/>
      <point x="425" y="-208"/>
    </contour>
    <contour>
      <point x="620" y="841" type="line"/>
      <point x="602" y="759" type="line"/>
      <point x="316" y="759" type="line"/>
      <point x="332" y="841" type="line"/>
    </contour>
  </outline>
</glyph>
<glyph name="uni01EE" format="1">
  <advance width="611"/>
  <unicode hex="01EE"/>
  <outline>
    <contour>
      <point x="213" y="-208" type="curve" smooth="yes"/>
      <point x="77" y="-208"/>
      <point x="-7" y="-151"/>
      <point x="-44" y="-35" type="curve"/>
      <point x="83" y="19" type="line"/>
      <point x="123" y="-77"/>
      <point x="149" y="-90"/>
      <point x="227" y="-95" type="curve" smooth="yes"/>
      <point x="322" y="-100"/>
      <point x="404" y="6"/>
      <point x="402" y="102" type="curve" smooth="yes"/>
      <point x="402" y="207"/>
      <point x="351" y="256"/>
      <point x="231" y="256" type="curve" smooth="yes"/>
      <point x="169" y="256" type="line"/>
      <point x="190" y="369" type="line"/>
      <point x="430" y="575" type="line"/>
      <point x="98" y="575" type="line"/>
      <point x="120" y="688" type="line"/>
      <point x="632" y="688" type="line"/>
      <point x="613" y="588" type="line"/>
      <point x="345" y="360" type="line"/>
      <point x="476" y="345"/>
      <point x="547" y="267"/>
      <point x="547" y="140" type="curve" smooth="yes"/>
      <point x="550" y="-67"/>
      <point x="406" y="-212"/>
    </contour>
    <contour>
      <point x="584" y="882" type="line"/>
      <point x="437" y="747" type="line"/>
      <point x="325" y="747" type="line"/>
      <point x="225" y="882" type="line"/>
      <point x="228" y="896" type="line"/>
      <point x="301" y="896" type="line"/>
      <point x="390" y="822" type="line"/>
      <point x="392" y="822" type="line"/>
      <point x="505" y="896" type="line"/>
      <point x="587" y="896" type="line"/>
    </contour>
  </outline>
</glyph>
<glyph name="uni01F0" format="1">
  <advance width="278"/>
  <unicode hex="01F0"/>
  <outline>
    <contour>
      <point x="-26" y="-208" type="curve" smooth="yes"/>
      <point x="-57" y="-208"/>
      <point x="-84" y="-205"/>
      <point x="-107" y="-198" type="curve"/>
      <point x="-90" y="-106" type="line"/>
      <point x="-62" y="-108" type="line" smooth="yes"/>
      <point x="-18" y="-108"/>
      <point x="-1" y="-90"/>
      <point x="11" y="-29" type="curve" smooth="yes"/>
      <point x="120" y="528" type="line"/>
      <point x="257" y="528" type="line"/>
      <point x="142" y="-63" type="line" smooth="yes"/>
      <point x="122" y="-156"/>
      <point x="65" y="-208"/>
    </contour>
    <contour>
      <point x="403" y="732" type="line"/>
      <point x="251" y="578" type="line"/>
      <point x="139" y="578" type="line"/>
      <point x="43" y="732" type="line"/>
      <point x="46" y="747" type="line"/>
      <point x="119" y="747" type="line"/>
      <point x="204" y="652" type="line"/>
      <point x="206" y="652" type="line"/>
      <point x="323" y="747" type="line"/>
      <point x="406" y="747" type="line"/>
    </contour>
  </outline>
</glyph>
<glyph name="uni01F6" format="1">
  <advance width="1035"/>
  <unicode hex="01F6"/>
  <outline>
    <contour>
      <point x="644" y="170" type="curve" smooth="yes"/>
      <point x="644" y="119"/>
      <point x="670" y="93"/>
      <point x="721" y="93" type="curve" smooth="yes"/>
      <point x="785" y="93"/>
      <point x="818" y="128"/>
      <point x="835" y="219" type="curve" smooth="yes"/>
      <point x="895" y="528" type="line"/>
      <point x="1032" y="528" type="line"/>
      <point x="972" y="223" type="line" smooth="yes"/>
      <point x="940" y="60"/>
      <point x="865" y="-10"/>
      <point x="718" y="-10" type="curve" smooth="yes"/>
      <point x="577" y="-10"/>
      <point x="502" y="46"/>
      <point x="502" y="157" type="curve" smooth="yes"/>
      <point x="502" y="166"/>
      <point x="503" y="178"/>
      <point x="504" y="191" type="curve" smooth="yes"/>
      <point x="524" y="295" type="line"/>
      <point x="219" y="295" type="line"/>
      <point x="161" y="0" type="line"/>
      <point x="18" y="0" type="line"/>
      <point x="151" y="688" type="line"/>
      <point x="295" y="688" type="line"/>
      <point x="242" y="414" type="line"/>
      <point x="547" y="414" type="line"/>
      <point x="601" y="688" type="line"/>
      <point x="739" y="688" type="line"/>
      <point x="649" y="219" type="line" smooth="yes"/>
      <point x="646" y="200"/>
      <point x="644" y="183"/>
    </contour>
  </outline>
</glyph>
<glyph name="uni01F8" format="1">
  <advance width="722"/>
  <unicode hex="01F8"/>
  <outline>
    <contour>
      <point x="605" y="0" type="line"/>
      <point x="432" y="0" type="line"/>
      <point x="249" y="552" type="line"/>
      <point x="242" y="499"/>
      <point x="235" y="461"/>
      <point x="230" y="436" type="curve" smooth="yes"/>
      <point x="146" y="0" type="line"/>
      <point x="18" y="0" type="line"/>
      <point x="151" y="688" type="line"/>
      <point x="322" y="688" type="line"/>
      <point x="506" y="131" type="line"/>
      <point x="512" y="171" type="line"/>
      <point x="526" y="256" type="line"/>
      <point x="611" y="688" type="line"/>
      <point x="739" y="688" type="line"/>
    </contour>
    <contour>
      <point x="527" y="747" type="line"/>
      <point x="459" y="747" type="line"/>
      <point x="311" y="862" type="line"/>
      <point x="315" y="883" type="line"/>
      <point x="432" y="883" type="line"/>
      <point x="531" y="762" type="line"/>
    </contour>
  </outline>
</glyph>
<glyph name="uni01F9" format="1">
  <advance width="611"/>
  <unicode hex="01F9"/>
  <outline>
    <contour>
      <point x="497" y="0" type="line"/>
      <point x="360" y="0" type="line"/>
      <point x="418" y="291" type="line" smooth="yes"/>
      <point x="427" y="331"/>
      <point x="431" y="358"/>
      <point x="431" y="371" type="curve" smooth="yes"/>
      <point x="431" y="413"/>
      <point x="406" y="434"/>
      <point x="356" y="434" type="curve" smooth="yes"/>
      <point x="323" y="434"/>
      <point x="293" y="421"/>
      <point x="265" y="394" type="curve" smooth="yes"/>
      <point x="237" y="367"/>
      <point x="219" y="335"/>
      <point x="212" y="296" type="curve" smooth="yes"/>
      <point x="155" y="0" type="line"/>
      <point x="17" y="0" type="line"/>
      <point x="98" y="416" type="line" smooth="yes"/>
      <point x="103" y="441"/>
      <point x="110" y="479"/>
      <point x="117" y="528" type="curve"/>
      <point x="248" y="528" type="line" smooth="yes"/>
      <point x="248" y="525"/>
      <point x="246" y="512"/>
      <point x="243" y="487" type="curve" smooth="yes"/>
      <point x="236" y="438" type="line"/>
      <point x="237" y="438" type="line"/>
      <point x="286" y="506"/>
      <point x="343" y="538"/>
      <point x="419" y="538" type="curve" smooth="yes"/>
      <point x="519" y="538"/>
      <point x="569" y="488"/>
      <point x="569" y="399" type="curve" smooth="yes"/>
      <point x="569" y="391"/>
      <point x="568" y="378"/>
      <point x="565" y="360" type="curve" smooth="yes"/>
      <point x="563" y="342"/>
      <point x="561" y="328"/>
      <point x="559" y="319" type="curve" smooth="yes"/>
    </contour>
    <contour>
      <point x="461" y="578" type="line"/>
      <point x="389" y="578" type="line"/>
      <point x="239" y="712" type="line"/>
      <point x="243" y="733" type="line"/>
      <point x="369" y="733" type="line"/>
      <point x="464" y="593" type="line"/>
    </contour>
  </outline>
</glyph>
<glyph name="Aringacute" format="1">
  <advance width="722"/>
  <unicode hex="01FA"/>
  <outline>
    <contour>
      <point x="650" y="0" type="line"/>
      <point x="507" y="0" type="line"/>
      <point x="480" y="176" type="line"/>
      <point x="218" y="176" type="line"/>
      <point x="123" y="0" type="line"/>
      <point x="-21" y="0" type="line"/>
      <point x="364" y="688" type="line"/>
      <point x="534" y="688" type="line"/>
    </contour>
    <contour>
      <point x="428" y="582" type="curve"/>
      <point x="421" y="561"/>
      <point x="405" y="527"/>
      <point x="380" y="479" type="curve" smooth="yes"/>
      <point x="276" y="284" type="line"/>
      <point x="469" y="284" type="line"/>
      <point x="437" y="505" type="line" smooth="yes"/>
      <point x="431" y="549"/>
      <point x="428" y="575"/>
    </contour>
    <contour>
      <point x="577" y="750" type="curve" smooth="yes"/>
      <point x="577" y="716"/>
      <point x="565" y="687"/>
      <point x="541" y="662" type="curve" smooth="yes"/>
      <point x="517" y="638"/>
      <point x="488" y="626"/>
      <point x="453" y="626" type="curve" smooth="yes"/>
      <point x="418" y="626"/>
      <point x="388" y="638"/>
      <point x="364" y="662" type="curve" smooth="yes"/>
      <point x="341" y="687"/>
      <point x="329" y="716"/>
      <point x="329" y="750" type="curve" smooth="yes"/>
      <point x="329" y="785"/>
      <point x="341" y="814"/>
      <point x="365" y="838" type="curve" smooth="yes"/>
      <point x="389" y="863"/>
      <point x="418" y="875"/>
      <point x="453" y="875" type="curve" smooth="yes"/>
      <point x="487" y="875"/>
      <point x="516" y="863"/>
      <point x="540" y="838" type="curve" smooth="yes"/>
      <point x="565" y="814"/>
      <point x="577" y="785"/>
    </contour>
    <contour>
      <point x="515" y="750" type="curve" smooth="yes"/>
      <point x="515" y="783"/>
      <point x="488" y="812"/>
      <point x="453" y="812" type="curve" smooth="yes"/>
      <point x="420" y="812"/>
      <point x="392" y="785"/>
      <point x="392" y="750" type="curve" smooth="yes"/>
      <point x="392" y="714"/>
      <point x="420" y="688"/>
      <point x="453" y="688" type="curve" smooth="yes"/>
      <point x="488" y="688"/>
      <point x="515" y="715"/>
    </contour>
    <contour>
      <point x="491" y="894" type="line"/>
      <point x="418" y="894" type="line"/>
      <point x="421" y="909" type="line"/>
      <point x="553" y="1030" type="line"/>
      <point x="684" y="1030" type="line"/>
      <point x="679" y="1009" type="line"/>
    </contour>
  </outline>
</glyph>
<glyph name="uni0202" format="1">
  <advance width="722"/>
  <unicode hex="0202"/>
  <outline>
    <contour>
      <point x="650" y="0" type="line"/>
      <point x="507" y="0" type="line"/>
      <point x="480" y="176" type="line"/>
      <point x="218" y="176" type="line"/>
      <point x="123" y="0" type="line"/>
      <point x="-21" y="0" type="line"/>
      <point x="364" y="688" type="line"/>
      <point x="534" y="688" type="line"/>
    </contour>
    <contour>
      <point x="428" y="582" type="curve"/>
      <point x="421" y="561"/>
      <point x="405" y="527"/>
      <point x="380" y="479" type="curve" smooth="yes"/>
      <point x="276" y="284" type="line"/>
      <point x="469" y="284" type="line"/>
      <point x="437" y="505" type="line" smooth="yes"/>
      <point x="431" y="549"/>
      <point x="428" y="575"/>
    </contour>
    <contour>
      <point x="475" y="892" type="curve" smooth="yes"/>
      <point x="568" y="892"/>
      <point x="628" y="837"/>
      <point x="628" y="757" type="curve"/>
      <point x="627" y="739" type="line"/>
      <point x="547" y="739" type="line"/>
      <point x="547" y="786"/>
      <point x="516" y="815"/>
      <point x="467" y="815" type="curve" smooth="yes"/>
      <point x="414" y="815"/>
      <point x="377" y="788"/>
      <point x="361" y="739" type="curve"/>
      <point x="281" y="739" type="line"/>
      <point x="309" y="843"/>
      <point x="370" y="892"/>
    </contour>
  </outline>
</glyph>
<glyph name="uni0204" format="1">
  <advance width="667"/>
  <unicode hex="0204"/>
  <outline>
    <contour>
      <point x="578" y="0" type="line"/>
      <point x="18" y="0" type="line"/>
      <point x="151" y="688" type="line"/>
      <point x="692" y="688" type="line"/>
      <point x="670" y="577" type="line"/>
      <point x="273" y="577" type="line"/>
      <point x="240" y="404" type="line"/>
      <point x="607" y="404" type="line"/>
      <point x="585" y="292" type="line"/>
      <point x="218" y="292" type="line"/>
      <point x="183" y="111" type="line"/>
      <point x="600" y="111" type="line"/>
    </contour>
    <contour>
      <point x="587" y="741" type="line"/>
      <point x="516" y="741" type="line"/>
      <point x="366" y="875" type="line"/>
      <point x="370" y="896" type="line"/>
      <point x="495" y="896" type="line"/>
      <point x="591" y="756" type="line"/>
    </contour>
    <contour>
      <point x="390" y="741" type="line"/>
      <point x="318" y="741" type="line"/>
      <point x="168" y="875" type="line"/>
      <point x="172" y="896" type="line"/>
      <point x="297" y="896" type="line"/>
      <point x="394" y="756" type="line"/>
    </contour>
  </outline>
</glyph>
<glyph name="uni0208" format="1">
  <advance width="278"/>
  <unicode hex="0208"/>
  <outline>
    <contour>
      <point x="161" y="0" type="line"/>
      <point x="18" y="0" type="line"/>
      <point x="151" y="688" type="line"/>
      <point x="295" y="688" type="line"/>
    </contour>
    <contour>
      <point x="387" y="741" type="line"/>
      <point x="315" y="741" type="line"/>
      <point x="166" y="875" type="line"/>
      <point x="170" y="896" type="line"/>
      <point x="295" y="896" type="line"/>
      <point x="391" y="756" type="line"/>
    </contour>
    <contour>
      <point x="189" y="741" type="line"/>
      <point x="118" y="741" type="line"/>
      <point x="-32" y="875" type="line"/>
      <point x="-28" y="896" type="line"/>
      <point x="97" y="896" type="line"/>
      <point x="193" y="756" type="line"/>
    </contour>
  </outline>
</glyph>
<glyph name="uni020A" format="1">
  <advance width="278"/>
  <unicode hex="020A"/>
  <outline>
    <contour>
      <point x="161" y="0" type="line"/>
      <point x="18" y="0" type="line"/>
      <point x="151" y="688" type="line"/>
      <point x="295" y="688" type="line"/>
    </contour>
    <contour>
      <point x="259" y="907" type="curve" smooth="yes"/>
      <point x="352" y="907"/>
      <point x="412" y="853"/>
      <point x="412" y="773" type="curve"/>
      <point x="411" y="754" type="line"/>
      <point x="332" y="754" type="line"/>
      <point x="332" y="802"/>
      <point x="300" y="831"/>
      <point x="251" y="831" type="curve" smooth="yes"/>
      <point x="198" y="831"/>
      <point x="161" y="805"/>
      <point x="146" y="754" type="curve"/>
      <point x="65" y="754" type="line"/>
      <point x="93" y="859"/>
      <point x="155" y="907"/>
    </contour>
  </outline>
</glyph>
<glyph name="uni020B" format="1">
  <advance width="278"/>
  <unicode hex="020B"/>
  <outline>
    <contour>
      <point x="154" y="0" type="line"/>
      <point x="17" y="0" type="line"/>
      <point x="120" y="528" type="line"/>
      <point x="257" y="528" type="line"/>
    </contour>
    <contour>
      <point x="218" y="730" type="curve" smooth="yes"/>
      <point x="311" y="730"/>
      <point x="371" y="676"/>
      <point x="371" y="596" type="curve"/>
      <point x="370" y="578" type="line"/>
      <point x="291" y="578" type="line"/>
      <point x="291" y="625"/>
      <point x="259" y="654"/>
      <point x="210" y="654" type="curve" smooth="yes"/>
      <point x="157" y="654"/>
      <point x="120" y="627"/>
      <point x="104" y="578" type="curve"/>
      <point x="24" y="578" type="line"/>
      <point x="52" y="682"/>
      <point x="114" y="730"/>
    </contour>
  </outline>
</glyph>
<glyph name="uni0211" format="1">
  <advance width="389"/>
  <unicode hex="0211"/>
  <outline>
    <contour>
      <point x="435" y="531" type="curve"/>
      <point x="412" y="417" type="line"/>
      <point x="389" y="422"/>
      <point x="371" y="424"/>
      <point x="356" y="424" type="curve" smooth="yes"/>
      <point x="276" y="424"/>
      <point x="227" y="368"/>
      <point x="204" y="251" type="curve" smooth="yes"/>
      <point x="154" y="0" type="line"/>
      <point x="17" y="0" type="line"/>
      <point x="96" y="405" type="line" smooth="yes"/>
      <point x="103" y="444"/>
      <point x="110" y="485"/>
      <point x="116" y="528" type="curve"/>
      <point x="247" y="528" type="line"/>
      <point x="236" y="444" type="line"/>
      <point x="232" y="420" type="line"/>
      <point x="234" y="420" type="line"/>
      <point x="282" y="508"/>
      <point x="324" y="538"/>
      <point x="384" y="538" type="curve" smooth="yes"/>
      <point x="399" y="538"/>
      <point x="416" y="536"/>
    </contour>
    <contour>
      <point x="460" y="578" type="line"/>
      <point x="389" y="578" type="line"/>
      <point x="239" y="712" type="line"/>
      <point x="243" y="733" type="line"/>
      <point x="368" y="733" type="line"/>
      <point x="464" y="593" type="line"/>
    </contour>
    <contour>
      <point x="263" y="578" type="line"/>
      <point x="191" y="578" type="line"/>
      <point x="41" y="712" type="line"/>
      <point x="45" y="733" type="line"/>
      <point x="170" y="733" type="line"/>
      <point x="267" y="593" type="line"/>
    </contour>
  </outline>
</glyph>
<glyph name="uni021A" format="1">
  <advance width="611"/>
  <unicode hex="021A"/>
  <outline>
    <contour>
      <point x="660" y="577" type="line"/>
      <point x="437" y="577" type="line"/>
      <point x="325" y="0" type="line"/>
      <point x="181" y="0" type="line"/>
      <point x="293" y="577" type="line"/>
      <point x="71" y="577" type="line"/>
      <point x="92" y="688" type="line"/>
      <point x="681" y="688" type="line"/>
    </contour>
    <contour>
      <point x="227" y="-222" type="curve"/>
      <point x="160" y="-222" type="line"/>
      <point x="196" y="-189"/>
      <point x="217" y="-162"/>
      <point x="222" y="-139" type="curve"/>
      <point x="169" y="-139" type="line"/>
      <point x="188" y="-38" type="line"/>
      <point x="308" y="-38" type="line"/>
      <point x="296" y="-100" type="line" smooth="yes"/>
      <point x="288" y="-145"/>
      <point x="270" y="-178"/>
    </contour>
  </outline>
</glyph>
<glyph name="uni021C" format="1">
  <advance width="577"/>
  <unicode hex="021C"/>
  <outline>
    <contour>
      <point x="381" y="201" type="curve" smooth="yes"/>
      <point x="381" y="228"/>
      <point x="377" y="248"/>
      <point x="369" y="263" type="curve"/>
      <point x="316" y="234"/>
      <point x="203" y="196"/>
      <point x="30" y="148" type="curve"/>
      <point x="51" y="262" type="line"/>
      <point x="215" y="310"/>
      <point x="316" y="346"/>
      <point x="363" y="377" type="curve" smooth="yes"/>
      <point x="410" y="408"/>
      <point x="435" y="446"/>
      <point x="435" y="499" type="curve" smooth="yes"/>
      <point x="435" y="552"/>
      <point x="395" y="585"/>
      <point x="330" y="585" type="curve" smooth="yes"/>
      <point x="236" y="584"/>
      <point x="215" y="566"/>
      <point x="184" y="500" type="curve"/>
      <point x="54" y="524" type="line"/>
      <point x="77" y="585"/>
      <point x="109" y="628"/>
      <point x="150" y="656" type="curve" smooth="yes"/>
      <point x="193" y="684"/>
      <point x="244" y="698"/>
      <point x="337" y="698" type="curve" smooth="yes"/>
      <point x="494" y="698"/>
      <point x="587" y="632"/>
      <point x="587" y="524" type="curve"/>
      <point x="582" y="446"/>
      <point x="571" y="414"/>
      <point x="487" y="339" type="curve"/>
      <point x="513" y="306"/>
      <point x="526" y="265"/>
      <point x="526" y="218" type="curve" smooth="yes"/>
      <point x="526" y="110"/>
      <point x="480" y="25"/>
      <point x="396" y="-42" type="curve" smooth="yes"/>
      <point x="313" y="-109"/>
      <point x="185" y="-161"/>
      <point x="-39" y="-208" type="curve"/>
      <point x="-17" y="-90" type="line"/>
      <point x="147" y="-50"/>
      <point x="381" y="0"/>
    </contour>
  </outline>
</glyph>
<glyph name="uni021D" format="1">
  <advance width="520"/>
  <unicode hex="021D"/>
  <outline>
    <contour>
      <point x="374" y="380" type="curve" smooth="yes"/>
      <point x="374" y="424"/>
      <point x="343" y="448"/>
      <point x="290" y="448" type="curve" smooth="yes"/>
      <point x="234" y="448"/>
      <point x="189" y="417"/>
      <point x="166" y="365" type="curve"/>
      <point x="59" y="391" type="line"/>
      <point x="92" y="486"/>
      <point x="182" y="538"/>
      <point x="302" y="538" type="curve" smooth="yes"/>
      <point x="439" y="538"/>
      <point x="509" y="485"/>
      <point x="509" y="385" type="curve" smooth="yes"/>
      <point x="509" y="323"/>
      <point x="477" y="269"/>
      <point x="414" y="222" type="curve"/>
      <point x="439" y="199"/>
      <point x="454" y="155"/>
      <point x="454" y="114" type="curve" smooth="yes"/>
      <point x="447" y="-77"/>
      <point x="302" y="-181"/>
      <point x="-54" y="-210" type="curve"/>
      <point x="-33" y="-104" type="line"/>
      <point x="202" y="-85"/>
      <point x="315" y="-10"/>
      <point x="315" y="110" type="curve" smooth="yes"/>
      <point x="315" y="130"/>
      <point x="311" y="147"/>
      <point x="303" y="162" type="curve"/>
      <point x="244" y="140"/>
      <point x="145" y="117"/>
      <point x="5" y="94" type="curve"/>
      <point x="25" y="198" type="line"/>
      <point x="152" y="220" type="line" smooth="yes"/>
      <point x="184" y="227"/>
      <point x="217" y="236"/>
      <point x="250" y="247" type="curve" smooth="yes"/>
      <point x="347" y="282"/>
      <point x="369" y="307"/>
    </contour>
  </outline>
</glyph>
<glyph name="uni021F" format="1">
  <advance width="611"/>
  <unicode hex="021F"/>
  <outline>
    <contour>
      <point x="157" y="725" type="line"/>
      <point x="293" y="725" type="line"/>
      <point x="255" y="527" type="line"/>
      <point x="236" y="438" type="line"/>
      <point x="237" y="438" type="line"/>
      <point x="286" y="506"/>
      <point x="343" y="538"/>
      <point x="419" y="538" type="curve" smooth="yes"/>
      <point x="519" y="538"/>
      <point x="569" y="488"/>
      <point x="569" y="399" type="curve" smooth="yes"/>
      <point x="569" y="391"/>
      <point x="568" y="378"/>
      <point x="565" y="360" type="curve" smooth="yes"/>
      <point x="563" y="342"/>
      <point x="561" y="328"/>
      <point x="559" y="319" type="curve" smooth="yes"/>
      <point x="497" y="0" type="line"/>
      <point x="360" y="0" type="line"/>
      <point x="418" y="291" type="line" smooth="yes"/>
      <point x="427" y="331"/>
      <point x="431" y="358"/>
      <point x="431" y="371" type="curve" smooth="yes"/>
      <point x="431" y="413"/>
      <point x="406" y="434"/>
      <point x="356" y="434" type="curve" smooth="yes"/>
      <point x="323" y="434"/>
      <point x="293" y="421"/>
      <point x="265" y="394" type="curve" smooth="yes"/>
      <point x="237" y="367"/>
      <point x="219" y="335"/>
      <point x="212" y="296" type="curve" smooth="yes"/>
      <point x="155" y="0" type="line"/>
      <point x="17" y="0" type="line"/>
    </contour>
    <contour>
      <point x="619" y="882" type="line"/>
      <point x="471" y="747" type="line"/>
      <point x="359" y="747" type="line"/>
      <point x="259" y="882" type="line"/>
      <point x="262" y="896" type="line"/>
      <point x="335" y="896" type="line"/>
      <point x="424" y="822" type="line"/>
      <point x="426" y="822" type="line"/>
      <point x="539" y="896" type="line"/>
      <point x="622" y="896" type="line"/>
    </contour>
  </outline>
</glyph>
<glyph name="uni0224" format="1">
  <advance width="611"/>
  <unicode hex="0224"/>
  <outline>
    <contour>
      <point x="-4" y="102" type="line"/>
      <point x="449" y="575" type="line"/>
      <point x="125" y="575" type="line"/>
      <point x="147" y="688" type="line"/>
      <point x="642" y="688" type="line"/>
      <point x="623" y="588" type="line"/>
      <point x="168" y="113" type="line"/>
      <point x="435" y="113" type="line" smooth="yes"/>
      <point x="522" y="113"/>
      <point x="565" y="73"/>
      <point x="565" y="4" type="curve" smooth="yes"/>
      <point x="565" y="-35"/>
      <point x="549" y="-99"/>
      <point x="529" y="-138" type="curve"/>
      <point x="411" y="-119" type="line"/>
      <point x="429" y="-88"/>
      <point x="438" y="-62"/>
      <point x="438" y="-41" type="curve" smooth="yes"/>
      <point x="438" y="-14"/>
      <point x="421" y="0"/>
      <point x="387" y="0" type="curve" smooth="yes"/>
      <point x="-23" y="0" type="line"/>
    </contour>
  </outline>
</glyph>
<glyph name="uni0228" format="1">
  <advance width="667"/>
  <unicode hex="0228"/>
  <outline>
    <contour>
      <point x="241" y="-208" type="curve" smooth="yes"/>
      <point x="225" y="-208"/>
      <point x="208" y="-207"/>
      <point x="189" y="-205" type="curve"/>
      <point x="204" y="-147" type="line"/>
      <point x="217" y="-150"/>
      <point x="231" y="-151"/>
      <point x="244" y="-151" type="curve" smooth="yes"/>
      <point x="296" y="-151"/>
      <point x="319" y="-141"/>
      <point x="319" y="-113" type="curve" smooth="yes"/>
      <point x="319" y="-93"/>
      <point x="301" y="-83"/>
      <point x="266" y="-83" type="curve" smooth="yes"/>
      <point x="253" y="-83" type="line"/>
      <point x="240" y="-83" type="line"/>
      <point x="288" y="0" type="line"/>
      <point x="356" y="0" type="line"/>
      <point x="333" y="-41" type="line"/>
      <point x="378" y="-41"/>
      <point x="410" y="-62"/>
      <point x="410" y="-105" type="curve" smooth="yes"/>
      <point x="410" y="-168"/>
      <point x="357" y="-208"/>
    </contour>
    <contour>
      <point x="578" y="0" type="line"/>
      <point x="18" y="0" type="line"/>
      <point x="151" y="688" type="line"/>
      <point x="692" y="688" type="line"/>
      <point x="670" y="577" type="line"/>
      <point x="273" y="577" type="line"/>
      <point x="240" y="404" type="line"/>
      <point x="607" y="404" type="line"/>
      <point x="585" y="292" type="line"/>
      <point x="218" y="292" type="line"/>
      <point x="183" y="111" type="line"/>
      <point x="600" y="111" type="line"/>
    </contour>
  </outline>
</glyph>
<glyph name="uni0229" format="1">
  <advance width="556"/>
  <unicode hex="0229"/>
  <outline>
    <contour>
      <point x="173" y="-208" type="curve" smooth="yes"/>
      <point x="156" y="-208"/>
      <point x="139" y="-207"/>
      <point x="121" y="-205" type="curve"/>
      <point x="135" y="-147" type="line"/>
      <point x="149" y="-150"/>
      <point x="162" y="-151"/>
      <point x="175" y="-151" type="curve" smooth="yes"/>
      <point x="228" y="-151"/>
      <point x="251" y="-141"/>
      <point x="251" y="-113" type="curve" smooth="yes"/>
      <point x="251" y="-93"/>
      <point x="233" y="-83"/>
      <point x="197" y="-83" type="curve" smooth="yes"/>
      <point x="185" y="-83" type="line"/>
      <point x="171" y="-83" type="line"/>
      <point x="219" y="0" type="line"/>
      <point x="288" y="0" type="line"/>
      <point x="265" y="-41" type="line"/>
      <point x="310" y="-41"/>
      <point x="341" y="-62"/>
      <point x="341" y="-105" type="curve" smooth="yes"/>
      <point x="341" y="-168"/>
      <point x="288" y="-208"/>
    </contour>
    <contour>
      <point x="517" y="232" type="curve"/>
      <point x="175" y="232" type="line"/>
      <point x="172" y="220"/>
      <point x="171" y="206"/>
      <point x="171" y="189" type="curve" smooth="yes"/>
      <point x="171" y="120"/>
      <point x="202" y="82"/>
      <point x="261" y="82" type="curve" smooth="yes"/>
      <point x="309" y="82"/>
      <point x="344" y="110"/>
      <point x="365" y="165" type="curve"/>
      <point x="485" y="128" type="line"/>
      <point x="436" y="25"/>
      <point x="369" y="-10"/>
      <point x="252" y="-10" type="curve" smooth="yes"/>
      <point x="113" y="-10"/>
      <point x="31" y="69"/>
      <point x="31" y="204" type="curve" smooth="yes"/>
      <point x="31" y="408"/>
      <point x="144" y="538"/>
      <point x="315" y="538" type="curve" smooth="yes"/>
      <point x="451" y="538"/>
      <point x="528" y="465"/>
      <point x="528" y="337" type="curve" smooth="yes"/>
      <point x="528" y="305"/>
      <point x="524" y="270"/>
    </contour>
    <contour>
      <point x="191" y="324" type="curve"/>
      <point x="401" y="324" type="line"/>
      <point x="403" y="351" type="line"/>
      <point x="403" y="420"/>
      <point x="367" y="451"/>
      <point x="315" y="451" type="curve" smooth="yes"/>
      <point x="254" y="451"/>
      <point x="210" y="407"/>
    </contour>
  </outline>
</glyph>
<glyph name="uni022C" format="1">
  <advance width="778"/>
  <unicode hex="022C"/>
  <outline>
    <contour>
      <point x="453" y="698" type="curve" smooth="yes"/>
      <point x="548" y="698"/>
      <point x="623" y="673"/>
      <point x="678" y="622" type="curve" smooth="yes"/>
      <point x="733" y="571"/>
      <point x="761" y="503"/>
      <point x="761" y="416" type="curve" smooth="yes"/>
      <point x="761" y="335"/>
      <point x="744" y="262"/>
      <point x="709" y="195" type="curve" smooth="yes"/>
      <point x="641" y="63"/>
      <point x="514" y="-10"/>
      <point x="355" y="-10" type="curve" smooth="yes"/>
      <point x="165" y="-10"/>
      <point x="49" y="103"/>
      <point x="49" y="280" type="curve" smooth="yes"/>
      <point x="49" y="357"/>
      <point x="66" y="428"/>
      <point x="100" y="494" type="curve" smooth="yes"/>
      <point x="169" y="626"/>
      <point x="294" y="698"/>
    </contour>
    <contour>
      <point x="446" y="584" type="curve" smooth="yes"/>
      <point x="393" y="584"/>
      <point x="348" y="572"/>
      <point x="311" y="547" type="curve" smooth="yes"/>
      <point x="274" y="523"/>
      <point x="246" y="486"/>
      <point x="225" y="437" type="curve" smooth="yes"/>
      <point x="205" y="388"/>
      <point x="195" y="337"/>
      <point x="195" y="284" type="curve" smooth="yes"/>
      <point x="195" y="164"/>
      <point x="257" y="104"/>
      <point x="362" y="104" type="curve" smooth="yes"/>
      <point x="414" y="104"/>
      <point x="459" y="116"/>
      <point x="496" y="140" type="curve" smooth="yes"/>
      <point x="533" y="165"/>
      <point x="562" y="201"/>
      <point x="582" y="249" type="curve" smooth="yes"/>
      <point x="603" y="297"/>
      <point x="613" y="349"/>
      <point x="613" y="404" type="curve" smooth="yes"/>
      <point x="613" y="519"/>
      <point x="554" y="584"/>
    </contour>
    <contour>
      <point x="326" y="829" type="line"/>
      <point x="339" y="896" type="line"/>
      <point x="638" y="896" type="line"/>
      <point x="625" y="829" type="line"/>
    </contour>
    <contour>
      <point x="520" y="713" type="curve" smooth="yes"/>
      <point x="503" y="713"/>
      <point x="482" y="719"/>
      <point x="455" y="732" type="curve" smooth="yes"/>
      <point x="428" y="744"/>
      <point x="409" y="750"/>
      <point x="397" y="750" type="curve" smooth="yes"/>
      <point x="368" y="750"/>
      <point x="353" y="740"/>
      <point x="342" y="713" type="curve"/>
      <point x="298" y="713" type="line"/>
      <point x="326" y="794"/>
      <point x="345" y="803"/>
      <point x="407" y="808" type="curve" smooth="yes"/>
      <point x="455" y="808"/>
      <point x="494" y="771"/>
      <point x="527" y="771" type="curve" smooth="yes"/>
      <point x="559" y="771"/>
      <point x="573" y="784"/>
      <point x="582" y="808" type="curve"/>
      <point x="627" y="808" type="line"/>
      <point x="616" y="778"/>
      <point x="607" y="758"/>
      <point x="599" y="747" type="curve" smooth="yes"/>
      <point x="583" y="726"/>
      <point x="559" y="713"/>
    </contour>
  </outline>
</glyph>
